Perun-Italic.ufo
<glyph name="exclam" format="2">
  <advance width="362"/>
  <unicode hex="0021"/>
  <outline>
    <contour>
      <point x="160.829" y="0" type="line"/>
      <point x="60.8287" y="0" type="line"/>
      <point x="79.2967" y="95" type="line"/>
      <point x="179.297" y="95" type="line"/>
    </contour>
    <contour>
      <point x="301.185" y="722" type="line"/>
      <point x="173.682" y="169" type="line"/>
      <point x="110.682" y="169" type="line"/>
      <point x="198.185" y="722" type="line"/>
    </contour>
  </outline>
</glyph>
<glyph name="quotedbl" format="2">
  <advance width="466"/>
  <unicode hex="0022"/>
  <outline>
    <contour>
      <point x="60.1898" y="434" type="line"/>
      <point x="120.19" y="434" type="line"/>
      <point x="199.171" y="722" type="line"/>
      <point x="93.1713" y="722" type="line"/>
    </contour>
    <contour>
      <point x="266.19" y="434" type="line"/>
      <point x="326.19" y="434" type="line"/>
      <point x="405.171" y="722" type="line"/>
      <point x="299.171" y="722" type="line"/>
    </contour>
  </outline>
</glyph>
<glyph name="numbersign" format="2">
  <advance width="745"/>
  <unicode hex="0023"/>
  <outline>
    <contour>
      <point x="49.8287" y="0" type="line"/>
      <point x="123.829" y="0" type="line"/>
      <point x="485.171" y="722" type="line"/>
      <point x="410.171" y="722" type="line"/>
    </contour>
    <contour>
      <point x="254.829" y="0" type="line"/>
      <point x="328.829" y="0" type="line"/>
      <point x="690.171" y="722" type="line"/>
      <point x="615.171" y="722" type="line"/>
    </contour>
    <contour>
      <point x="164.546" y="513" type="line"/>
      <point x="130.134" y="444" type="line"/>
      <point x="691.134" y="444" type="line"/>
      <point x="725.546" y="513" type="line"/>
    </contour>
    <contour>
      <point x="60.6978" y="308" type="line"/>
      <point x="26.2856" y="239" type="line"/>
      <point x="587.286" y="239" type="line"/>
      <point x="621.698" y="308" type="line"/>
    </contour>
  </outline>
  <guideline angle="253.054" x="545" y="722"/>
  <guideline angle="73.0535" x="399" y="0"/>
  <guideline angle="0" x="0" y="308"/>
  <guideline angle="0" x="0" y="239"/>
  <guideline angle="253.072" x="135" y="513"/>
  <guideline angle="73.0725" x="675" y="444"/>
  <guideline angle="0" x="0" y="513"/>
  <guideline angle="0" x="0" y="493"/>
</glyph>
<glyph name="dollar" format="2">
  <advance width="1788"/>
  <unicode hex="0024"/>
  <outline>
    <component base="S" xOffset="1563"/>
    <contour>
      <point x="191.314" y="700" type="line"/>
      <point x="247.314" y="700" type="line"/>
      <point x="266.752" y="800" type="line"/>
      <point x="210.752" y="800" type="line"/>
    </contour>
    <contour>
      <point x="131.056" y="390" type="line"/>
      <point x="187.056" y="390" type="line"/>
      <point x="242.066" y="673" type="line"/>
      <point x="186.066" y="673" type="line"/>
    </contour>
    <contour>
      <point x="66.5219" y="58" type="line"/>
      <point x="122.522" y="58" type="line"/>
      <point x="179.281" y="350" type="line"/>
      <point x="123.281" y="350" type="line"/>
    </contour>
    <contour>
      <point x="40.475" y="-76" type="line"/>
      <point x="96.475" y="-76" type="line"/>
      <point x="111.442" y="1" type="line"/>
      <point x="55.4423" y="1" type="line"/>
    </contour>
  </outline>
</glyph>
<glyph name="percent" format="2">
  <advance width="859"/>
  <unicode hex="0025"/>
  <outline>
    <contour>
      <point x="104.746" y="-14" type="line"/>
      <point x="194.746" y="-14" type="line"/>
      <point x="767.546" y="736" type="line"/>
      <point x="676.546" y="736" type="line"/>
    </contour>
    <contour>
      <point x="459.238" y="140.161" type="curve" smooth="yes"/>
      <point x="459.238" y="51.5959"/>
      <point x="513.585" y="-4"/>
      <point x="605.69" y="-4" type="curve" smooth="yes"/>
      <point x="738.649" y="-4"/>
      <point x="827.217" y="112.282"/>
      <point x="827.217" y="238.052" type="curve" smooth="yes"/>
      <point x="827.217" y="326.006"/>
      <point x="773.298" y="380"/>
      <point x="680.34" y="380" type="curve" smooth="yes"/>
      <point x="547.534" y="380"/>
      <point x="459.238" y="266.111"/>
    </contour>
    <contour>
      <point x="666.732" y="310" type="curve" smooth="yes"/>
      <point x="714.818" y="310"/>
      <point x="741.177" y="280.42"/>
      <point x="741.177" y="227.631" type="curve" smooth="yes"/>
      <point x="741.177" y="155.337"/>
      <point x="702.364" y="66"/>
      <point x="619.298" y="66" type="curve" smooth="yes"/>
      <point x="571.212" y="66"/>
      <point x="544.854" y="95.58"/>
      <point x="544.854" y="148.369" type="curve" smooth="yes"/>
      <point x="544.854" y="220.663"/>
      <point x="583.667" y="310"/>
    </contour>
    <contour>
      <point x="35.5005" y="486.161" type="curve" smooth="yes"/>
      <point x="35.5005" y="397.596"/>
      <point x="89.8478" y="342"/>
      <point x="181.953" y="342" type="curve" smooth="yes"/>
      <point x="314.911" y="342"/>
      <point x="403.479" y="458.282"/>
      <point x="403.479" y="584.052" type="curve" smooth="yes"/>
      <point x="403.479" y="672.006"/>
      <point x="349.56" y="726"/>
      <point x="256.602" y="726" type="curve" smooth="yes"/>
      <point x="123.797" y="726"/>
      <point x="35.5005" y="612.111"/>
    </contour>
    <contour>
      <point x="242.994" y="656" type="curve" smooth="yes"/>
      <point x="291.081" y="656"/>
      <point x="317.439" y="626.42"/>
      <point x="317.439" y="573.631" type="curve" smooth="yes"/>
      <point x="317.439" y="501.337"/>
      <point x="278.626" y="412"/>
      <point x="195.561" y="412" type="curve" smooth="yes"/>
      <point x="147.475" y="412"/>
      <point x="121.116" y="441.58"/>
      <point x="121.116" y="494.369" type="curve" smooth="yes"/>
      <point x="121.116" y="566.663"/>
      <point x="159.929" y="656"/>
    </contour>
  </outline>
</glyph>
<glyph name="ampersand" format="2">
  <advance width="765"/>
  <unicode hex="0026"/>
  <outline>
    <contour>
      <point x="503.218" y="0.3023" type="line"/>
      <point x="628.923" y="0.3023" type="line"/>
      <point x="310.532" y="434.933" type="line" smooth="yes"/>
      <point x="271.706" y="487.696"/>
      <point x="255.477" y="522.103"/>
      <point x="255.477" y="556.682" type="curve" smooth="yes"/>
      <point x="255.477" y="618.579"/>
      <point x="307.48" y="661"/>
      <point x="369.792" y="661" type="curve" smooth="yes"/>
      <point x="417.241" y="661"/>
      <point x="446.138" y="636.583"/>
      <point x="446.138" y="596.456" type="curve" smooth="yes"/>
      <point x="446.138" y="538.569"/>
      <point x="386.002" y="499.552"/>
      <point x="339.337" y="473.674" type="curve" smooth="yes"/>
      <point x="264.71" y="432.288" type="line"/>
      <point x="293.728" y="379.114" type="line"/>
      <point x="369.154" y="420.176" type="line" smooth="yes"/>
      <point x="442.486" y="460.099"/>
      <point x="531.193" y="527.013"/>
      <point x="531.193" y="616.448" type="curve" smooth="yes"/>
      <point x="531.193" y="688.823"/>
      <point x="473.252" y="736"/>
      <point x="384.445" y="736" type="curve" smooth="yes"/>
      <point x="267.365" y="736"/>
      <point x="160.725" y="654.025"/>
      <point x="160.725" y="537.782" type="curve" smooth="yes"/>
      <point x="160.725" y="485.587"/>
      <point x="182.225" y="436.814"/>
      <point x="231.152" y="370.576" type="curve" smooth="yes"/>
    </contour>
    <contour>
      <point x="32.6704" y="160.538" type="curve" smooth="yes"/>
      <point x="32.6704" y="54.9903"/>
      <point x="105.648" y="-13"/>
      <point x="225.169" y="-13" type="curve" smooth="yes"/>
      <point x="314.211" y="-13"/>
      <point x="421.486" y="24.7351"/>
      <point x="493.543" y="81.9162" type="curve"/>
      <point x="454.244" y="144.368" type="line"/>
      <point x="406.018" y="103.05"/>
      <point x="329.312" y="75"/>
      <point x="264.548" y="75" type="curve" smooth="yes"/>
      <point x="185.392" y="75"/>
      <point x="134.024" y="117.231"/>
      <point x="134.024" y="184.922" type="curve" smooth="yes"/>
      <point x="134.024" y="256.389"/>
      <point x="191.284" y="325.74"/>
      <point x="256.635" y="361.954" type="curve" smooth="yes"/>
      <point x="280.658" y="375.267" type="line"/>
      <point x="251.951" y="428.173" type="line"/>
      <point x="188.534" y="393.985" type="line" smooth="yes"/>
      <point x="98.5065" y="345.451"/>
      <point x="32.6704" y="260.292"/>
    </contour>
    <contour>
      <point x="511.551" y="101.456" type="line"/>
      <point x="574.299" y="159.499"/>
      <point x="635.88" y="291.477"/>
      <point x="661.497" y="422.813" type="curve"/>
      <point x="557.759" y="422.568" type="line"/>
      <point x="556.104" y="421.064" type="line"/>
      <point x="556" y="323.039"/>
      <point x="531.304" y="228.887"/>
      <point x="462.414" y="155.03" type="curve"/>
    </contour>
  </outline>
  <guideline angle="211.264" x="240" y="427"/>
  <guideline angle="211.264" x="240" y="350"/>
</glyph>
<glyph name="parenleft" format="2">
  <advance width="327"/>
  <unicode hex="0028"/>
  <outline>
    <contour>
      <point x="30.2146" y="131.875" type="curve" smooth="yes"/>
      <point x="30.2146" y="40.5396"/>
      <point x="45.4604" y="-47.5905"/>
      <point x="75.6155" y="-133" type="curve"/>
      <point x="139.615" y="-133" type="line"/>
      <point x="127.826" y="-58.4711"/>
      <point x="122.028" y="14.0035"/>
      <point x="122.028" y="83.9878" type="curve" smooth="yes"/>
      <point x="122.028" y="322.363"/>
      <point x="193.184" y="527.737"/>
      <point x="308.532" y="736" type="curve"/>
      <point x="244.532" y="736" type="line"/>
      <point x="114.992" y="561.377"/>
      <point x="30.2146" y="351.063"/>
    </contour>
  </outline>
</glyph>
<glyph name="parenright" format="2">
  <advance width="359"/>
  <unicode hex="0029"/>
  <outline>
    <contour>
      <point x="-4.99577" y="-130" type="curve"/>
      <point x="59.0042" y="-130" type="line"/>
      <point x="188.93" y="45.1426"/>
      <point x="272.995" y="253.293"/>
      <point x="272.995" y="472.957" type="curve" smooth="yes"/>
      <point x="272.995" y="564.402"/>
      <point x="257.825" y="652.75"/>
      <point x="227.726" y="738" type="curve"/>
      <point x="163.726" y="738" type="line"/>
      <point x="175.968" y="663.853"/>
      <point x="181.998" y="591.584"/>
      <point x="181.998" y="521.536" type="curve" smooth="yes"/>
      <point x="181.998" y="284.142"/>
      <point x="108.572" y="77.641"/>
    </contour>
  </outline>
</glyph>
<glyph name="asterisk" format="2">
  <advance width="656"/>
  <unicode hex="002A"/>
  <outline>
    <contour>
      <point x="194.721" y="375" type="line"/>
      <point x="259.946" y="335" type="line"/>
      <point x="352.52" y="482" type="line"/>
      <point x="387.946" y="335" type="line"/>
      <point x="467.721" y="375" type="line"/>
      <point x="392.768" y="509" type="line"/>
      <point x="553.686" y="488" type="line"/>
      <point x="569.625" y="570" type="line"/>
      <point x="400.544" y="549" type="line"/>
      <point x="527.59" y="683" type="line"/>
      <point x="463.171" y="722" type="line"/>
      <point x="370.792" y="576" type="line"/>
      <point x="335.171" y="722" type="line"/>
      <point x="254.59" y="683" type="line"/>
      <point x="329.544" y="549" type="line"/>
      <point x="168.625" y="570" type="line"/>
      <point x="152.686" y="488" type="line"/>
      <point x="321.768" y="509" type="line"/>
    </contour>
  </outline>
  <guideline angle="331.557" x="393" y="722"/>
  <guideline angle="293.671" x="265" y="722"/>
  <guideline angle="127.006" x="293" y="549"/>
  <guideline angle="90" x="329" y="0"/>
  <guideline angle="0" x="0" y="527"/>
</glyph>
<glyph name="plus" format="2">
  <advance width="654"/>
  <unicode hex="002B"/>
  <outline>
    <contour>
      <point x="40.5854" y="267" type="line"/>
      <point x="309.585" y="267" type="line"/>
      <point x="257.297" y="-2" type="line"/>
      <point x="319.297" y="-2" type="line"/>
      <point x="371.585" y="267" type="line"/>
      <point x="640.585" y="267" type="line"/>
      <point x="653.026" y="331" type="line"/>
      <point x="384.026" y="331" type="line"/>
      <point x="436.314" y="600" type="line"/>
      <point x="374.314" y="600" type="line"/>
      <point x="322.026" y="331" type="line"/>
      <point x="53.0258" y="331" type="line"/>
    </contour>
  </outline>
  <guideline angle="0" x="0" y="304"/>
  <guideline angle="90" x="349" y="0"/>
</glyph>
<glyph name="comma" format="2">
  <advance width="275"/>
  <unicode hex="002C"/>
  <outline>
    <contour>
      <point x="11.3593" y="-127" type="line"/>
      <point x="81.3593" y="-127" type="line"/>
      <point x="239.954" y="123" type="line"/>
      <point x="119.954" y="123" type="line"/>
    </contour>
  </outline>
</glyph>
<glyph name="hyphen" format="2">
  <advance width="377"/>
  <unicode hex="002D"/>
  <outline>
    <contour>
      <point x="60.76" y="203" type="line"/>
      <point x="300.76" y="203" type="line"/>
      <point x="316.699" y="285" type="line"/>
      <point x="76.6992" y="285" type="line"/>
    </contour>
  </outline>
</glyph>
<glyph name="period" format="2">
  <advance width="252"/>
  <unicode hex="002E"/>
  <outline>
    <contour>
      <point x="60.0456" y="0" type="line"/>
      <point x="168.046" y="0" type="line"/>
      <point x="191.957" y="123" type="line"/>
      <point x="83.9568" y="123" type="line"/>
    </contour>
  </outline>
</glyph>
<glyph name="zero" format="2">
  <advance width="558"/>
  <unicode hex="0030"/>
  <outline>
    <contour>
      <point x="35.4129" y="216.406" type="curve" smooth="yes"/>
      <point x="35.4129" y="91.9473"/>
      <point x="75.6517" y="-14"/>
      <point x="210.747" y="-14" type="curve" smooth="yes"/>
      <point x="440.38" y="-14"/>
      <point x="526.792" y="329.306"/>
      <point x="526.792" y="518.129" type="curve" smooth="yes"/>
      <point x="526.792" y="638.631"/>
      <point x="484.555" y="736"/>
      <point x="348.532" y="736" type="curve" smooth="yes"/>
      <point x="111.867" y="736"/>
      <point x="35.4129" y="408.497"/>
    </contour>
    <contour>
      <point x="128.345" y="232.002" type="curve" smooth="yes"/>
      <point x="128.345" y="331.89"/>
      <point x="179.911" y="650"/>
      <point x="339.815" y="650" type="curve" smooth="yes"/>
      <point x="409.877" y="650"/>
      <point x="431.571" y="594.434"/>
      <point x="431.571" y="506.945" type="curve" smooth="yes"/>
      <point x="431.571" y="391.072"/>
      <point x="374.723" y="68"/>
      <point x="220.686" y="68" type="curve" smooth="yes"/>
      <point x="150.159" y="68"/>
      <point x="128.345" y="125.253"/>
    </contour>
  </outline>
</glyph>
<glyph name="one" format="2">
  <advance width="558"/>
  <unicode hex="0031"/>
  <outline>
    <contour>
      <point x="215.829" y="0" type="line"/>
      <point x="308.829" y="0" type="line"/>
      <point x="449.171" y="722" type="line"/>
      <point x="349.171" y="722" type="line"/>
      <point x="326.117" y="696"/>
      <point x="234.871" y="633"/>
      <point x="176.846" y="602" type="curve"/>
      <point x="160.712" y="519" type="line"/>
      <point x="233.349" y="548"/>
      <point x="290.792" y="576"/>
      <point x="332.846" y="602" type="curve"/>
    </contour>
  </outline>
</glyph>
<glyph name="two" format="2">
  <advance width="558"/>
  <unicode hex="0032"/>
  <outline>
    <contour>
      <point x="-11.532" y="0" type="line"/>
      <point x="423.468" y="0" type="line"/>
      <point x="438.63" y="78" type="line"/>
      <point x="101.63" y="78" type="line"/>
      <point x="103.899" y="71.7163" type="line"/>
      <point x="252.349" y="166.894"/>
      <point x="530.934" y="378.359"/>
      <point x="530.934" y="573.589" type="curve" smooth="yes"/>
      <point x="530.934" y="669.98"/>
      <point x="461.549" y="736"/>
      <point x="355.532" y="736" type="curve" smooth="yes"/>
      <point x="222.532" y="736"/>
      <point x="136.925" y="666"/>
      <point x="98.7121" y="526" type="curve"/>
      <point x="200.712" y="526" type="line"/>
      <point x="227.04" y="610"/>
      <point x="273.398" y="653"/>
      <point x="342.398" y="653" type="curve" smooth="yes"/>
      <point x="399.637" y="653"/>
      <point x="431.856" y="623.41"/>
      <point x="431.856" y="565.371" type="curve" smooth="yes"/>
      <point x="431.856" y="384.346"/>
      <point x="141.417" y="174.219"/>
      <point x="6.54548" y="93" type="curve"/>
    </contour>
  </outline>
</glyph>
<glyph name="three" format="2">
  <advance width="558"/>
  <unicode hex="0033"/>
  <outline>
    <contour>
      <point x="11.4003" y="190" type="line"/>
      <point x="8.4528" y="174.836"/>
      <point x="7.0167" y="160.33"/>
      <point x="7.0167" y="146.548" type="curve" smooth="yes"/>
      <point x="7.0167" y="47.6406"/>
      <point x="80.9751" y="-14"/>
      <point x="201.037" y="-14" type="curve" smooth="yes"/>
      <point x="353.401" y="-14"/>
      <point x="485.409" y="91.0631"/>
      <point x="485.409" y="248.463" type="curve" smooth="yes"/>
      <point x="485.409" y="316.642"/>
      <point x="452.1" y="368.167"/>
      <point x="384.176" y="384.252" type="curve"/>
      <point x="382.961" y="380.445" type="line"/>
      <point x="476.991" y="407.221"/>
      <point x="540.542" y="493.871"/>
      <point x="540.542" y="590.825" type="curve" smooth="yes"/>
      <point x="540.542" y="680.435"/>
      <point x="474.818" y="736"/>
      <point x="365.192" y="736" type="curve" smooth="yes"/>
      <point x="228.647" y="736"/>
      <point x="115.685" y="649.329"/>
      <point x="92.8783" y="532" type="curve"/>
      <point x="192.878" y="532" type="line"/>
      <point x="207.208" y="605.718"/>
      <point x="268.236" y="659"/>
      <point x="343.727" y="659" type="curve" smooth="yes"/>
      <point x="403.356" y="659"/>
      <point x="437.568" y="625.756"/>
      <point x="437.568" y="570.614" type="curve" smooth="yes"/>
      <point x="437.568" y="488.02"/>
      <point x="378.016" y="416"/>
      <point x="291.925" y="416" type="curve" smooth="yes"/>
      <point x="219.535" y="416" type="line"/>
      <point x="203.985" y="336" type="line"/>
      <point x="288.157" y="336" type="line" smooth="yes"/>
      <point x="352.939" y="336"/>
      <point x="385.812" y="295.428"/>
      <point x="385.812" y="241.793" type="curve" smooth="yes"/>
      <point x="385.812" y="148.461"/>
      <point x="315.113" y="63"/>
      <point x="218.517" y="63" type="curve" smooth="yes"/>
      <point x="153.285" y="63"/>
      <point x="114.365" y="100.781"/>
      <point x="114.365" y="160.014" type="curve" smooth="yes"/>
      <point x="114.365" y="169.483"/>
      <point x="115.359" y="179.501"/>
      <point x="117.4" y="190" type="curve"/>
    </contour>
  </outline>
</glyph>
<glyph name="four" format="2">
  <advance width="558"/>
  <unicode hex="0034"/>
  <outline>
    <contour>
      <point x="78.1732" y="259" type="line"/>
      <point x="81.5477" y="249.037" type="line"/>
      <point x="404.415" y="621.963" type="line"/>
      <point x="398.122" y="624" type="line"/>
      <point x="276.829" y="0" type="line"/>
      <point x="369.829" y="0" type="line"/>
      <point x="510.171" y="722" type="line"/>
      <point x="400.171" y="722" type="line"/>
      <point x="14.4496" y="281" type="line"/>
      <point x="-5.96034" y="176" type="line"/>
      <point x="326.04" y="176" type="line"/>
      <point x="342.173" y="259" type="line"/>
    </contour>
    <contour>
      <point x="389.04" y="176" type="line"/>
      <point x="493.04" y="176" type="line"/>
      <point x="509.173" y="259" type="line"/>
      <point x="405.173" y="259" type="line"/>
    </contour>
  </outline>
  <guideline angle="296.565" x="98" y="259"/>
  <guideline angle="0" x="0" y="705"/>
</glyph>
<glyph name="five" format="2">
  <advance width="558"/>
  <unicode hex="0035"/>
  <outline>
    <contour>
      <point x="12.8581" y="135.065" type="curve" smooth="yes"/>
      <point x="12.8581" y="34.258"/>
      <point x="97.491" y="-13"/>
      <point x="217.302" y="-13" type="curve" smooth="yes"/>
      <point x="377.776" y="-13"/>
      <point x="493.365" y="182.826"/>
      <point x="493.365" y="328.785" type="curve" smooth="yes"/>
      <point x="493.365" y="429.781"/>
      <point x="439.22" y="480"/>
      <point x="346.131" y="480" type="curve" smooth="yes"/>
      <point x="265.793" y="480"/>
      <point x="215.959" y="442.135"/>
      <point x="176.996" y="404.507" type="curve"/>
      <point x="182.581" y="400" type="line"/>
      <point x="231.37" y="651" type="line"/>
      <point x="217.038" y="639" type="line"/>
      <point x="514.038" y="639" type="line"/>
      <point x="530.171" y="722" type="line"/>
      <point x="147.171" y="722" type="line"/>
      <point x="65.5316" y="302" type="line"/>
      <point x="142.532" y="302" type="line"/>
      <point x="186.944" y="371"/>
      <point x="237.747" y="406"/>
      <point x="297.747" y="406" type="curve" smooth="yes"/>
      <point x="357.674" y="406"/>
      <point x="387.873" y="371.475"/>
      <point x="387.873" y="302.425" type="curve" smooth="yes"/>
      <point x="387.873" y="206.006"/>
      <point x="334.201" y="67"/>
      <point x="221.852" y="67" type="curve" smooth="yes"/>
      <point x="159.157" y="67"/>
      <point x="119.354" y="95.0548"/>
      <point x="119.354" y="149.844" type="curve" smooth="yes"/>
      <point x="119.354" y="157.975"/>
      <point x="120.231" y="166.695"/>
      <point x="122.04" y="176" type="curve"/>
      <point x="17.0396" y="176" type="line"/>
      <point x="14.2183" y="161.486"/>
      <point x="12.8581" y="147.845"/>
    </contour>
  </outline>
</glyph>
<glyph name="six" format="2">
  <advance width="558"/>
  <unicode hex="0036"/>
  <outline>
    <contour>
      <point x="21.8925" y="184.029" type="curve" smooth="yes"/>
      <point x="21.8925" y="51.6954"/>
      <point x="81.3382" y="-14"/>
      <point x="203.586" y="-14" type="curve" smooth="yes"/>
      <point x="378.418" y="-14"/>
      <point x="489.731" y="118.731"/>
      <point x="489.731" y="285.759" type="curve" smooth="yes"/>
      <point x="489.731" y="391.844"/>
      <point x="428.226" y="446"/>
      <point x="306.917" y="446" type="curve" smooth="yes"/>
      <point x="247.883" y="446"/>
      <point x="178.06" y="406.527"/>
      <point x="144.181" y="354" type="curve"/>
      <point x="185.417" y="566.138"/>
      <point x="249.614" y="660"/>
      <point x="353.472" y="660" type="curve" smooth="yes"/>
      <point x="399.986" y="660"/>
      <point x="429.888" y="625.427"/>
      <point x="429.888" y="576.088" type="curve" smooth="yes"/>
      <point x="429.888" y="567.779"/>
      <point x="429.04" y="559.052"/>
      <point x="427.28" y="550" type="curve"/>
      <point x="527.28" y="550" type="line"/>
      <point x="530.057" y="564.286"/>
      <point x="531.413" y="577.981"/>
      <point x="531.413" y="591.002" type="curve" smooth="yes"/>
      <point x="531.413" y="679.624"/>
      <point x="468.585" y="737"/>
      <point x="363.328" y="737" type="curve" smooth="yes"/>
      <point x="120.776" y="737"/>
      <point x="21.8925" y="384.631"/>
    </contour>
    <contour>
      <point x="286.992" y="369" type="curve" smooth="yes"/>
      <point x="352.901" y="369"/>
      <point x="387.802" y="332.626"/>
      <point x="387.802" y="266.016" type="curve" smooth="yes"/>
      <point x="387.802" y="170.089"/>
      <point x="333.858" y="63"/>
      <point x="225.697" y="63" type="curve" smooth="yes"/>
      <point x="159.544" y="63"/>
      <point x="122.688" y="102.316"/>
      <point x="122.688" y="170.635" type="curve" smooth="yes"/>
      <point x="122.688" y="267.856"/>
      <point x="178.837" y="369"/>
    </contour>
  </outline>
</glyph>
<glyph name="seven" format="2">
  <advance width="558"/>
  <unicode hex="0037"/>
  <outline>
    <contour>
      <point x="86.8287" y="0" type="line"/>
      <point x="196.829" y="0" type="line"/>
      <point x="552.733" y="622" type="line"/>
      <point x="572.171" y="722" type="line"/>
      <point x="127.171" y="722" type="line"/>
      <point x="111.621" y="642" type="line"/>
      <point x="478.621" y="642" type="line"/>
      <point x="473.218" y="653.152" type="line"/>
    </contour>
  </outline>
</glyph>
<glyph name="eight" format="2">
  <advance width="558"/>
  <unicode hex="0038"/>
  <outline>
    <contour>
      <point x="273.446" y="343" type="curve" smooth="yes"/>
      <point x="345.238" y="343"/>
      <point x="385.026" y="303.444"/>
      <point x="385.026" y="237.749" type="curve" smooth="yes"/>
      <point x="385.026" y="138.296"/>
      <point x="321.993" y="64"/>
      <point x="218.218" y="64" type="curve" smooth="yes"/>
      <point x="141.951" y="64"/>
      <point x="98.4785" y="100.277"/>
      <point x="98.4785" y="165.187" type="curve" smooth="yes"/>
      <point x="98.4785" y="263.517"/>
      <point x="173.254" y="343"/>
    </contour>
    <contour>
      <point x="288.413" y="420" type="curve" smooth="yes"/>
      <point x="226.254" y="420"/>
      <point x="187.405" y="459.075"/>
      <point x="187.405" y="517.031" type="curve" smooth="yes"/>
      <point x="187.405" y="601.346"/>
      <point x="250.834" y="661"/>
      <point x="335.259" y="661" type="curve" smooth="yes"/>
      <point x="400.613" y="661"/>
      <point x="438.059" y="628.197"/>
      <point x="438.059" y="572.891" type="curve" smooth="yes"/>
      <point x="438.059" y="490.689"/>
      <point x="372.112" y="420"/>
    </contour>
    <contour>
      <point x="483.813" y="238.577" type="curve" smooth="yes"/>
      <point x="483.813" y="311.013"/>
      <point x="448.354" y="358.768"/>
      <point x="379.017" y="384" type="curve"/>
      <point x="462.205" y="425.364"/>
      <point x="534.107" y="488.499"/>
      <point x="534.107" y="587.449" type="curve" smooth="yes"/>
      <point x="534.107" y="677.324"/>
      <point x="461.854" y="738"/>
      <point x="350.226" y="738" type="curve" smooth="yes"/>
      <point x="225.101" y="738"/>
      <point x="94.9771" y="655.903"/>
      <point x="94.9771" y="520.795" type="curve" smooth="yes"/>
      <point x="94.9771" y="459.95"/>
      <point x="126.265" y="408.136"/>
      <point x="181.628" y="383" type="curve"/>
      <point x="77.2294" y="350.635"/>
      <point x="0.424023" y="255.068"/>
      <point x="0.424023" y="144.794" type="curve" smooth="yes"/>
      <point x="0.424023" y="46.4186"/>
      <point x="75.1972" y="-13"/>
      <point x="201.31" y="-13" type="curve" smooth="yes"/>
      <point x="354.968" y="-13"/>
      <point x="483.813" y="78.4549"/>
    </contour>
  </outline>
  <guideline angle="0" x="0" y="383"/>
</glyph>
<glyph name="nine" format="2">
  <advance width="558"/>
  <unicode hex="0039"/>
  <outline>
    <contour>
      <point x="23.8382" y="123.861" type="curve" smooth="yes"/>
      <point x="23.8382" y="37.5163"/>
      <point x="78.4696" y="-14"/>
      <point x="186.65" y="-14" type="curve" smooth="yes"/>
      <point x="450.019" y="-14"/>
      <point x="538.485" y="348.869"/>
      <point x="538.485" y="563.961" type="curve" smooth="yes"/>
      <point x="538.485" y="668.571"/>
      <point x="495.959" y="737"/>
      <point x="343.629" y="737" type="curve" smooth="yes"/>
      <point x="172.494" y="737"/>
      <point x="67.6784" y="601.621"/>
      <point x="67.6784" y="439.95" type="curve" smooth="yes"/>
      <point x="67.6784" y="346.003"/>
      <point x="116.433" y="278"/>
      <point x="229.409" y="278" type="curve" smooth="yes"/>
      <point x="309.409" y="278"/>
      <point x="374.018" y="312"/>
      <point x="416.292" y="370" type="curve"/>
      <point x="398.02" y="276"/>
      <point x="349.617" y="63"/>
      <point x="212.617" y="63" type="curve" smooth="yes"/>
      <point x="151.861" y="63"/>
      <point x="121.042" y="85.1659"/>
      <point x="121.042" y="136.992" type="curve" smooth="yes"/>
      <point x="121.042" y="147.437"/>
      <point x="122.294" y="159.085"/>
      <point x="124.804" y="172" type="curve"/>
      <point x="28.8043" y="172" type="line"/>
      <point x="25.4918" y="154.958"/>
      <point x="23.8384" y="138.883"/>
    </contour>
    <contour>
      <point x="273.376" y="355" type="curve" smooth="yes"/>
      <point x="199.679" y="355"/>
      <point x="170.865" y="390.037"/>
      <point x="170.902" y="451.435" type="curve" smooth="yes"/>
      <point x="170.963" y="553.666"/>
      <point x="213.626" y="660"/>
      <point x="332.662" y="660" type="curve" smooth="yes"/>
      <point x="406.76" y="660"/>
      <point x="436.261" y="625.203"/>
      <point x="436.19" y="563.445" type="curve" smooth="yes"/>
      <point x="436.071" y="460.985"/>
      <point x="390.82" y="355"/>
    </contour>
  </outline>
</glyph>
<glyph name="semicolon" format="2">
  <advance width="275"/>
  <unicode hex="003B"/>
  <outline>
    <contour>
      <point x="-39.3885" y="-127" type="line"/>
      <point x="30.6115" y="-127" type="line"/>
      <point x="189.207" y="123" type="line"/>
      <point x="69.2066" y="123" type="line"/>
    </contour>
    <contour>
      <point x="122.686" y="377" type="line"/>
      <point x="230.686" y="377" type="line"/>
      <point x="254.595" y="500" type="line"/>
      <point x="146.595" y="500" type="line"/>
    </contour>
  </outline>
  <guideline angle="90" x="98" y="0"/>
  <guideline angle="90" x="206" y="0"/>
</glyph>
<glyph name="less" format="2">
  <advance width="758"/>
  <unicode hex="003C"/>
  <outline>
    <contour>
      <point x="50.7646" y="269" type="line"/>
      <point x="606.057" y="39" type="line"/>
      <point x="618.109" y="101" type="line"/>
      <point x="110.353" y="304.177" type="line"/>
      <point x="108.729" y="295.823" type="line"/>
      <point x="695.472" y="499" type="line"/>
      <point x="707.524" y="561" type="line"/>
      <point x="62.8162" y="331" type="line"/>
    </contour>
  </outline>
  <guideline angle="20.9735" x="53" y="331"/>
  <guideline angle="200.361" x="653" y="499"/>
  <guideline angle="339.639" x="106" y="304"/>
  <guideline angle="159.027" x="653" y="39"/>
  <guideline angle="90" x="653" y="0"/>
  <guideline angle="90" x="53" y="0"/>
  <guideline angle="90" x="73" y="0"/>
</glyph>
<glyph name="greater" format="2">
  <advance width="700"/>
  <unicode hex="003E"/>
  <outline>
    <contour>
      <point x="647.765" y="269" type="line"/>
      <point x="659.816" y="331" type="line"/>
      <point x="104.524" y="561" type="line"/>
      <point x="92.4721" y="499" type="line"/>
      <point x="600.228" y="295.823" type="line"/>
      <point x="601.852" y="304.177" type="line"/>
      <point x="15.1087" y="101" type="line"/>
      <point x="3.05717" y="39" type="line"/>
    </contour>
  </outline>
</glyph>
<glyph name="question" format="2">
  <advance width="516"/>
  <unicode hex="003F"/>
  <outline>
    <contour>
      <point x="94.3709" y="0" type="line"/>
      <point x="202.371" y="0" type="line"/>
      <point x="226.282" y="123" type="line"/>
      <point x="118.282" y="123" type="line"/>
    </contour>
    <contour>
      <point x="147.835" y="233.87" type="curve" smooth="yes"/>
      <point x="134.447" y="165" type="line"/>
      <point x="224.447" y="165" type="line"/>
      <point x="233.813" y="213.18" type="line" smooth="yes"/>
      <point x="270.366" y="401.208"/>
      <point x="500.686" y="371.766"/>
      <point x="500.686" y="596.194" type="curve" smooth="yes"/>
      <point x="500.686" y="682.795"/>
      <point x="435.929" y="737"/>
      <point x="319.983" y="737" type="curve" smooth="yes"/>
      <point x="224.243" y="737"/>
      <point x="129.149" y="686.589"/>
      <point x="70.9829" y="605" type="curve"/>
      <point x="137.538" y="556.668" type="line"/>
      <point x="175.722" y="610.175"/>
      <point x="230.409" y="647"/>
      <point x="303.487" y="647" type="curve" smooth="yes"/>
      <point x="368.552" y="647"/>
      <point x="403.277" y="615.536"/>
      <point x="403.25" y="569.562" type="curve" smooth="yes"/>
      <point x="403.147" y="398.95"/>
      <point x="187.404" y="437.414"/>
    </contour>
  </outline>
  <guideline angle="147.529" x="91" y="563"/>
  <guideline angle="0" x="0" y="737"/>
  <guideline angle="0" x="0" y="737"/>
  <guideline angle="62.5924" x="25" y="605"/>
  <guideline angle="62.5603" x="91" y="563"/>
  <guideline angle="90" x="209" y="0"/>
  <guideline angle="90" x="264" y="0"/>
</glyph>
<glyph name="at" format="2">
  <advance width="1000"/>
  <unicode hex="0040"/>
  <outline>
    <contour>
      <point x="34.25" y="167.253" type="curve" smooth="yes"/>
      <point x="34.25" y="-46.7114"/>
      <point x="163.639" y="-178"/>
      <point x="411.812" y="-178" type="curve" smooth="yes"/>
      <point x="476.812" y="-178"/>
      <point x="531.562" y="-169"/>
      <point x="581.866" y="-152" type="curve"/>
      <point x="597.611" y="-71" type="line"/>
      <point x="541.084" y="-84"/>
      <point x="506.306" y="-88"/>
      <point x="424.306" y="-88" type="curve" smooth="yes"/>
      <point x="223.749" y="-88"/>
      <point x="129.816" y="15.1883"/>
      <point x="129.816" y="182.951" type="curve" smooth="yes"/>
      <point x="129.816" y="435.488"/>
      <point x="285.99" y="626"/>
      <point x="552.094" y="626" type="curve" smooth="yes"/>
      <point x="740.612" y="626"/>
      <point x="841.618" y="555.249"/>
      <point x="841.769" y="395.622" type="curve" smooth="yes"/>
      <point x="841.849" y="310.043"/>
      <point x="794.319" y="108"/>
      <point x="694.405" y="108" type="curve" smooth="yes"/>
      <point x="663.025" y="108"/>
      <point x="651.544" y="132.017"/>
      <point x="651.544" y="162.118" type="curve" smooth="yes"/>
      <point x="651.544" y="171.346"/>
      <point x="652.623" y="181.145"/>
      <point x="654.539" y="191" type="curve" smooth="yes"/>
      <point x="711.686" y="485" type="line"/>
      <point x="621.686" y="485" type="line"/>
      <point x="610.412" y="427" type="line"/>
      <point x="581.771" y="470"/>
      <point x="563.047" y="492"/>
      <point x="483.047" y="492" type="curve" smooth="yes"/>
      <point x="339.525" y="492"/>
      <point x="253.901" y="331.923"/>
      <point x="253.901" y="203.071" type="curve" smooth="yes"/>
      <point x="253.901" y="105.907"/>
      <point x="300.733" y="26"/>
      <point x="392.466" y="26" type="curve" smooth="yes"/>
      <point x="473.466" y="26"/>
      <point x="517.075" y="60"/>
      <point x="558.96" y="116" type="curve"/>
      <point x="575.714" y="53"/>
      <point x="613.494" y="21"/>
      <point x="672.494" y="21" type="curve" smooth="yes"/>
      <point x="845.856" y="21"/>
      <point x="939.198" y="253.3"/>
      <point x="939.198" y="402.566" type="curve" smooth="yes"/>
      <point x="939.198" y="612.175"/>
      <point x="790.578" y="716"/>
      <point x="561.588" y="716" type="curve" smooth="yes"/>
      <point x="249.032" y="716"/>
      <point x="34.2501" y="468.059"/>
    </contour>
    <contour>
      <point x="425.878" y="95" type="curve" smooth="yes"/>
      <point x="376.244" y="95"/>
      <point x="349.51" y="128.819"/>
      <point x="349.51" y="195.565" type="curve" smooth="yes"/>
      <point x="349.51" y="284.271"/>
      <point x="389.977" y="423"/>
      <point x="496.635" y="423" type="curve" smooth="yes"/>
      <point x="556.938" y="423"/>
      <point x="580.699" y="377"/>
      <point x="580.699" y="318.623" type="curve" smooth="yes"/>
      <point x="580.699" y="231.12"/>
      <point x="526.43" y="95"/>
    </contour>
  </outline>
</glyph>
<glyph name="A" format="2">
  <advance width="681"/>
  <unicode hex="0041"/>
  <anchor x="455.75" y="797" name="top"/>
  <anchor x="589.773" y="10" name="ogonekUC"/>
  <anchor x="243.171" y="722" name="tonos"/>
  <anchor x="455" y="682" name="t.ring"/>
  <anchor x="286" y="-80" name="bottom"/>
  <outline>
    <contour>
      <point x="-59.1713" y="0" type="line"/>
      <point x="43.8287" y="0" type="line"/>
      <point x="416.089" y="613.292" type="line"/>
      <point x="554.829" y="0" type="line"/>
      <point x="660.829" y="0" type="line"/>
      <point x="494.185" y="722" type="line"/>
      <point x="384.185" y="722" type="line"/>
    </contour>
    <contour>
      <point x="135.348" y="193" type="line"/>
      <point x="539.348" y="193" type="line"/>
      <point x="513.872" y="278" type="line"/>
      <point x="190.872" y="278" type="line"/>
    </contour>
  </outline>
  <guideline angle="292.813" x="368" y="611"/>
  <guideline angle="67.5869" x="114" y="0"/>
  <guideline angle="90" x="330" y="0"/>
  <guideline angle="0" x="0" y="231"/>
  <guideline angle="0" x="0" y="255"/>
  <guideline angle="292.825" x="367" y="613"/>
  <guideline angle="67.5729" x="114" y="0"/>
</glyph>
<glyph name="B" format="2">
  <advance width="660"/>
  <unicode hex="0042"/>
  <anchor x="380" y="797" name="top"/>
  <anchor x="238" y="-80" name="bottom"/>
  <outline>
    <contour>
      <point x="94.9188" y="0" type="line"/>
      <point x="325.919" y="0" type="line" smooth="yes"/>
      <point x="481.406" y="0"/>
      <point x="585.101" y="100.911"/>
      <point x="585.157" y="252.277" type="curve" smooth="yes"/>
      <point x="585.189" y="340.168"/>
      <point x="506.197" y="405.263"/>
      <point x="387.677" y="415.014" type="curve"/>
      <point x="511.332" y="357.546" type="line"/>
      <point x="510.605" y="397.851" type="line"/>
      <point x="387.677" y="341.09" type="line"/>
      <point x="528.89" y="356.805"/>
      <point x="623.032" y="448.011"/>
      <point x="623.032" y="567.791" type="curve" smooth="yes"/>
      <point x="623.032" y="668.489"/>
      <point x="556.497" y="722"/>
      <point x="440.275" y="722" type="curve" smooth="yes"/>
      <point x="235.275" y="722" type="line"/>
      <point x="218.363" y="635" type="line"/>
      <point x="393.363" y="635" type="line" smooth="yes"/>
      <point x="484.081" y="635"/>
      <point x="529.032" y="607.074"/>
      <point x="529.032" y="540.021" type="curve" smooth="yes"/>
      <point x="529.032" y="468.008"/>
      <point x="460.12" y="420"/>
      <point x="356.752" y="420" type="curve" smooth="yes"/>
      <point x="176.567" y="420" type="line"/>
      <point x="160.432" y="337" type="line"/>
      <point x="328.432" y="337" type="line" smooth="yes"/>
      <point x="434.166" y="337"/>
      <point x="490.79" y="303.278"/>
      <point x="490.79" y="237.005" type="curve" smooth="yes"/>
      <point x="490.79" y="152.635"/>
      <point x="428.748" y="87"/>
      <point x="314.562" y="87" type="curve" smooth="yes"/>
      <point x="111.832" y="87" type="line"/>
    </contour>
    <contour>
      <point x="40.0901" y="0" type="line"/>
      <point x="140.09" y="0" type="line"/>
      <point x="280.09" y="722" type="line"/>
      <point x="180.09" y="722" type="line"/>
    </contour>
  </outline>
  <guideline angle="90" x="37" y="0"/>
  <guideline angle="90" x="623" y="0"/>
  <guideline angle="78.6901" x="497.4" y="385"/>
  <guideline angle="0" x="0" y="390"/>
  <guideline angle="0" x="0" y="385"/>
  <guideline angle="79.0262" x="225.044" y="0"/>
</glyph>
<glyph name="C" format="2">
  <advance width="673"/>
  <unicode hex="0043"/>
  <anchor x="431.584" y="797" name="top"/>
  <anchor x="300.606" y="10" name="bottom"/>
  <anchor x="281" y="0" name="b.cedilla"/>
  <outline>
    <contour>
      <point x="30.89" y="254.9" type="curve" smooth="yes"/>
      <point x="30.89" y="94.41"/>
      <point x="116.7" y="-12"/>
      <point x="301.848" y="-12" type="curve" smooth="yes"/>
      <point x="458.32" y="-12"/>
      <point x="564.1" y="64"/>
      <point x="589.57" y="195" type="curve"/>
      <point x="488.57" y="195" type="line"/>
      <point x="474.37" y="122"/>
      <point x="402.43" y="76"/>
      <point x="304.688" y="76" type="curve" smooth="yes"/>
      <point x="188.02" y="76"/>
      <point x="133.52" y="141.54"/>
      <point x="133.65" y="257.83" type="curve" smooth="yes"/>
      <point x="133.86" y="438.99"/>
      <point x="214.33" y="646"/>
      <point x="425.24" y="646" type="curve" smooth="yes"/>
      <point x="507.26" y="646"/>
      <point x="551.99" y="614.78"/>
      <point x="551.99" y="555.01" type="curve" smooth="yes"/>
      <point x="551.99" y="546.28"/>
      <point x="551.04" y="536.94"/>
      <point x="549.11" y="527" type="curve"/>
      <point x="650.11" y="527" type="line"/>
      <point x="653.22" y="543.02"/>
      <point x="654.75" y="558.24"/>
      <point x="654.75" y="572.61" type="curve" smooth="yes"/>
      <point x="654.75" y="674.81"/>
      <point x="577.36" y="734"/>
      <point x="444.56" y="734" type="curve" smooth="yes"/>
      <point x="178.16" y="734"/>
      <point x="30.89" y="495.81"/>
    </contour>
  </outline>
</glyph>
<glyph name="D" format="2">
  <advance width="712"/>
  <unicode hex="0044"/>
  <anchor x="400" y="797" name="top"/>
  <anchor x="251" y="-80" name="b.commabelow"/>
  <anchor x="251" y="-80" name="bottom"/>
  <outline>
    <contour>
      <point x="40" y="0" type="line"/>
      <point x="140" y="0" type="line"/>
      <point x="280" y="722" type="line"/>
      <point x="180" y="722" type="line"/>
    </contour>
    <contour>
      <point x="104.051" y="0" type="line"/>
      <point x="263.829" y="0" type="line" smooth="yes"/>
      <point x="535.678" y="0"/>
      <point x="701.287" y="206.217"/>
      <point x="701.287" y="464.919" type="curve" smooth="yes"/>
      <point x="701.287" y="630.092"/>
      <point x="600.855" y="722"/>
      <point x="404.186" y="722" type="curve" smooth="yes"/>
      <point x="204.051" y="722" type="line"/>
      <point x="204.051" y="635" type="line"/>
      <point x="389.273" y="635" type="line" smooth="yes"/>
      <point x="526.169" y="635"/>
      <point x="597.177" y="560.938"/>
      <point x="597.177" y="438.286" type="curve" smooth="yes"/>
      <point x="597.177" y="255.052"/>
      <point x="479.414" y="87"/>
      <point x="282.742" y="87" type="curve" smooth="yes"/>
      <point x="104.051" y="87" type="line"/>
    </contour>
  </outline>
  <guideline angle="79.0262" x="40" y="0"/>
</glyph>
<glyph name="E" format="2">
  <advance width="538"/>
  <unicode hex="0045"/>
  <anchor x="380" y="797" name="top"/>
  <anchor x="20.1713" y="722" name="tonos"/>
  <anchor x="226" y="0" name="b.cedilla"/>
  <anchor x="427" y="0" name="ogonekUC"/>
  <outline>
    <contour>
      <point x="69.8287" y="0" type="line"/>
      <point x="426.829" y="0" type="line"/>
      <point x="443.742" y="87" type="line"/>
      <point x="86.7415" y="87" type="line"/>
    </contour>
    <contour>
      <point x="40" y="0" type="line"/>
      <point x="140" y="0" type="line"/>
      <point x="280" y="722" type="line"/>
      <point x="180" y="722" type="line"/>
    </contour>
    <contour>
      <point x="133.203" y="326" type="line"/>
      <point x="470.203" y="326" type="line"/>
      <point x="487.116" y="413" type="line"/>
      <point x="150.116" y="413" type="line"/>
    </contour>
    <contour>
      <point x="193.273" y="635" type="line"/>
      <point x="540.273" y="635" type="line"/>
      <point x="557.186" y="722" type="line"/>
      <point x="210.186" y="722" type="line"/>
    </contour>
  </outline>
  <guideline angle="90" x="410" y="0"/>
  <guideline angle="90" x="40" y="0"/>
  <guideline angle="90" x="261" y="0"/>
  <guideline angle="90" x="191" y="0"/>
  <guideline angle="90" x="226" y="0"/>
</glyph>
<glyph name="F" format="2">
  <advance width="528"/>
  <unicode hex="0046"/>
  <anchor x="360" y="797" name="top"/>
  <outline>
    <contour>
      <point x="40" y="0" type="line"/>
      <point x="140" y="0" type="line"/>
      <point x="280" y="722" type="line"/>
      <point x="180" y="722" type="line"/>
    </contour>
    <contour>
      <point x="133.203" y="326" type="line"/>
      <point x="470.203" y="326" type="line"/>
      <point x="487.116" y="413" type="line"/>
      <point x="150.116" y="413" type="line"/>
    </contour>
    <contour>
      <point x="183.273" y="635" type="line"/>
      <point x="530.273" y="635" type="line"/>
      <point x="547.186" y="722" type="line"/>
      <point x="200.186" y="722" type="line"/>
    </contour>
  </outline>
</glyph>
<glyph name="G" format="2">
  <advance width="683"/>
  <unicode hex="0047"/>
  <anchor x="454.584" y="797" name="top"/>
  <anchor x="285" y="-50" name="b.commabelow"/>
  <outline>
    <contour>
      <point x="30.89" y="254.9" type="curve" smooth="yes"/>
      <point x="30.89" y="94.41"/>
      <point x="116.7" y="-12"/>
      <point x="297.32" y="-12" type="curve" smooth="yes"/>
      <point x="384.32" y="-12"/>
      <point x="506.44" y="4"/>
      <point x="592.04" y="38" type="curve"/>
      <point x="659.7" y="386" type="line"/>
      <point x="394.7" y="386" type="line"/>
      <point x="377.78" y="299" type="line"/>
      <point x="541.78" y="299" type="line"/>
      <point x="503.1" y="100" type="line"/>
      <point x="442.99" y="84"/>
      <point x="374.43" y="76"/>
      <point x="314.43" y="76" type="curve" smooth="yes"/>
      <point x="188.02" y="76"/>
      <point x="133.65" y="141.54"/>
      <point x="133.65" y="257.83" type="curve" smooth="yes"/>
      <point x="133.65" y="437.67"/>
      <point x="214.32" y="646"/>
      <point x="417.989" y="646" type="curve" smooth="yes"/>
      <point x="509.324" y="646"/>
      <point x="580.027" y="604.103"/>
      <point x="579.76" y="551.298" type="curve" smooth="yes"/>
      <point x="579.742" y="547.582"/>
      <point x="579.372" y="543.813"/>
      <point x="578.63" y="540" type="curve"/>
      <point x="679.63" y="540" type="line"/>
      <point x="681.55" y="549.87"/>
      <point x="682.49" y="559.52"/>
      <point x="682.49" y="568.91" type="curve" smooth="yes"/>
      <point x="682.49" y="665.11"/>
      <point x="584.47" y="734"/>
      <point x="442.35" y="734" type="curve" smooth="yes"/>
      <point x="177.53" y="734"/>
      <point x="30.89" y="494.9"/>
    </contour>
  </outline>
  <guideline angle="90" x="371" y="0"/>
</glyph>
<glyph name="H" format="2">
  <advance width="731"/>
  <unicode hex="0048"/>
  <anchor x="459" y="797" name="top"/>
  <anchor x="32.1713" y="722" name="tonos"/>
  <anchor x="79" y="0" name="b.cedilla"/>
  <anchor x="290" y="-80" name="bottom"/>
  <outline>
    <contour>
      <point x="183.203" y="326" type="line"/>
      <point x="572.203" y="326" type="line"/>
      <point x="589.31" y="414" type="line"/>
      <point x="200.31" y="414" type="line"/>
    </contour>
    <contour>
      <point x="40.8287" y="0" type="line"/>
      <point x="140.829" y="0" type="line"/>
      <point x="281.185" y="722" type="line"/>
      <point x="181.185" y="722" type="line"/>
    </contour>
    <contour>
      <point x="489.829" y="0" type="line"/>
      <point x="589.829" y="0" type="line"/>
      <point x="730.185" y="722" type="line"/>
      <point x="630.185" y="722" type="line"/>
    </contour>
  </outline>
  <guideline angle="90" x="40" y="0"/>
  <guideline angle="90" x="520" y="0"/>
  <guideline angle="90" x="243" y="0"/>
  <guideline angle="90" x="204" y="0"/>
  <guideline angle="90" x="283" y="0"/>
  <guideline angle="259.026" x="447.648" y="722"/>
</glyph>
<glyph name="I" format="2">
  <advance width="320"/>
  <unicode hex="0049"/>
  <anchor x="252" y="797" name="top"/>
  <anchor x="105.171" y="722" name="tonos"/>
  <anchor x="150" y="0" name="ogonekUC"/>
  <anchor x="82" y="-80" name="bottom"/>
  <outline>
    <contour>
      <point x="50" y="0" type="line"/>
      <point x="150" y="0" type="line"/>
      <point x="290" y="722" type="line"/>
      <point x="190" y="722" type="line"/>
    </contour>
  </outline>
  <guideline angle="90" x="50" y="0"/>
  <guideline angle="90" x="290" y="0"/>
  <guideline angle="79.0262" x="97.5789" y="0"/>
</glyph>
<glyph name="J" format="2">
  <advance width="528"/>
  <unicode hex="004A"/>
  <anchor x="486" y="797" name="top"/>
  <outline>
    <contour>
      <point x="-9.03009" y="148.434" type="curve" smooth="yes"/>
      <point x="-9.03009" y="51.1288"/>
      <point x="58.1977" y="-14"/>
      <point x="166.107" y="-14" type="curve" smooth="yes"/>
      <point x="296.107" y="-14"/>
      <point x="402.575" y="81"/>
      <point x="428.625" y="215" type="curve" smooth="yes"/>
      <point x="527.185" y="722" type="line"/>
      <point x="427.185" y="722" type="line"/>
      <point x="328.625" y="215" type="line" smooth="yes"/>
      <point x="313.073" y="135"/>
      <point x="260.214" y="74"/>
      <point x="179.214" y="74" type="curve" smooth="yes"/>
      <point x="124.027" y="74"/>
      <point x="91.7557" y="101.968"/>
      <point x="91.7557" y="157.903" type="curve" smooth="yes"/>
      <point x="91.7557" y="168.862"/>
      <point x="92.9944" y="180.894"/>
      <point x="95.5422" y="194" type="curve"/>
      <point x="-4.45776" y="194" type="line"/>
      <point x="-7.53536" y="178.169"/>
      <point x="-9.03016" y="162.944"/>
    </contour>
  </outline>
</glyph>
<glyph name="K" format="2">
  <advance width="624"/>
  <unicode hex="004B"/>
  <anchor x="440" y="797" name="top"/>
  <anchor x="275" y="-50" name="b.commabelow"/>
  <anchor x="269" y="-80" name="bottom"/>
  <outline>
    <contour>
      <point x="40" y="0" type="line"/>
      <point x="140" y="0" type="line"/>
      <point x="280" y="722" type="line"/>
      <point x="180" y="722" type="line"/>
    </contour>
    <contour>
      <point x="211.798" y="398.988" type="line"/>
      <point x="474.829" y="0" type="line"/>
      <point x="609.829" y="0" type="line"/>
      <point x="329.675" y="435.981" type="line"/>
      <point x="320.978" y="390.054" type="line"/>
      <point x="713.185" y="722" type="line"/>
      <point x="589.185" y="722" type="line"/>
    </contour>
  </outline>
  <guideline angle="220.543" x="589" y="722"/>
  <guideline angle="303.412" x="192" y="429"/>
  <guideline angle="79.0262" x="285.792" y="0"/>
</glyph>
<glyph name="L" format="2">
  <advance width="464"/>
  <unicode hex="004C"/>
  <anchor x="160.75" y="797" name="top"/>
  <anchor x="225" y="-50" name="b.commabelow"/>
  <outline>
    <contour>
      <point x="96.7415" y="87" type="line"/>
      <point x="79.8287" y="0" type="line"/>
      <point x="436.829" y="0" type="line"/>
      <point x="453.742" y="87" type="line"/>
    </contour>
    <contour>
      <point x="50" y="0" type="line"/>
      <point x="150" y="0" type="line"/>
      <point x="290" y="722" type="line"/>
      <point x="190" y="722" type="line"/>
    </contour>
  </outline>
</glyph>
<glyph name="M" format="2">
  <advance width="882"/>
  <unicode hex="004D"/>
  <anchor x="550" y="797" name="top"/>
  <anchor x="377" y="-80" name="bottom"/>
  <outline>
    <contour>
      <point x="40.8287" y="0" type="line"/>
      <point x="140.829" y="0" type="line"/>
      <point x="281.185" y="722" type="line"/>
      <point x="181.185" y="722" type="line"/>
    </contour>
    <contour>
      <point x="640.829" y="0" type="line"/>
      <point x="740.829" y="0" type="line"/>
      <point x="881.185" y="722" type="line"/>
      <point x="781.185" y="722" type="line"/>
    </contour>
    <contour>
      <point x="348.829" y="0" type="line"/>
      <point x="428.829" y="0" type="line"/>
      <point x="841.186" y="722" type="line"/>
      <point x="748.186" y="722" type="line"/>
      <point x="408.092" y="125.937" type="line"/>
      <point x="418.484" y="125.922" type="line"/>
      <point x="315.186" y="722" type="line"/>
      <point x="220.186" y="722" type="line"/>
    </contour>
  </outline>
  <guideline angle="90" x="459" y="0"/>
</glyph>
<glyph name="N" format="2">
  <advance width="745"/>
  <unicode hex="004E"/>
  <anchor x="480" y="797" name="top"/>
  <anchor x="275" y="-50" name="b.commabelow"/>
  <anchor x="309" y="-80" name="bottom"/>
  <outline>
    <contour>
      <point x="210.915" y="722" type="line"/>
      <point x="460.829" y="0" type="line"/>
      <point x="573.643" y="0" type="line"/>
      <point x="323.186" y="722" type="line"/>
    </contour>
    <contour>
      <point x="40.8287" y="0" type="line"/>
      <point x="140.829" y="0" type="line"/>
      <point x="281.186" y="722" type="line"/>
      <point x="181.186" y="722" type="line"/>
    </contour>
    <contour>
      <point x="503.829" y="0" type="line"/>
      <point x="603.829" y="0" type="line"/>
      <point x="744.186" y="722" type="line"/>
      <point x="644.186" y="722" type="line"/>
    </contour>
  </outline>
  <guideline angle="298.468" x="253" y="722"/>
  <guideline angle="118.393" x="531" y="0"/>
  <guideline angle="259.026" x="464.139" y="722"/>
</glyph>
<glyph name="O" format="2">
  <advance width="719"/>
  <unicode hex="004F"/>
  <anchor x="462" y="797" name="top"/>
  <anchor x="134.005" y="722" name="tonos"/>
  <anchor x="270" y="0" name="b.cedilla"/>
  <anchor x="320" y="0" name="ogonekUC"/>
  <anchor x="292" y="-80" name="bottom"/>
  <outline>
    <contour>
      <point x="30.9" y="254.9" type="curve" smooth="yes"/>
      <point x="30.9" y="84.6267"/>
      <point x="126.366" y="-12"/>
      <point x="294.593" y="-12" type="curve" smooth="yes"/>
      <point x="531.815" y="-12"/>
      <point x="708.77" y="192.689"/>
      <point x="708.77" y="467.09" type="curve" smooth="yes"/>
      <point x="708.77" y="637.422"/>
      <point x="613.245" y="734"/>
      <point x="444.771" y="734" type="curve" smooth="yes"/>
      <point x="207.41" y="734"/>
      <point x="30.9" y="529.67"/>
    </contour>
    <contour>
      <point x="133.65" y="257.83" type="curve" smooth="yes"/>
      <point x="133.909" y="489.898"/>
      <point x="253.161" y="646"/>
      <point x="430.185" y="646" type="curve" smooth="yes"/>
      <point x="547.149" y="646"/>
      <point x="606.033" y="585.105"/>
      <point x="606.02" y="464.16" type="curve" smooth="yes"/>
      <point x="605.994" y="232.473"/>
      <point x="486.41" y="76"/>
      <point x="309.369" y="76" type="curve" smooth="yes"/>
      <point x="192.439" y="76"/>
      <point x="133.515" y="136.973"/>
    </contour>
  </outline>
  <guideline angle="90" x="73" y="0"/>
  <guideline angle="90" x="93" y="0"/>
  <guideline angle="0" x="0" y="704"/>
</glyph>
<glyph name="P" format="2">
  <advance width="610"/>
  <unicode hex="0050"/>
  <anchor x="370.75" y="797" name="top"/>
  <outline>
    <contour>
      <point x="185.315" y="306" type="line"/>
      <point x="304.315" y="306" type="line" smooth="yes"/>
      <point x="517.971" y="306"/>
      <point x="629.5" y="396.08"/>
      <point x="629.5" y="568.649" type="curve" smooth="yes"/>
      <point x="629.5" y="674.352"/>
      <point x="553.588" y="722"/>
      <point x="385.185" y="722" type="curve" smooth="yes"/>
      <point x="181.185" y="722" type="line"/>
      <point x="178.649" y="708.95" type="line"/>
      <point x="249.273" y="635" type="line"/>
      <point x="371.273" y="635" type="line" smooth="yes"/>
      <point x="482.582" y="635"/>
      <point x="529.86" y="607.984"/>
      <point x="529.86" y="544.378" type="curve" smooth="yes"/>
      <point x="529.86" y="441.844"/>
      <point x="464.498" y="394"/>
      <point x="324.422" y="394" type="curve" smooth="yes"/>
      <point x="202.422" y="394" type="line"/>
    </contour>
    <contour>
      <point x="40.8287" y="0" type="line"/>
      <point x="140.829" y="0" type="line"/>
      <point x="267.189" y="650" type="line"/>
      <point x="198.427" y="722" type="line"/>
      <point x="181.186" y="722" type="line"/>
    </contour>
  </outline>
</glyph>
<glyph name="Q" format="2">
  <advance width="719"/>
  <unicode hex="0051"/>
  <anchor x="451.584" y="797" name="top"/>
  <outline>
    <component base="O"/>
    <contour>
      <point x="353.734" y="-8.4" type="line"/>
      <point x="361.006" y="-7" type="line" smooth="yes"/>
      <point x="385.98" y="-2.1922"/>
      <point x="477.662" y="0"/>
      <point x="497.662" y="0" type="curve" smooth="yes"/>
      <point x="676.662" y="0" type="line"/>
      <point x="693.768" y="88" type="line"/>
      <point x="646.811" y="88"/>
      <point x="538.142" y="77.2674"/>
      <point x="522.909" y="70.1269" type="curve"/>
    </contour>
  </outline>
</glyph>
<glyph name="R" format="2">
  <advance width="627"/>
  <unicode hex="0052"/>
  <anchor x="422" y="797" name="top"/>
  <anchor x="275" y="-50" name="b.commabelow"/>
  <outline>
    <contour>
      <point x="198.592" y="328" type="line"/>
      <point x="333.592" y="328" type="line" smooth="yes"/>
      <point x="434.592" y="328"/>
      <point x="457" y="292.595"/>
      <point x="457" y="173" type="curve" smooth="yes"/>
      <point x="457" y="143" type="line" smooth="yes"/>
      <point x="457" y="80.2504"/>
      <point x="456.633" y="35"/>
      <point x="459.829" y="0" type="curve"/>
      <point x="559.829" y="0" type="line"/>
      <point x="556.827" y="36"/>
      <point x="554.293" y="97.8761"/>
      <point x="554.293" y="155" type="curve" smooth="yes"/>
      <point x="554.293" y="215" type="line" smooth="yes"/>
      <point x="554.293" y="326.944"/>
      <point x="536.323" y="361.835"/>
      <point x="473.951" y="371" type="curve"/>
      <point x="473.174" y="367" type="line"/>
      <point x="578.214" y="399.164"/>
      <point x="646.607" y="467.622"/>
      <point x="646.607" y="572.021" type="curve" smooth="yes"/>
      <point x="646.607" y="678.497"/>
      <point x="575.466" y="722"/>
      <point x="419.186" y="722" type="curve" smooth="yes"/>
      <point x="190.186" y="722" type="line"/>
      <point x="173.078" y="634" type="line"/>
      <point x="399.078" y="634" type="line" smooth="yes"/>
      <point x="497.691" y="634"/>
      <point x="542.53" y="608.107"/>
      <point x="542.53" y="551.003" type="curve" smooth="yes"/>
      <point x="542.53" y="441.52"/>
      <point x="450.424" y="414"/>
      <point x="356.31" y="414" type="curve" smooth="yes"/>
      <point x="215.31" y="414" type="line"/>
    </contour>
    <contour>
      <point x="40" y="0" type="line"/>
      <point x="140" y="0" type="line"/>
      <point x="280" y="722" type="line"/>
      <point x="180" y="722" type="line"/>
    </contour>
  </outline>
  <guideline angle="0" x="0" y="328"/>
</glyph>
<glyph name="S" format="2">
  <advance width="667"/>
  <unicode hex="0053"/>
  <anchor x="414" y="797" name="top"/>
  <anchor x="298" y="0" name="b.cedilla"/>
  <anchor x="275" y="-50" name="b.commabelow"/>
  <anchor x="342" y="-80" name="bottom"/>
  <outline>
    <contour>
      <point x="40.3042" y="167.536" type="curve" smooth="yes"/>
      <point x="40.3042" y="55.4599"/>
      <point x="127.6" y="-15"/>
      <point x="266.455" y="-15" type="curve" smooth="yes"/>
      <point x="468.571" y="-15"/>
      <point x="589.946" y="84.3021"/>
      <point x="589.946" y="249.662" type="curve" smooth="yes"/>
      <point x="589.946" y="336.161"/>
      <point x="533.096" y="378.99"/>
      <point x="374.464" y="412" type="curve" smooth="yes"/>
      <point x="291.631" y="429.237"/>
      <point x="215.062" y="444.827"/>
      <point x="215.062" y="517.009" type="curve" smooth="yes"/>
      <point x="215.062" y="598.109"/>
      <point x="278.092" y="649"/>
      <point x="378.536" y="649" type="curve" smooth="yes"/>
      <point x="480.625" y="649"/>
      <point x="525.224" y="624.151"/>
      <point x="525.224" y="567.271" type="curve" smooth="yes"/>
      <point x="525.224" y="558.948"/>
      <point x="524.267" y="549.877"/>
      <point x="522.347" y="540" type="curve"/>
      <point x="622.347" y="540" type="line"/>
      <point x="625.258" y="554.977"/>
      <point x="626.716" y="569.236"/>
      <point x="626.716" y="582.733" type="curve" smooth="yes"/>
      <point x="626.716" y="682.354"/>
      <point x="547.344" y="737"/>
      <point x="402.644" y="737" type="curve" smooth="yes"/>
      <point x="233" y="737"/>
      <point x="111.818" y="634.049"/>
      <point x="111.818" y="489.926" type="curve" smooth="yes"/>
      <point x="111.818" y="405.228"/>
      <point x="169.646" y="361.437"/>
      <point x="320.909" y="331.59" type="curve" smooth="yes"/>
      <point x="442.066" y="307.683"/>
      <point x="487.21" y="277.865"/>
      <point x="487.21" y="221.747" type="curve" smooth="yes"/>
      <point x="487.21" y="130.522"/>
      <point x="411.552" y="73"/>
      <point x="291.563" y="73" type="curve" smooth="yes"/>
      <point x="207.234" y="73"/>
      <point x="142.83" y="124.616"/>
      <point x="142.83" y="192.2" type="curve" smooth="yes"/>
      <point x="142.83" y="199.376"/>
      <point x="143.545" y="206.657"/>
      <point x="144.973" y="214" type="curve"/>
      <point x="44.9729" y="214" type="line"/>
      <point x="41.8642" y="198.009"/>
      <point x="40.3046" y="182.486"/>
    </contour>
  </outline>
  <guideline angle="346.485" x="64" y="448.094"/>
</glyph>
<glyph name="T" format="2">
  <advance width="513"/>
  <unicode hex="0054"/>
  <anchor x="296" y="797" name="top"/>
  <anchor x="131" y="0" name="b.cedilla"/>
  <anchor x="106" y="-50" name="b.commabelow"/>
  <anchor x="134" y="-80" name="bottom"/>
  <outline>
    <contour>
      <point x="92.8287" y="0" type="line"/>
      <point x="192.829" y="0" type="line"/>
      <point x="316.273" y="635" type="line"/>
      <point x="535.273" y="635" type="line"/>
      <point x="552.186" y="722" type="line"/>
      <point x="-2.8145" y="722" type="line"/>
      <point x="-19.7273" y="635" type="line"/>
      <point x="216.273" y="635" type="line"/>
    </contour>
  </outline>
  <guideline angle="90" x="237" y="0"/>
</glyph>
<glyph name="U" format="2">
  <advance width="710"/>
  <unicode hex="0055"/>
  <anchor x="435" y="797" name="top"/>
  <anchor x="270" y="-80" name="bottom"/>
  <anchor x="436" y="797" name="t.ring"/>
  <outline>
    <contour>
      <point x="40.7941" y="191.545" type="curve" smooth="yes"/>
      <point x="40.7941" y="53.5524"/>
      <point x="108.054" y="-14"/>
      <point x="278.107" y="-14" type="curve" smooth="yes"/>
      <point x="496.107" y="-14"/>
      <point x="583.992" y="78"/>
      <point x="631.426" y="322" type="curve" smooth="yes"/>
      <point x="709.186" y="722" type="line"/>
      <point x="609.186" y="722" type="line"/>
      <point x="531.426" y="322" type="line" smooth="yes"/>
      <point x="502.071" y="171"/>
      <point x="442.214" y="74"/>
      <point x="294.214" y="74" type="curve" smooth="yes"/>
      <point x="182.603" y="74"/>
      <point x="143.528" y="126.743"/>
      <point x="143.528" y="217.94" type="curve" smooth="yes"/>
      <point x="143.528" y="248.49"/>
      <point x="147.913" y="283.356"/>
      <point x="155.426" y="322" type="curve" smooth="yes"/>
      <point x="233.186" y="722" type="line"/>
      <point x="133.186" y="722" type="line"/>
      <point x="55.4255" y="322" type="line" smooth="yes"/>
      <point x="45.9205" y="273.106"/>
      <point x="40.7941" y="229.641"/>
    </contour>
  </outline>
  <guideline angle="90" x="351" y="0"/>
</glyph>
<glyph name="V" format="2">
  <advance width="685"/>
  <unicode hex="0056"/>
  <anchor x="366.75" y="797" name="top"/>
  <outline>
    <contour>
      <point x="664.185" y="722" type="line"/>
      <point x="551.185" y="722" type="line"/>
      <point x="231.066" y="118.625" type="line"/>
      <point x="238.713" y="118.625" type="line"/>
      <point x="153.185" y="722" type="line"/>
      <point x="40.1855" y="722" type="line"/>
      <point x="156.829" y="0" type="line"/>
      <point x="266.829" y="0" type="line"/>
    </contour>
  </outline>
  <guideline angle="90" x="282" y="0"/>
  <guideline angle="109.593" x="227" y="0"/>
  <guideline angle="250.407" x="594" y="722"/>
  <guideline angle="71.3942" x="278" y="119"/>
  <guideline angle="288.606" x="83" y="722"/>
</glyph>
<glyph name="W" format="2">
  <advance width="1003"/>
  <unicode hex="0057"/>
  <anchor x="525.75" y="797" name="top"/>
  <outline>
    <contour>
      <point x="982.185" y="722" type="line"/>
      <point x="876.185" y="722" type="line"/>
      <point x="606.634" y="138.407" type="line"/>
      <point x="612.816" y="138.402" type="line"/>
      <point x="571.185" y="722" type="line"/>
      <point x="451.185" y="722" type="line"/>
      <point x="182.652" y="138.403" type="line"/>
      <point x="188.836" y="138.408" type="line"/>
      <point x="146.185" y="722" type="line"/>
      <point x="40.1855" y="722" type="line"/>
      <point x="113.829" y="0" type="line"/>
      <point x="203.829" y="0" type="line"/>
      <point x="493.313" y="613.563" type="line"/>
      <point x="486.898" y="613.563" type="line"/>
      <point x="537.829" y="0" type="line"/>
      <point x="627.829" y="0" type="line"/>
    </contour>
  </outline>
  <guideline angle="106.51" x="184" y="0"/>
  <guideline angle="284.975" x="76" y="722"/>
  <guideline angle="75.1185" x="229" y="150"/>
  <guideline angle="254.496" x="441" y="602"/>
  <guideline angle="105.504" x="608" y="0"/>
  <guideline angle="284.882" x="501" y="722"/>
  <guideline angle="75.025" x="653" y="150"/>
  <guideline angle="253.49" x="912" y="722"/>
  <guideline angle="105.476" x="608" y="0"/>
  <guideline angle="75.0442" x="650" y="138"/>
  <guideline angle="90" x="441" y="0"/>
</glyph>
<glyph name="X" format="2">
  <advance width="691"/>
  <unicode hex="0058"/>
  <anchor x="432.75" y="797" name="top"/>
  <outline>
    <contour>
      <point x="476.829" y="0" type="line"/>
      <point x="604.829" y="0" type="line"/>
      <point x="253.186" y="722" type="line"/>
      <point x="125.186" y="722" type="line"/>
    </contour>
    <contour>
      <point x="301.579" y="397.356" type="line"/>
      <point x="-49.1713" y="0" type="line"/>
      <point x="68.8287" y="0" type="line"/>
      <point x="342.438" y="326.615" type="line"/>
    </contour>
    <contour>
      <point x="402.787" y="372.628" type="line"/>
      <point x="710.186" y="722" type="line"/>
      <point x="592.186" y="722" type="line"/>
      <point x="363.03" y="443.296" type="line"/>
    </contour>
  </outline>
  <guideline angle="90" x="348" y="0"/>
  <guideline angle="0" x="0" y="353"/>
</glyph>
<glyph name="Y" format="2">
  <advance width="697"/>
  <unicode hex="0059"/>
  <anchor x="372.75" y="797" name="top"/>
  <outline>
    <contour>
      <point x="676.185" y="722" type="line"/>
      <point x="562.185" y="722" type="line"/>
      <point x="290.536" y="375" type="line"/>
      <point x="163.186" y="722" type="line"/>
      <point x="40.1855" y="722" type="line"/>
      <point x="257.722" y="205.692" type="line"/>
    </contour>
    <contour>
      <point x="225.538" y="302" type="line"/>
      <point x="166.829" y="0" type="line"/>
      <point x="266.829" y="0" type="line"/>
      <point x="325.538" y="302" type="line"/>
    </contour>
  </outline>
  <guideline angle="90" x="288" y="0"/>
  <guideline angle="301.645" x="-30" y="722"/>
  <guideline angle="58.3553" x="288" y="206"/>
</glyph>
<glyph name="Z" format="2">
  <advance width="638"/>
  <unicode hex="005A"/>
  <anchor x="388.75" y="797" name="top"/>
  <anchor x="320" y="0" name="b.cedilla"/>
  <outline>
    <contour>
      <point x="496.829" y="0" type="line"/>
      <point x="513.742" y="87" type="line"/>
      <point x="97.7415" y="87" type="line"/>
      <point x="605.802" y="612" type="line"/>
      <point x="627.186" y="722" type="line"/>
      <point x="131.186" y="722" type="line"/>
      <point x="114.273" y="635" type="line"/>
      <point x="500.273" y="635" type="line"/>
      <point x="-7.7873" y="110" type="line"/>
      <point x="-29.1713" y="0" type="line"/>
    </contour>
  </outline>
  <guideline angle="232.284" x="557" y="612"/>
  <guideline angle="52.284" x="41" y="110"/>
  <guideline angle="90" x="304" y="0"/>
</glyph>
<glyph name="bracketleft" format="2">
  <advance width="396"/>
  <unicode hex="005B"/>
  <outline>
    <contour>
      <point x="183.341" y="-198" type="line"/>
      <point x="193.255" y="-147" type="line"/>
      <point x="93.2548" y="-147" type="line"/>
      <point x="252.258" y="671" type="line"/>
      <point x="352.258" y="671" type="line"/>
      <point x="362.171" y="722" type="line"/>
      <point x="176.171" y="722" type="line"/>
      <point x="-2.65859" y="-198" type="line"/>
    </contour>
  </outline>
</glyph>
<glyph name="backslash" format="2">
  <advance width="113"/>
  <unicode hex="005C"/>
  <outline>
    <contour>
      <point x="-59.468" y="736" type="line"/>
      <point x="23.3603" y="-52" type="line"/>
      <point x="92.3603" y="-52" type="line"/>
      <point x="9.53196" y="736" type="line"/>
    </contour>
  </outline>
</glyph>
<glyph name="asciicircum" format="2">
  <advance width="539"/>
  <unicode hex="005E"/>
  <outline>
    <contour>
      <point x="-59.3421" y="10" type="line"/>
      <point x="30.6579" y="10" type="line"/>
      <point x="333.846" y="546" type="line"/>
      <point x="428.658" y="10" type="line"/>
      <point x="518.239" y="10" type="line"/>
      <point x="412.314" y="610" type="line"/>
      <point x="280.729" y="610" type="line"/>
    </contour>
  </outline>
  <guideline angle="90" x="287" y="0"/>
  <guideline angle="249.632" x="287" y="546"/>
  <guideline angle="110.368" x="486" y="10"/>
  <guideline angle="110.368" x="486" y="10"/>
  <guideline angle="249.632" x="287" y="546"/>
  <guideline angle="110.368" x="576" y="10"/>
  <guideline angle="249.632" x="197" y="546"/>
  <guideline angle="249.632" x="287" y="546"/>
  <guideline angle="110.368" x="486" y="10"/>
</glyph>
<glyph name="underscore" format="2">
  <advance width="500"/>
  <unicode hex="005F"/>
  <outline>
    <contour>
      <point x="479.396" y="-142" type="line"/>
      <point x="493.002" y="-72" type="line"/>
      <point x="-6.99769" y="-72" type="line"/>
      <point x="-20.6043" y="-142" type="line"/>
    </contour>
  </outline>
</glyph>
<glyph name="grave" format="2">
  <advance width="220"/>
  <unicode hex="0060"/>
  <outline>
    <contour>
      <point x="139" y="580" type="line"/>
      <point x="200" y="580" type="line"/>
      <point x="120" y="760" type="line"/>
      <point x="20" y="760" type="line"/>
    </contour>
  </outline>
</glyph>
<glyph name="a" format="2">
  <advance width="522"/>
  <unicode hex="0061"/>
  <anchor x="315.882" y="580" name="top"/>
  <anchor x="354.085" y="10" name="ogonekLC"/>
  <anchor x="193.422" y="-50" name="bottom"/>
  <outline>
    <contour>
      <point x="4.16999" y="109.136" type="curve" smooth="yes"/>
      <point x="4.16999" y="33.4521"/>
      <point x="63.7952" y="-14"/>
      <point x="164.673" y="-14" type="curve" smooth="yes"/>
      <point x="234.157" y="-14"/>
      <point x="276.193" y="8.97308"/>
      <point x="352.548" y="86.0947" type="curve"/>
      <point x="342.289" y="103.863" type="line"/>
      <point x="338.959" y="79.2247"/>
      <point x="336.676" y="55.1556"/>
      <point x="336.608" y="30.2478" type="curve" smooth="yes"/>
      <point x="336.582" y="20.3932"/>
      <point x="336.902" y="10.4073"/>
      <point x="337.641" y="0.202897" type="curve"/>
      <point x="426.141" y="0.202897" type="line"/>
      <point x="424.966" y="6.85365"/>
      <point x="424.225" y="15.9663"/>
      <point x="424.222" y="27.7462" type="curve" smooth="yes"/>
      <point x="424.214" y="59.0916"/>
      <point x="429.435" y="109.323"/>
      <point x="445.632" y="182.31" type="curve" smooth="yes"/>
      <point x="479.181" y="334.618" type="line" smooth="yes"/>
      <point x="483.699" y="354.786"/>
      <point x="485.95" y="373.079"/>
      <point x="485.95" y="389.569" type="curve" smooth="yes"/>
      <point x="485.95" y="474.697"/>
      <point x="427.238" y="513"/>
      <point x="311.931" y="513" type="curve" smooth="yes"/>
      <point x="177.75" y="513"/>
      <point x="97.9374" y="461.173"/>
      <point x="79.0974" y="365.162" type="curve"/>
      <point x="173.097" y="365.162" type="line"/>
      <point x="182.623" y="413.441"/>
      <point x="230.602" y="443"/>
      <point x="296.907" y="443" type="curve" smooth="yes"/>
      <point x="357.748" y="443"/>
      <point x="390.331" y="417.924"/>
      <point x="390.331" y="372.239" type="curve" smooth="yes"/>
      <point x="390.331" y="365.12"/>
      <point x="389.54" y="357.5"/>
      <point x="387.941" y="349.397" type="curve" smooth="yes"/>
      <point x="359.753" y="204.19" type="line" smooth="yes"/>
      <point x="340.507" y="105.728"/>
      <point x="282.566" y="56"/>
      <point x="185.119" y="56" type="curve" smooth="yes"/>
      <point x="134.175" y="56"/>
      <point x="100.348" y="85.9135"/>
      <point x="100.348" y="131.631" type="curve" smooth="yes"/>
      <point x="100.348" y="225.479"/>
      <point x="242.888" y="239"/>
      <point x="316.129" y="239" type="curve" smooth="yes"/>
      <point x="345.909" y="239"/>
      <point x="354.907" y="236.765"/>
      <point x="404.008" y="232.294" type="curve"/>
      <point x="398.346" y="301.379" type="line"/>
      <point x="386.881" y="303.988"/>
      <point x="344.348" y="309"/>
      <point x="315.225" y="309" type="curve" smooth="yes"/>
      <point x="186.338" y="309"/>
      <point x="4.16987" y="269.834"/>
    </contour>
  </outline>
  <guideline angle="90" x="253" y="0"/>
</glyph>
<glyph name="b" format="2">
  <advance width="585"/>
  <unicode hex="0062"/>
  <anchor x="377.391" y="754" name="top"/>
  <anchor x="228.723" y="-88" name="bottom"/>
  <outline>
    <contour>
      <point x="10.8287" y="-0.3881" type="line"/>
      <point x="97.8287" y="-0.3881" type="line"/>
      <point x="117.463" y="99.2344" type="line"/>
      <point x="105.033" y="99.5143" type="line"/>
      <point x="161.873" y="388.798" type="line"/>
      <point x="173.45" y="388.671" type="line"/>
      <point x="238.185" y="722" type="line"/>
      <point x="151.185" y="722" type="line"/>
    </contour>
    <contour>
      <point x="99.9036" y="109.117" type="line"/>
      <point x="126.794" y="26.8856"/>
      <point x="179.536" y="-13"/>
      <point x="263.263" y="-13" type="curve" smooth="yes"/>
      <point x="436.534" y="-13"/>
      <point x="554.313" y="161.623"/>
      <point x="554.313" y="327.673" type="curve" smooth="yes"/>
      <point x="554.313" y="442.776"/>
      <point x="478.19" y="513"/>
      <point x="361.556" y="513" type="curve" smooth="yes"/>
      <point x="278.245" y="513"/>
      <point x="202.986" y="476.532"/>
      <point x="157.789" y="406.326" type="curve"/>
    </contour>
    <contour>
      <point x="335.086" y="455" type="curve" smooth="yes"/>
      <point x="408.661" y="455"/>
      <point x="456.772" y="403.971"/>
      <point x="456.772" y="310.028" type="curve" smooth="yes"/>
      <point x="456.772" y="199.903"/>
      <point x="390.659" y="52"/>
      <point x="256.304" y="52" type="curve" smooth="yes"/>
      <point x="187.104" y="52"/>
      <point x="142.952" y="114.053"/>
      <point x="142.952" y="202.909" type="curve" smooth="yes"/>
      <point x="142.952" y="313.922"/>
      <point x="212.751" y="455"/>
    </contour>
  </outline>
</glyph>
<glyph name="c" format="2">
  <advance width="515"/>
  <unicode hex="0063"/>
  <anchor x="317.979" y="580" name="top"/>
  <anchor x="208" y="0" name="b.cedilla"/>
  <outline>
    <contour>
      <point x="30.0364" y="174.429" type="curve" smooth="yes"/>
      <point x="30.0364" y="333.474"/>
      <point x="134.705" y="512"/>
      <point x="321.991" y="512" type="curve" smooth="yes"/>
      <point x="420.517" y="512"/>
      <point x="484.344" y="462.593"/>
      <point x="484.344" y="370.201" type="curve" smooth="yes"/>
      <point x="484.344" y="359.636"/>
      <point x="483.509" y="356.363"/>
      <point x="481.529" y="341" type="curve"/>
      <point x="386.529" y="341" type="line"/>
      <point x="387.815" y="349.659"/>
      <point x="387.573" y="354.618"/>
      <point x="387.579" y="359.495" type="curve" smooth="yes"/>
      <point x="387.641" y="410.741"/>
      <point x="360.293" y="447"/>
      <point x="301.631" y="447" type="curve" smooth="yes"/>
      <point x="173.502" y="447"/>
      <point x="125.6" y="274.024"/>
      <point x="125.6" y="173.966" type="curve" smooth="yes"/>
      <point x="125.6" y="91.4334"/>
      <point x="158.191" y="52"/>
      <point x="222.347" y="52" type="curve" smooth="yes"/>
      <point x="290.347" y="52"/>
      <point x="343.095" y="97"/>
      <point x="357.092" y="169" type="curve"/>
      <point x="452.092" y="169" type="line"/>
      <point x="424.903" y="60"/>
      <point x="328.906" y="-12"/>
      <point x="207.906" y="-12" type="curve" smooth="yes"/>
      <point x="93.1445" y="-12"/>
      <point x="30.0364" y="50.9324"/>
    </contour>
  </outline>
</glyph>
<glyph name="d" format="2">
  <advance width="579"/>
  <unicode hex="0064"/>
  <anchor x="381.225" y="748" name="top"/>
  <anchor x="669.171" y="722" name="caron_TR"/>
  <anchor x="202" y="-50" name="b.commabelow"/>
  <outline>
    <contour>
      <point x="30.8863" y="187.86" type="curve" smooth="yes"/>
      <point x="30.8863" y="70.1965"/>
      <point x="92.5996" y="-13"/>
      <point x="216.095" y="-13" type="curve" smooth="yes"/>
      <point x="285.776" y="-13"/>
      <point x="371.603" y="43.9257"/>
      <point x="391.648" y="71.8029" type="curve"/>
      <point x="458.212" y="414.684" type="line"/>
      <point x="435.149" y="467.981"/>
      <point x="399.5" y="513"/>
      <point x="311.224" y="513" type="curve" smooth="yes"/>
      <point x="139.975" y="513"/>
      <point x="30.8863" y="344.116"/>
    </contour>
    <contour>
      <point x="120.886" y="202.002" type="curve" smooth="yes"/>
      <point x="120.886" y="306.804"/>
      <point x="185.962" y="449"/>
      <point x="311.511" y="449" type="curve" smooth="yes"/>
      <point x="394.227" y="449"/>
      <point x="423.176" y="387.28"/>
      <point x="423.176" y="310.468" type="curve" smooth="yes"/>
      <point x="423.176" y="205.908"/>
      <point x="369.534" y="57"/>
      <point x="242.314" y="57" type="curve" smooth="yes"/>
      <point x="158.171" y="57"/>
      <point x="120.886" y="122.674"/>
    </contour>
    <contour>
      <point x="368.622" y="0.3824" type="line"/>
      <point x="458.622" y="0.3824" type="line"/>
      <point x="598.979" y="722" type="line"/>
      <point x="508.979" y="722" type="line"/>
    </contour>
  </outline>
</glyph>
<glyph name="e" format="2">
  <advance width="537"/>
  <unicode hex="0065"/>
  <anchor x="330.979" y="580" name="top"/>
  <anchor x="200.939" y="-89" name="bottom"/>
  <anchor x="223" y="0" name="b.cedilla"/>
  <outline>
    <contour>
      <point x="30.8536" y="172.825" type="curve" smooth="yes"/>
      <point x="30.8537" y="345.482"/>
      <point x="132.063" y="512"/>
      <point x="321.772" y="512" type="curve" smooth="yes"/>
      <point x="442.839" y="512"/>
      <point x="506.348" y="448.207"/>
      <point x="506.348" y="343.075" type="curve" smooth="yes"/>
      <point x="506.348" y="324.029"/>
      <point x="504.264" y="303.626"/>
      <point x="500.06" y="282" type="curve" smooth="yes"/>
      <point x="491.117" y="236" type="line"/>
      <point x="115.117" y="236" type="line"/>
      <point x="127.753" y="301" type="line"/>
      <point x="409.753" y="301" type="line"/>
      <point x="412.194" y="313.554"/>
      <point x="413.761" y="327.247"/>
      <point x="413.761" y="341.051" type="curve" smooth="yes"/>
      <point x="413.761" y="393.224"/>
      <point x="391.375" y="447"/>
      <point x="309.135" y="447" type="curve" smooth="yes"/>
      <point x="231.135" y="447"/>
      <point x="161.804" y="399"/>
      <point x="142.753" y="301" type="curve" smooth="yes"/>
      <point x="130.117" y="236" type="line" smooth="yes"/>
      <point x="126.555" y="217.674"/>
      <point x="124.757" y="199.961"/>
      <point x="124.757" y="183.233" type="curve" smooth="yes"/>
      <point x="124.757" y="106.855"/>
      <point x="162.221" y="51"/>
      <point x="240.153" y="51" type="curve" smooth="yes"/>
      <point x="311.153" y="51"/>
      <point x="363.29" y="98"/>
      <point x="381.343" y="160" type="curve"/>
      <point x="477.343" y="160" type="line"/>
      <point x="436.931" y="55"/>
      <point x="346.517" y="-14"/>
      <point x="219.517" y="-14" type="curve" smooth="yes"/>
      <point x="86.2045" y="-14"/>
      <point x="30.8536" y="63.5934"/>
    </contour>
  </outline>
  <guideline angle="90" x="268" y="0"/>
</glyph>
<glyph name="f" format="2">
  <advance width="305"/>
  <unicode hex="0066"/>
  <anchor x="280.003" y="757" name="top"/>
  <anchor x="99.2783" y="-75" name="bottom"/>
  <outline>
    <contour>
      <point x="164.637" y="575" type="curve" smooth="yes"/>
      <point x="52.8568" y="0" type="line"/>
      <point x="142.857" y="0" type="line"/>
      <point x="254.248" y="573" type="line" smooth="yes"/>
      <point x="265.718" y="632"/>
      <point x="290.161" y="660"/>
      <point x="347.668" y="660" type="curve" smooth="yes"/>
      <point x="365.735" y="660"/>
      <point x="385.66" y="657.236"/>
      <point x="399.828" y="648" type="curve"/>
      <point x="414.214" y="722" type="line"/>
      <point x="395.574" y="729"/>
      <point x="369.411" y="732"/>
      <point x="342.234" y="732" type="curve" smooth="yes"/>
      <point x="238.158" y="732"/>
      <point x="186.604" y="688"/>
    </contour>
    <contour>
      <point x="165.057" y="500" type="line"/>
      <point x="50.0568" y="500" type="line"/>
      <point x="37.4208" y="435" type="line"/>
      <point x="152.421" y="435" type="line"/>
    </contour>
    <contour>
      <point x="339.906" y="500" type="line"/>
      <point x="224.906" y="500" type="line"/>
      <point x="212.27" y="435" type="line"/>
      <point x="327.27" y="435" type="line"/>
    </contour>
  </outline>
</glyph>
<glyph name="g" format="2">
  <advance width="605"/>
  <unicode hex="0067"/>
  <anchor x="339" y="580" name="t.cedilla"/>
  <anchor x="333.882" y="580" name="top"/>
  <outline>
    <contour>
      <point x="38.0348" y="194.389" type="curve" smooth="yes"/>
      <point x="38.0348" y="84.9515"/>
      <point x="91.7783" y="14"/>
      <point x="212.863" y="14" type="curve" smooth="yes"/>
      <point x="300.863" y="14"/>
      <point x="353.056" y="51"/>
      <point x="395.609" y="95" type="curve"/>
      <point x="381.224" y="21" type="line" smooth="yes"/>
      <point x="363.339" y="-71"/>
      <point x="297.092" y="-134"/>
      <point x="209.092" y="-134" type="curve" smooth="yes"/>
      <point x="153.579" y="-134"/>
      <point x="106.26" y="-108.346"/>
      <point x="105.757" y="-57.7561" type="curve" smooth="yes"/>
      <point x="105.698" y="-51.8442"/>
      <point x="106.278" y="-45.5918"/>
      <point x="107.56" y="-39" type="curve"/>
      <point x="13.5598" y="-39" type="line"/>
      <point x="11.6539" y="-48.8038"/>
      <point x="10.7434" y="-58.1919"/>
      <point x="10.7434" y="-67.1537" type="curve" smooth="yes"/>
      <point x="10.7434" y="-151.431"/>
      <point x="91.2618" y="-198"/>
      <point x="181.65" y="-198" type="curve" smooth="yes"/>
      <point x="331.65" y="-198"/>
      <point x="445.563" y="-111"/>
      <point x="472.779" y="29" type="curve" smooth="yes"/>
      <point x="564.341" y="500" type="line"/>
      <point x="474.341" y="500" type="line"/>
      <point x="463.455" y="444" type="line"/>
      <point x="433.425" y="485"/>
      <point x="383.869" y="513"/>
      <point x="313.869" y="513" type="curve" smooth="yes"/>
      <point x="142.993" y="513"/>
      <point x="38.0347" y="347.325"/>
    </contour>
    <contour>
      <point x="239.994" y="78" type="curve" smooth="yes"/>
      <point x="163.66" y="78"/>
      <point x="133.584" y="129.994"/>
      <point x="133.584" y="210.768" type="curve" smooth="yes"/>
      <point x="133.584" y="315.259"/>
      <point x="183.915" y="448"/>
      <point x="317.804" y="448" type="curve" smooth="yes"/>
      <point x="395.505" y="448"/>
      <point x="434.872" y="403.293"/>
      <point x="434.872" y="322.363" type="curve" smooth="yes"/>
      <point x="434.872" y="213.013"/>
      <point x="363.002" y="78"/>
    </contour>
  </outline>
</glyph>
<glyph name="h" format="2">
  <advance width="555"/>
  <unicode hex="0068"/>
  <anchor x="175.25" y="-75" name="bottom"/>
  <anchor x="360" y="797" name="top"/>
  <anchor x="44" y="0" name="b.cedilla"/>
  <outline>
    <contour>
      <point x="142.534" y="322.561" type="line"/>
      <point x="162.62" y="323" type="line"/>
      <point x="176.811" y="396"/>
      <point x="244.892" y="453"/>
      <point x="319.892" y="453" type="curve" smooth="yes"/>
      <point x="388.429" y="453"/>
      <point x="420.848" y="424.394"/>
      <point x="420.848" y="361.939" type="curve" smooth="yes"/>
      <point x="420.848" y="346.936"/>
      <point x="418.977" y="329.981"/>
      <point x="415.287" y="311" type="curve" smooth="yes"/>
      <point x="354.829" y="0" type="line"/>
      <point x="444.829" y="0" type="line"/>
      <point x="508.786" y="329" type="line" smooth="yes"/>
      <point x="512.6" y="348.618"/>
      <point x="514.505" y="366.659"/>
      <point x="514.505" y="383.127" type="curve" smooth="yes"/>
      <point x="514.505" y="469.907"/>
      <point x="461.619" y="513"/>
      <point x="356.556" y="513" type="curve" smooth="yes"/>
      <point x="292.556" y="513"/>
      <point x="228.197" y="483.769"/>
      <point x="184.587" y="436" type="curve" smooth="yes"/>
      <point x="159.176" y="408.165" type="line"/>
    </contour>
    <contour>
      <point x="10.8287" y="0" type="line"/>
      <point x="100.829" y="0" type="line"/>
      <point x="241.185" y="722" type="line"/>
      <point x="151.185" y="722" type="line"/>
    </contour>
  </outline>
  <guideline angle="90" x="130" y="0"/>
  <guideline angle="90" x="156" y="0"/>
</glyph>
<glyph name="k" format="2">
  <advance width="481"/>
  <unicode hex="006B"/>
  <anchor x="333.947" y="762" name="top"/>
  <anchor x="190.25" y="-75" name="bottom"/>
  <anchor x="195" y="-50" name="b.commabelow"/>
  <outline>
    <contour>
      <point x="10.8287" y="0" type="line"/>
      <point x="100.829" y="0" type="line"/>
      <point x="241.185" y="722" type="line"/>
      <point x="151.185" y="722" type="line"/>
    </contour>
    <contour>
      <point x="428.829" y="0" type="line"/>
      <point x="262.205" y="291.527" type="line"/>
      <point x="257.818" y="273.158" type="line"/>
      <point x="510.029" y="500" type="line"/>
      <point x="397.029" y="500" type="line"/>
      <point x="154.115" y="280.736" type="line"/>
      <point x="309.829" y="0" type="line"/>
    </contour>
  </outline>
  <guideline angle="227.596" x="350" y="500"/>
  <guideline angle="47.4658" x="263" y="282"/>
  <guideline angle="127.451" x="479" y="0"/>
  <guideline angle="306.772" x="150" y="281"/>
  <guideline angle="90" x="150" y="0"/>
  <guideline angle="90" x="70" y="0"/>
</glyph>
<glyph name="l" format="2">
  <advance width="232"/>
  <unicode hex="006C"/>
  <anchor x="203.947" y="762" name="top"/>
  <anchor x="311" y="722" name="caron_TR"/>
  <anchor x="7" y="-50" name="b.commabelow"/>
  <anchor x="24" y="-80" name="bottom"/>
  <outline>
    <contour>
      <point x="10.8287" y="0" type="line"/>
      <point x="100.829" y="0" type="line"/>
      <point x="241.185" y="722" type="line"/>
      <point x="151.185" y="722" type="line"/>
    </contour>
  </outline>
  <guideline angle="90" x="126" y="0"/>
</glyph>
<glyph name="m" format="2">
  <advance width="870"/>
  <unicode hex="006D"/>
  <outline>
    <contour>
      <point x="491.322" y="314.213" type="line"/>
      <point x="493.03" y="323" type="line" smooth="yes"/>
      <point x="503.916" y="379"/>
      <point x="575.33" y="448"/>
      <point x="644.33" y="448" type="curve" smooth="yes"/>
      <point x="707.622" y="448"/>
      <point x="736.908" y="415.569"/>
      <point x="736.908" y="360.703" type="curve" smooth="yes"/>
      <point x="736.908" y="348.82"/>
      <point x="735.535" y="335.886"/>
      <point x="732.835" y="322" type="curve" smooth="yes"/>
      <point x="670.239" y="0" type="line"/>
      <point x="760.239" y="0" type="line"/>
      <point x="823.419" y="325" type="line" smooth="yes"/>
      <point x="827.356" y="345.253"/>
      <point x="829.323" y="363.878"/>
      <point x="829.323" y="380.867" type="curve" smooth="yes"/>
      <point x="829.323" y="467.908"/>
      <point x="777.685" y="512"/>
      <point x="674.771" y="512" type="curve" smooth="yes"/>
      <point x="603.61" y="512"/>
      <point x="540.675" y="476.571"/>
      <point x="484.024" y="408.628" type="curve"/>
      <point x="465.362" y="314.452" type="line"/>
    </contour>
    <contour>
      <point x="184.025" y="431" type="curve" smooth="yes"/>
      <point x="158.817" y="404.21" type="line"/>
      <point x="143.034" y="323.021" type="line"/>
      <point x="163.03" y="323" type="line"/>
      <point x="173.916" y="379"/>
      <point x="241.33" y="448"/>
      <point x="320.282" y="448" type="curve" smooth="yes"/>
      <point x="373.263" y="448"/>
      <point x="406.753" y="416.929"/>
      <point x="406.753" y="358.941" type="curve" smooth="yes"/>
      <point x="406.753" y="347.923"/>
      <point x="405.544" y="335.933"/>
      <point x="403.03" y="323" type="curve" smooth="yes"/>
      <point x="340.239" y="0" type="line"/>
      <point x="430.239" y="0" type="line"/>
      <point x="507.261" y="396.204" type="line"/>
      <point x="471.439" y="484.571"/>
      <point x="439.771" y="512"/>
      <point x="343.771" y="512" type="curve" smooth="yes"/>
      <point x="284.771" y="512"/>
      <point x="235.221" y="485.076"/>
    </contour>
    <contour>
      <point x="10.2386" y="0" type="line"/>
      <point x="100.239" y="0" type="line"/>
      <point x="197.402" y="499.81" type="line"/>
      <point x="107.402" y="499.81" type="line"/>
    </contour>
  </outline>
</glyph>
<glyph name="n" format="2">
  <advance width="555"/>
  <unicode hex="006E"/>
  <anchor x="287.882" y="580" name="top"/>
  <anchor x="163.563" y="-75" name="bottom"/>
  <anchor x="205" y="-50" name="b.commabelow"/>
  <outline>
    <component base="dotlessi" xOffset="-30"/>
    <contour>
      <point x="142.847" y="322.561" type="line"/>
      <point x="162.933" y="323" type="line"/>
      <point x="177.124" y="396"/>
      <point x="245.205" y="453"/>
      <point x="320.205" y="453" type="curve" smooth="yes"/>
      <point x="388.741" y="453"/>
      <point x="421.16" y="424.394"/>
      <point x="421.16" y="361.939" type="curve" smooth="yes"/>
      <point x="421.16" y="346.936"/>
      <point x="419.29" y="329.981"/>
      <point x="415.6" y="311" type="curve" smooth="yes"/>
      <point x="355.141" y="0" type="line"/>
      <point x="445.141" y="0" type="line"/>
      <point x="509.099" y="329" type="line" smooth="yes"/>
      <point x="512.913" y="348.618"/>
      <point x="514.817" y="366.659"/>
      <point x="514.817" y="383.127" type="curve" smooth="yes"/>
      <point x="514.817" y="469.907"/>
      <point x="461.931" y="513"/>
      <point x="356.869" y="513" type="curve" smooth="yes"/>
      <point x="292.869" y="513"/>
      <point x="228.51" y="483.769"/>
      <point x="184.9" y="436" type="curve" smooth="yes"/>
      <point x="159.489" y="408.165" type="line"/>
    </contour>
  </outline>
</glyph>
<glyph name="o" format="2">
  <advance width="575"/>
  <unicode hex="006F"/>
  <anchor x="351.979" y="580" name="top"/>
  <anchor x="224.66" y="-75" name="bottom"/>
  <anchor x="351.979" y="580" name="tonos.top"/>
  <anchor x="290" y="0" name="b.cedilla"/>
  <outline>
    <contour>
      <point x="30.9787" y="192.708" type="curve" smooth="yes"/>
      <point x="30.9787" y="61.4526"/>
      <point x="106.576" y="-12"/>
      <point x="236.519" y="-12" type="curve" smooth="yes"/>
      <point x="424.147" y="-12"/>
      <point x="544.818" y="141.143"/>
      <point x="544.818" y="309.032" type="curve" smooth="yes"/>
      <point x="544.818" y="439.021"/>
      <point x="470.724" y="512"/>
      <point x="341.057" y="512" type="curve" smooth="yes"/>
      <point x="154.138" y="512"/>
      <point x="30.9787" y="360.808"/>
    </contour>
    <contour>
      <point x="328.402" y="447" type="curve" smooth="yes"/>
      <point x="407.176" y="447"/>
      <point x="451.148" y="405.243"/>
      <point x="451.148" y="319.084" type="curve" smooth="yes"/>
      <point x="451.148" y="194.86"/>
      <point x="391.994" y="53"/>
      <point x="247.276" y="53" type="curve" smooth="yes"/>
      <point x="168.502" y="53"/>
      <point x="124.53" y="95.032"/>
      <point x="124.53" y="181.757" type="curve" smooth="yes"/>
      <point x="124.53" y="306.067"/>
      <point x="183.683" y="447"/>
    </contour>
  </outline>
  <guideline angle="90" x="289" y="0"/>
</glyph>
<glyph name="p" format="2">
  <advance width="586"/>
  <unicode hex="0070"/>
  <outline>
    <contour>
      <point x="-29.7385" y="-200" type="line"/>
      <point x="60.2615" y="-200" type="line"/>
      <point x="180.984" y="421" type="line" smooth="yes"/>
      <point x="186.019" y="446.902"/>
      <point x="191.263" y="473.93"/>
      <point x="193.341" y="500" type="curve"/>
      <point x="103.341" y="500" type="line"/>
      <point x="101.263" y="473.93"/>
      <point x="96.0192" y="446.902"/>
      <point x="90.9838" y="421" type="curve" smooth="yes"/>
    </contour>
    <contour>
      <point x="101.216" y="110.834" type="line"/>
      <point x="128.106" y="28.1129"/>
      <point x="180.849" y="-13"/>
      <point x="264.575" y="-13" type="curve" smooth="yes"/>
      <point x="437.847" y="-13"/>
      <point x="555.626" y="163.079"/>
      <point x="555.626" y="328.305" type="curve" smooth="yes"/>
      <point x="555.626" y="442.837"/>
      <point x="479.503" y="513"/>
      <point x="362.869" y="513" type="curve" smooth="yes"/>
      <point x="279.558" y="513"/>
      <point x="204.299" y="476.532"/>
      <point x="159.102" y="406.567" type="curve"/>
    </contour>
    <contour>
      <point x="144.265" y="204.16" type="curve" smooth="yes"/>
      <point x="144.265" y="314.622"/>
      <point x="214.064" y="455"/>
      <point x="336.399" y="455" type="curve" smooth="yes"/>
      <point x="409.974" y="455"/>
      <point x="458.085" y="404.225"/>
      <point x="458.085" y="310.748" type="curve" smooth="yes"/>
      <point x="458.085" y="201.169"/>
      <point x="391.972" y="54"/>
      <point x="257.617" y="54" type="curve" smooth="yes"/>
      <point x="188.417" y="54"/>
      <point x="144.265" y="115.745"/>
    </contour>
  </outline>
</glyph>
<glyph name="q" format="2">
  <advance width="597"/>
  <unicode hex="0071"/>
  <anchor x="335.882" y="580" name="top"/>
  <anchor x="194.687" y="-275" name="bottom"/>
  <outline>
    <contour>
      <point x="30.199" y="187.86" type="curve" smooth="yes"/>
      <point x="30.199" y="70.1965"/>
      <point x="91.9123" y="-13"/>
      <point x="215.407" y="-13" type="curve" smooth="yes"/>
      <point x="285.089" y="-13"/>
      <point x="370.916" y="43.9257"/>
      <point x="390.96" y="71.8029" type="curve"/>
      <point x="457.525" y="414.684" type="line"/>
      <point x="434.462" y="467.981"/>
      <point x="398.813" y="513"/>
      <point x="310.537" y="513" type="curve" smooth="yes"/>
      <point x="139.288" y="513"/>
      <point x="30.199" y="344.116"/>
    </contour>
    <contour>
      <point x="120.199" y="202.002" type="curve" smooth="yes"/>
      <point x="120.199" y="306.804"/>
      <point x="185.274" y="449"/>
      <point x="310.824" y="449" type="curve" smooth="yes"/>
      <point x="393.54" y="449"/>
      <point x="422.488" y="387.28"/>
      <point x="422.488" y="310.468" type="curve" smooth="yes"/>
      <point x="422.488" y="205.908"/>
      <point x="368.847" y="57"/>
      <point x="241.627" y="57" type="curve" smooth="yes"/>
      <point x="157.484" y="57"/>
      <point x="120.199" y="122.674"/>
    </contour>
    <contour>
      <point x="466.251" y="499.587" type="line"/>
      <point x="330.265" y="-200" type="line"/>
      <point x="420.265" y="-200" type="line"/>
      <point x="556.251" y="499.587" type="line"/>
    </contour>
  </outline>
</glyph>
<glyph name="r" format="2">
  <advance width="352"/>
  <unicode hex="0072"/>
  <anchor x="197.174" y="580" name="top"/>
  <anchor x="15" y="-50" name="b.commabelow"/>
  <outline>
    <component base="dotlessi" xOffset="-30"/>
    <contour>
      <point x="186.358" y="442" type="curve" smooth="yes"/>
      <point x="161.349" y="416.233" type="line"/>
      <point x="136.806" y="289.985" type="line"/>
      <point x="156.809" y="290" type="line"/>
      <point x="174.888" y="383"/>
      <point x="245.025" y="430"/>
      <point x="366.025" y="430" type="curve"/>
      <point x="381.577" y="510" type="line"/>
      <point x="289.592" y="510"/>
      <point x="233.34" y="490.406"/>
    </contour>
  </outline>
  <guideline angle="90" x="116" y="0"/>
</glyph>
<glyph name="s" format="2">
  <advance width="485"/>
  <unicode hex="0073"/>
  <anchor x="296.979" y="580" name="top"/>
  <anchor x="183" y="0" name="b.cedilla"/>
  <anchor x="155" y="-50" name="b.commabelow"/>
  <anchor x="200" y="-80" name="bottom"/>
  <outline>
    <contour>
      <point x="10.2611" y="111.4" type="curve" smooth="yes"/>
      <point x="10.2611" y="22.7496"/>
      <point x="73.8561" y="-14"/>
      <point x="171.389" y="-14" type="curve" smooth="yes"/>
      <point x="292.542" y="-14"/>
      <point x="420.874" y="42.7047"/>
      <point x="420.874" y="177.312" type="curve" smooth="yes"/>
      <point x="420.874" y="259.706"/>
      <point x="342.997" y="275.657"/>
      <point x="275.533" y="290" type="curve" smooth="yes"/>
      <point x="253.97" y="294.841" type="line" smooth="yes"/>
      <point x="189.72" y="310.33"/>
      <point x="164.423" y="327.038"/>
      <point x="164.423" y="361.567" type="curve" smooth="yes"/>
      <point x="164.423" y="417.918"/>
      <point x="231.797" y="447"/>
      <point x="286.896" y="447" type="curve" smooth="yes"/>
      <point x="331.997" y="447"/>
      <point x="361.013" y="427.514"/>
      <point x="361.013" y="386.596" type="curve" smooth="yes"/>
      <point x="361.013" y="380.249"/>
      <point x="360.315" y="373.386"/>
      <point x="358.879" y="366" type="curve"/>
      <point x="450.389" y="366" type="line"/>
      <point x="453.218" y="380.551"/>
      <point x="454.58" y="393.776"/>
      <point x="454.58" y="405.775" type="curve" smooth="yes"/>
      <point x="454.58" y="486.952"/>
      <point x="392.234" y="512"/>
      <point x="306.366" y="512" type="curve" smooth="yes"/>
      <point x="185.595" y="512"/>
      <point x="67.4297" y="462.45"/>
      <point x="67.4297" y="332.099" type="curve" smooth="yes"/>
      <point x="67.4297" y="277.561"/>
      <point x="105.659" y="247.508"/>
      <point x="204.104" y="223.561" type="curve" smooth="yes"/>
      <point x="231.954" y="217" type="line" smooth="yes"/>
      <point x="278.11" y="206.998"/>
      <point x="325.724" y="196.169"/>
      <point x="325.724" y="146.381" type="curve" smooth="yes"/>
      <point x="325.724" y="83.788"/>
      <point x="250.469" y="51"/>
      <point x="189.103" y="51" type="curve" smooth="yes"/>
      <point x="137.532" y="51"/>
      <point x="105.183" y="74.1556"/>
      <point x="105.183" y="120.467" type="curve" smooth="yes"/>
      <point x="105.183" y="127.74"/>
      <point x="105.981" y="135.585"/>
      <point x="107.617" y="144" type="curve"/>
      <point x="14.2322" y="144" type="line"/>
      <point x="10.5591" y="130.249"/>
      <point x="10.2611" y="117.468"/>
    </contour>
  </outline>
  <guideline angle="0" x="0" y="259"/>
</glyph>
<glyph name="t" format="2">
  <advance width="294"/>
  <unicode hex="0074"/>
  <anchor x="211.391" y="711" name="top"/>
  <anchor x="101" y="0" name="b.cedilla"/>
  <anchor x="85" y="-50" name="b.commabelow"/>
  <anchor x="114" y="-80" name="bottom"/>
  <outline>
    <contour>
      <point x="45.2924" y="71.5097" type="curve" smooth="yes"/>
      <point x="45.2924" y="15.9121"/>
      <point x="70.9556" y="-12"/>
      <point x="136.854" y="-12" type="curve" smooth="yes"/>
      <point x="165.854" y="-12"/>
      <point x="196.437" y="-9.0896"/>
      <point x="226.187" y="-0.358257" type="curve"/>
      <point x="238.629" y="62.0473" type="line"/>
      <point x="217.462" y="56.0157"/>
      <point x="195.879" y="53"/>
      <point x="175.879" y="53" type="curve" smooth="yes"/>
      <point x="147.993" y="53"/>
      <point x="137.788" y="69.2404"/>
      <point x="137.788" y="95.7624" type="curve" smooth="yes"/>
      <point x="137.788" y="105.382"/>
      <point x="139.131" y="116.354"/>
      <point x="141.459" y="128.395" type="curve" smooth="yes"/>
      <point x="239.825" y="636" type="line"/>
      <point x="142.633" y="599" type="line"/>
      <point x="52.0423" y="131.411" type="line" smooth="yes"/>
      <point x="47.6802" y="108.854"/>
      <point x="45.2924" y="88.8783"/>
    </contour>
    <contour>
      <point x="185.751" y="435" type="line"/>
      <point x="310.751" y="435" type="line"/>
      <point x="323.387" y="500" type="line"/>
      <point x="198.387" y="500" type="line"/>
    </contour>
    <contour>
      <point x="20.7511" y="435" type="line"/>
      <point x="125.751" y="435" type="line"/>
      <point x="138.387" y="500" type="line"/>
      <point x="33.3871" y="500" type="line"/>
    </contour>
  </outline>
  <guideline angle="202.348" x="178" y="636"/>
</glyph>
<glyph name="v" format="2">
  <advance width="517"/>
  <unicode hex="0076"/>
  <anchor x="314.146" y="580" name="top"/>
  <outline>
    <contour>
      <point x="556.605" y="500" type="line"/>
      <point x="461.605" y="500" type="line"/>
      <point x="216.258" y="98.8192" type="line"/>
      <point x="225" y="98.8289" type="line"/>
      <point x="145.605" y="500" type="line"/>
      <point x="40.6052" y="500" type="line"/>
      <point x="155.405" y="0" type="line"/>
      <point x="247.405" y="0" type="line"/>
    </contour>
  </outline>
  <guideline angle="90" x="250" y="0"/>
  <guideline angle="112.977" x="204" y="0"/>
  <guideline angle="291.381" x="97" y="500"/>
  <guideline angle="67.3903" x="246" y="99"/>
  <guideline angle="247.023" x="508" y="500"/>
  <guideline angle="0" x="0" y="21"/>
</glyph>
<glyph name="w" format="2">
  <advance width="785"/>
  <unicode hex="0077"/>
  <anchor x="448.146" y="580" name="top"/>
  <outline>
    <contour>
      <point x="824.605" y="500" type="line"/>
      <point x="728.605" y="500" type="line"/>
      <point x="529.081" y="98.5142" type="line"/>
      <point x="536.031" y="98.5142" type="line"/>
      <point x="492.605" y="500" type="line"/>
      <point x="372.605" y="500" type="line"/>
      <point x="173.081" y="98.5142" type="line"/>
      <point x="180.031" y="98.5142" type="line"/>
      <point x="136.605" y="500" type="line"/>
      <point x="40.6049" y="500" type="line"/>
      <point x="112.405" y="0" type="line"/>
      <point x="202.405" y="0" type="line"/>
      <point x="421.965" y="426.427" type="line"/>
      <point x="414.64" y="426.427" type="line"/>
      <point x="468.405" y="0" type="line"/>
      <point x="558.405" y="0" type="line"/>
    </contour>
  </outline>
  <guideline angle="108.675" x="161" y="0"/>
  <guideline angle="286.834" x="88" y="500"/>
  <guideline angle="73.1661" x="206" y="110"/>
  <guideline angle="252.23" x="384" y="415"/>
  <guideline angle="107.77" x="517" y="0"/>
  <guideline angle="286.834" x="444" y="500"/>
  <guideline angle="73.1661" x="562" y="110"/>
  <guideline angle="251.325" x="776" y="500"/>
  <guideline angle="90" x="206" y="0"/>
  <guideline angle="90" x="384" y="0"/>
  <guideline angle="90" x="562" y="0"/>
  <guideline angle="0" x="0" y="19"/>
  <guideline angle="0" x="0" y="485"/>
</glyph>
<glyph name="x" format="2">
  <advance width="502"/>
  <unicode hex="0078"/>
  <anchor x="300" y="580" name="top"/>
  <outline>
    <contour>
      <point x="35.6049" y="500" type="line"/>
      <point x="323.405" y="0" type="line"/>
      <point x="437.405" y="0" type="line"/>
      <point x="149.605" y="500" type="line"/>
    </contour>
    <contour>
      <point x="-69.5951" y="0" type="line"/>
      <point x="35.4049" y="0" type="line"/>
      <point x="226.838" y="209.168" type="line"/>
      <point x="191.206" y="270.894" type="line"/>
    </contour>
    <contour>
      <point x="242.71" y="308.799" type="line"/>
      <point x="277.281" y="247.125" type="line"/>
      <point x="521.605" y="500" type="line"/>
      <point x="416.605" y="500" type="line"/>
    </contour>
  </outline>
  <guideline angle="127.596" x="486" y="0"/>
  <guideline angle="127.596" x="413" y="0"/>
  <guideline angle="54.1523" x="84" y="0"/>
  <guideline angle="232.493" x="187" y="271"/>
  <guideline angle="52.3767" x="278" y="247"/>
  <guideline angle="234.349" x="368" y="500"/>
  <guideline angle="90" x="183" y="0"/>
</glyph>
<glyph name="y" format="2">
  <advance width="516"/>
  <unicode hex="0079"/>
  <anchor x="305.146" y="580" name="top"/>
  <outline>
    <contour>
      <point x="45.5249" y="-200" type="line"/>
      <point x="137.525" y="-200" type="line"/>
      <point x="545.605" y="500" type="line"/>
      <point x="448.605" y="500" type="line"/>
    </contour>
    <contour>
      <point x="232.599" y="110.158" type="line"/>
      <point x="145.605" y="500" type="line"/>
      <point x="40.6049" y="500" type="line"/>
      <point x="160.831" y="-12.7858" type="line"/>
    </contour>
  </outline>
  <guideline angle="249.122" x="400" y="500"/>
  <guideline angle="68.7653" x="225" y="-200"/>
  <guideline angle="112.682" x="260" y="110"/>
  <guideline angle="293.212" x="-8" y="500"/>
  <guideline angle="68.6821" x="212" y="-13"/>
</glyph>
<glyph name="z" format="2">
  <advance width="436"/>
  <unicode hex="007A"/>
  <anchor x="277.146" y="580" name="top"/>
  <anchor x="290" y="0" name="b.cedilla"/>
  <outline>
    <contour>
      <point x="328.405" y="0" type="line"/>
      <point x="341.819" y="69" type="line"/>
      <point x="61.8185" y="69" type="line"/>
      <point x="64.6589" y="59.4832" type="line"/>
      <point x="409.65" y="417.928" type="line"/>
      <point x="425.605" y="500" type="line"/>
      <point x="77.605" y="500" type="line"/>
      <point x="64.1914" y="431" type="line"/>
      <point x="322.191" y="431" type="line"/>
      <point x="319.322" y="440.543" type="line"/>
      <point x="-23.6402" y="82.0722" type="line"/>
      <point x="-39.5951" y="0" type="line"/>
    </contour>
  </outline>
  <guideline angle="52.749" x="9" y="82"/>
  <guideline angle="232.547" x="377" y="418"/>
  <guideline angle="52.749" x="9" y="82"/>
</glyph>
<glyph name="braceleft" format="2">
  <advance width="487"/>
  <unicode hex="007B"/>
  <outline>
    <contour>
      <point x="111.971" y="-42" type="curve" smooth="yes"/>
      <point x="139.743" y="70" type="line" smooth="yes"/>
      <point x="143.896" y="86.7453"/>
      <point x="144.972" y="103.027"/>
      <point x="144.972" y="114.876" type="curve" smooth="yes"/>
      <point x="144.972" y="170.308"/>
      <point x="121.418" y="209.234"/>
      <point x="49.6811" y="224" type="curve"/>
      <point x="63.6779" y="296" type="line"/>
      <point x="170.343" y="320"/>
      <point x="203.773" y="379.372"/>
      <point x="213.615" y="450" type="curve" smooth="yes"/>
      <point x="228.805" y="559" type="line" smooth="yes"/>
      <point x="247.646" y="694.202"/>
      <point x="310.879" y="760"/>
      <point x="481.879" y="760" type="curve"/>
      <point x="467.494" y="686" type="line"/>
      <point x="377.494" y="686"/>
      <point x="332.335" y="641.736"/>
      <point x="320.805" y="559" type="curve" smooth="yes"/>
      <point x="305.615" y="450" type="line" smooth="yes"/>
      <point x="292.68" y="357.175"/>
      <point x="247.566" y="316"/>
      <point x="180.679" y="260" type="curve"/>
      <point x="216.834" y="237.572"/>
      <point x="235.543" y="190.021"/>
      <point x="235.543" y="118.617" type="curve" smooth="yes"/>
      <point x="235.543" y="102.13"/>
      <point x="234.545" y="75.0894"/>
      <point x="227.272" y="47" type="curve" smooth="yes"/>
      <point x="203.193" y="-46" type="line" smooth="yes"/>
      <point x="199.675" y="-59.589"/>
      <point x="199.104" y="-72.4695"/>
      <point x="199.104" y="-80.3275" type="curve" smooth="yes"/>
      <point x="199.104" y="-137.013"/>
      <point x="228.792" y="-166"/>
      <point x="301.865" y="-166" type="curve"/>
      <point x="287.48" y="-240" type="line"/>
      <point x="148.618" y="-240"/>
      <point x="103.71" y="-197.185"/>
      <point x="103.71" y="-109.918" type="curve" smooth="yes"/>
      <point x="103.71" y="-93.0481"/>
      <point x="105.388" y="-68.5447"/>
    </contour>
  </outline>
  <guideline angle="0" x="0" y="260"/>
</glyph>
<glyph name="bar" format="2">
  <advance width="396"/>
  <unicode hex="007C"/>
  <outline>
    <contour>
      <point x="140.487" y="-258" type="line"/>
      <point x="345.363" y="796" type="line"/>
      <point x="255.363" y="796" type="line"/>
      <point x="50.4865" y="-258" type="line"/>
    </contour>
  </outline>
</glyph>
<glyph name="asciitilde" format="2">
  <advance width="633"/>
  <unicode hex="007E"/>
  <outline>
    <contour>
      <point x="613.615" y="315" type="curve"/>
      <point x="525.615" y="315" type="line"/>
      <point x="510.784" y="285"/>
      <point x="469.451" y="273"/>
      <point x="442.451" y="273" type="curve" smooth="yes"/>
      <point x="375.237" y="273"/>
      <point x="315.572" y="313"/>
      <point x="245.226" y="313" type="curve" smooth="yes"/>
      <point x="160.226" y="313"/>
      <point x="94.451" y="273"/>
      <point x="57.2893" y="195" type="curve"/>
      <point x="148.289" y="195" type="line"/>
      <point x="156.954" y="219"/>
      <point x="193.648" y="238"/>
      <point x="232.648" y="238" type="curve" smooth="yes"/>
      <point x="304.743" y="238"/>
      <point x="366.94" y="198"/>
      <point x="441.872" y="198" type="curve" smooth="yes"/>
      <point x="519.872" y="198"/>
      <point x="586.203" y="246"/>
    </contour>
  </outline>
</glyph>
<glyph name="cent" format="2">
  <advance width="558"/>
  <unicode hex="00A2"/>
  <outline>
    <component base="c" xOffset="5"/>
    <contour>
      <point x="122.991" y="-80.162" type="line"/>
      <point x="466.559" y="580.085" type="line"/>
      <point x="413.379" y="580.119" type="line"/>
      <point x="70.6872" y="-80.1275" type="line"/>
    </contour>
  </outline>
  <guideline angle="0" x="0" y="580"/>
  <guideline angle="0" x="0" y="-80"/>
</glyph>
<glyph name="sterling" format="2">
  <advance width="558"/>
  <unicode hex="00A3"/>
  <outline>
    <contour>
      <point x="50.9927" y="49" type="line"/>
      <point x="139.993" y="49" type="line"/>
      <point x="235.239" y="539" type="line" smooth="yes"/>
      <point x="253.705" y="634"/>
      <point x="327.092" y="672"/>
      <point x="387.092" y="672" type="curve" smooth="yes"/>
      <point x="441.326" y="672"/>
      <point x="496.386" y="642.426"/>
      <point x="496.386" y="592.598" type="curve" smooth="yes"/>
      <point x="496.386" y="588.22"/>
      <point x="495.925" y="583.685"/>
      <point x="495.014" y="579" type="curve"/>
      <point x="584.014" y="579" type="line"/>
      <point x="585.609" y="587.202"/>
      <point x="586.372" y="595.13"/>
      <point x="586.372" y="602.774" type="curve" smooth="yes"/>
      <point x="586.372" y="686.462"/>
      <point x="494.828" y="736"/>
      <point x="401.162" y="736" type="curve" smooth="yes"/>
      <point x="295.532" y="736"/>
      <point x="172.286" y="673"/>
      <point x="146.239" y="539" type="curve" smooth="yes"/>
    </contour>
    <contour>
      <point x="463.908" y="64" type="line"/>
      <point x="-15.0916" y="64" type="line"/>
      <point x="-27.532" y="0" type="line"/>
      <point x="451.468" y="0" type="line"/>
    </contour>
    <contour>
      <point x="61.1055" y="456" type="line"/>
      <point x="48.6651" y="392" type="line"/>
      <point x="371.665" y="392" type="line"/>
      <point x="384.105" y="456" type="line"/>
    </contour>
  </outline>
</glyph>
<glyph name="currency" format="2">
  <advance width="619"/>
  <unicode hex="00A4"/>
  <outline>
    <contour>
      <point x="109.879" y="385.643" type="curve" smooth="yes"/>
      <point x="109.879" y="287.954"/>
      <point x="181.186" y="216"/>
      <point x="285.94" y="216" type="curve" smooth="yes"/>
      <point x="419.819" y="216"/>
      <point x="540.692" y="337.147"/>
      <point x="540.692" y="471.05" type="curve" smooth="yes"/>
      <point x="540.692" y="566.863"/>
      <point x="470.504" y="639"/>
      <point x="369.156" y="639" type="curve" smooth="yes"/>
      <point x="232.565" y="639"/>
      <point x="109.879" y="523.503"/>
    </contour>
    <contour>
      <point x="350.866" y="552" type="curve" smooth="yes"/>
      <point x="411.137" y="552"/>
      <point x="451.026" y="511.394"/>
      <point x="451.026" y="453.961" type="curve" smooth="yes"/>
      <point x="451.026" y="374.659"/>
      <point x="382.64" y="303"/>
      <point x="302.465" y="303" type="curve" smooth="yes"/>
      <point x="239.323" y="303"/>
      <point x="199.04" y="342.686"/>
      <point x="199.04" y="400.538" type="curve" smooth="yes"/>
      <point x="199.04" y="482.713"/>
      <point x="268.315" y="552"/>
    </contour>
    <contour>
      <point x="238.93" y="584.393" type="line"/>
      <point x="144.033" y="700" type="line"/>
      <point x="101.035" y="664" type="line"/>
      <point x="196.166" y="548.393" type="line"/>
    </contour>
    <contour>
      <point x="504.152" y="549.393" type="line"/>
      <point x="641.035" y="664" type="line"/>
      <point x="612.033" y="700" type="line"/>
      <point x="472.992" y="583.393" type="line"/>
    </contour>
    <contour>
      <point x="414.762" y="273.607" type="line"/>
      <point x="506.068" y="160" type="line"/>
      <point x="550.065" y="196" type="line"/>
      <point x="458.542" y="309.607" type="line"/>
    </contour>
    <contour>
      <point x="147.705" y="309.607" type="line"/>
      <point x="10.0654" y="196" type="line"/>
      <point x="39.0677" y="160" type="line"/>
      <point x="176.533" y="273.607" type="line"/>
    </contour>
  </outline>
  <guideline angle="135.246" x="193" y="584"/>
  <guideline angle="225.246" x="544" y="700"/>
  <guideline angle="45" x="465" y="549"/>
  <guideline angle="315.49" x="40" y="664"/>
  <guideline angle="225" x="76" y="700"/>
  <guideline angle="135" x="580" y="664"/>
  <guideline angle="44.2152" x="543" y="160"/>
  <guideline angle="315" x="40" y="196"/>
  <guideline angle="90" x="312" y="0"/>
  <guideline angle="0" x="0" y="431"/>
</glyph>
<glyph name="yen" format="2">
  <advance width="558"/>
  <unicode hex="00A5"/>
  <outline>
    <contour>
      <point x="626.171" y="722" type="line"/>
      <point x="521.171" y="722" type="line"/>
      <point x="274.512" y="354.166" type="line"/>
      <point x="284.885" y="354.189" type="line"/>
      <point x="179.171" y="722" type="line"/>
      <point x="74.1713" y="722" type="line"/>
      <point x="209.381" y="287" type="line"/>
      <point x="214.616" y="287" type="line"/>
      <point x="158.829" y="0" type="line"/>
      <point x="260.829" y="0" type="line"/>
      <point x="316.616" y="287" type="line"/>
      <point x="324.116" y="287" type="line"/>
    </contour>
    <contour>
      <point x="208.529" y="338" type="line"/>
      <point x="9.52925" y="338" type="line"/>
      <point x="-0.384145" y="287" type="line"/>
      <point x="229.616" y="287" type="line"/>
    </contour>
    <contour>
      <point x="301.616" y="287" type="line"/>
      <point x="531.616" y="287" type="line"/>
      <point x="541.529" y="338" type="line"/>
      <point x="344.529" y="338" type="line"/>
    </contour>
    <contour>
      <point x="158.574" y="508" type="line"/>
      <point x="42.5739" y="508" type="line"/>
      <point x="32.6605" y="457" type="line"/>
      <point x="173.661" y="457" type="line"/>
    </contour>
    <contour>
      <point x="425.661" y="457" type="line"/>
      <point x="564.661" y="457" type="line"/>
      <point x="574.574" y="508" type="line"/>
      <point x="460.574" y="508" type="line"/>
    </contour>
  </outline>
  <guideline angle="296.803" x="4" y="722"/>
  <guideline angle="63.4349" x="364" y="338"/>
  <guideline angle="90" x="276" y="0"/>
  <guideline angle="90" x="267" y="0"/>
  <guideline angle="90" x="289" y="0"/>
  <guideline angle="115.687" x="286" y="354"/>
  <guideline angle="244.567" x="451" y="722"/>
</glyph>
<glyph name="section" format="2">
  <advance width="467"/>
  <unicode hex="00A7"/>
  <outline>
    <contour>
      <point x="-6.14888" y="313.217" type="curve" smooth="yes"/>
      <point x="-6.14888" y="271.33"/>
      <point x="24.4687" y="242.032"/>
      <point x="40.1848" y="227.474" type="curve" smooth="yes"/>
      <point x="191.267" y="87.5182" type="line" smooth="yes"/>
      <point x="232.591" y="49.2379"/>
      <point x="248.941" y="34.3409"/>
      <point x="248.941" y="3.39329" type="curve" smooth="yes"/>
      <point x="248.941" y="-67.8006"/>
      <point x="162.416" y="-103"/>
      <point x="97.7183" y="-103" type="curve" smooth="yes"/>
      <point x="54.1553" y="-103"/>
      <point x="15.2654" y="-87.0412"/>
      <point x="-20.8751" y="-62.1057" type="curve"/>
      <point x="-35.648" y="-139.029" type="line"/>
      <point x="-4.01043" y="-157.706"/>
      <point x="58.0837" y="-173"/>
      <point x="107.97" y="-173" type="curve" smooth="yes"/>
      <point x="216.692" y="-173"/>
      <point x="348.543" y="-100.439"/>
      <point x="348.543" y="24.6229" type="curve" smooth="yes"/>
      <point x="348.543" y="64.8451"/>
      <point x="319.732" y="102.607"/>
      <point x="283.697" y="135.821" type="curve" smooth="yes"/>
      <point x="115.848" y="290.533" type="line" smooth="yes"/>
      <point x="101.86" y="303.426"/>
      <point x="95.2564" y="312.801"/>
      <point x="95.2564" y="334.128" type="curve" smooth="yes"/>
      <point x="95.2564" y="418.1"/>
      <point x="197.631" y="425.42"/>
      <point x="267.425" y="425.42" type="curve"/>
      <point x="202.117" y="480.196" type="line"/>
      <point x="109.264" y="467.485"/>
      <point x="-6.14888" y="426.592"/>
    </contour>
    <contour>
      <point x="102.968" y="565.045" type="curve" smooth="yes"/>
      <point x="102.968" y="499.47"/>
      <point x="149.888" y="458.807"/>
      <point x="185.76" y="428.626" type="curve" smooth="yes"/>
      <point x="335.452" y="302.685" type="line" smooth="yes"/>
      <point x="350.285" y="290.204"/>
      <point x="355.567" y="279.682"/>
      <point x="355.567" y="262.572" type="curve" smooth="yes"/>
      <point x="355.567" y="183.491"/>
      <point x="242.741" y="169.868"/>
      <point x="179.874" y="169.868" type="curve"/>
      <point x="251.656" y="113.964" type="line"/>
      <point x="339.26" y="134.086"/>
      <point x="443.825" y="186.352"/>
      <point x="443.825" y="282.185" type="curve" smooth="yes"/>
      <point x="443.825" y="333.779"/>
      <point x="413.518" y="353.739"/>
      <point x="368.908" y="394.207" type="curve" smooth="yes"/>
      <point x="264.973" y="488.489" type="line" smooth="yes"/>
      <point x="233.06" y="517.438"/>
      <point x="200.549" y="538.723"/>
      <point x="200.549" y="575.153" type="curve" smooth="yes"/>
      <point x="200.549" y="625.882"/>
      <point x="265.054" y="671"/>
      <point x="311.994" y="671" type="curve" smooth="yes"/>
      <point x="357.994" y="671"/>
      <point x="400.273" y="657.036"/>
      <point x="436.219" y="631.103" type="curve"/>
      <point x="449.437" y="699" type="line"/>
      <point x="409.349" y="722"/>
      <point x="366.808" y="735"/>
      <point x="321.096" y="735" type="curve" smooth="yes"/>
      <point x="216.623" y="735"/>
      <point x="102.968" y="667.104"/>
    </contour>
  </outline>
  <guideline angle="142.093" x="364" y="393"/>
  <guideline angle="324.09" x="174" y="428"/>
  <guideline angle="141.766" x="329" y="134"/>
  <guideline angle="321.814" x="68" y="226"/>
</glyph>
<glyph name="dieresis" format="2">
  <advance width="359"/>
  <unicode hex="00A8"/>
  <outline>
    <contour>
      <point x="100.301" y="630" type="line"/>
      <point x="118.186" y="722" type="line"/>
      <point x="28.1855" y="722" type="line"/>
      <point x="10.3007" y="630" type="line"/>
    </contour>
    <contour>
      <point x="300.301" y="630" type="line"/>
      <point x="318.185" y="722" type="line"/>
      <point x="228.185" y="722" type="line"/>
      <point x="210.301" y="630" type="line"/>
    </contour>
  </outline>
  <guideline angle="90" x="-42" y="0"/>
  <guideline angle="90" x="103" y="0"/>
</glyph>
<glyph name="copyright" format="2">
  <advance width="867"/>
  <unicode hex="00A9"/>
  <outline>
    <contour>
      <point x="210.986" y="283.025" type="curve" smooth="yes"/>
      <point x="210.986" y="179.695"/>
      <point x="266.723" y="120"/>
      <point x="383.704" y="120" type="curve" smooth="yes"/>
      <point x="502.891" y="120"/>
      <point x="579.748" y="181.968"/>
      <point x="609.769" y="284.609" type="curve"/>
      <point x="529.769" y="284.609" type="line"/>
      <point x="514.245" y="235.798"/>
      <point x="468.137" y="184"/>
      <point x="392.082" y="184" type="curve" smooth="yes"/>
      <point x="328.926" y="184"/>
      <point x="294.909" y="219.719"/>
      <point x="294.909" y="291.655" type="curve" smooth="yes"/>
      <point x="294.909" y="310.415"/>
      <point x="297.223" y="331.638"/>
      <point x="301.846" y="355.333" type="curve" smooth="yes"/>
      <point x="306.063" y="376.944" type="line" smooth="yes"/>
      <point x="327.017" y="484.493"/>
      <point x="391.309" y="539"/>
      <point x="452.336" y="539" type="curve" smooth="yes"/>
      <point x="522.487" y="539"/>
      <point x="557.824" y="514.248"/>
      <point x="557.824" y="465.393" type="curve" smooth="yes"/>
      <point x="557.824" y="457.838"/>
      <point x="556.979" y="449.706"/>
      <point x="555.287" y="441" type="curve"/>
      <point x="635.287" y="441" type="line"/>
      <point x="637.536" y="452.568"/>
      <point x="638.749" y="463.953"/>
      <point x="638.749" y="474.97" type="curve" smooth="yes"/>
      <point x="638.749" y="541.097"/>
      <point x="595.033" y="594"/>
      <point x="469.027" y="594" type="curve" smooth="yes"/>
      <point x="292.647" y="594"/>
      <point x="210.986" y="440.276"/>
    </contour>
    <contour>
      <point x="50.4149" y="290.203" type="curve" smooth="yes"/>
      <point x="50.4149" y="115.015"/>
      <point x="176.197" y="-16"/>
      <point x="357.359" y="-16" type="curve" smooth="yes"/>
      <point x="589.346" y="-16"/>
      <point x="813.719" y="199.775"/>
      <point x="813.719" y="430.01" type="curve" smooth="yes"/>
      <point x="813.719" y="603.987"/>
      <point x="686.189" y="735"/>
      <point x="504.435" y="735" type="curve" smooth="yes"/>
      <point x="272.384" y="735"/>
      <point x="50.4149" y="521.56"/>
    </contour>
    <contour>
      <point x="493.133" y="680" type="curve" smooth="yes"/>
      <point x="649.355" y="680"/>
      <point x="758.715" y="565.149"/>
      <point x="758.715" y="414.253" type="curve" smooth="yes"/>
      <point x="758.715" y="215.208"/>
      <point x="567.212" y="32"/>
      <point x="366.785" y="32" type="curve" smooth="yes"/>
      <point x="210.884" y="32"/>
      <point x="100.748" y="144.093"/>
      <point x="100.748" y="294.602" type="curve" smooth="yes"/>
      <point x="100.748" y="494.996"/>
      <point x="293.689" y="680"/>
    </contour>
  </outline>
  <guideline angle="90" x="432" y="0"/>
  <guideline angle="0" x="0" y="355"/>
</glyph>
<glyph name="guillemotleft" format="2">
  <advance width="569"/>
  <unicode hex="00AB"/>
  <outline>
    <contour>
      <point x="237.636" y="57" type="line"/>
      <point x="151.237" y="262.22" type="line"/>
      <point x="147.264" y="241.78" type="line"/>
      <point x="313.444" y="447" type="line"/>
      <point x="235.444" y="447" type="line"/>
      <point x="60.5398" y="252" type="line"/>
      <point x="159.636" y="57" type="line"/>
    </contour>
    <contour>
      <point x="432.636" y="57" type="line"/>
      <point x="346.237" y="262.22" type="line"/>
      <point x="342.264" y="241.78" type="line"/>
      <point x="508.444" y="447" type="line"/>
      <point x="430.444" y="447" type="line"/>
      <point x="255.54" y="252" type="line"/>
      <point x="354.636" y="57" type="line"/>
    </contour>
  </outline>
  <guideline angle="301.576" x="144" y="262"/>
  <guideline angle="238.424" x="270" y="447"/>
  <guideline angle="54.9095" x="55" y="252"/>
  <guideline angle="125.091" x="192" y="57"/>
</glyph>
<glyph name="logicalnot" format="2">
  <advance width="619"/>
  <unicode hex="00AC"/>
  <outline>
    <contour>
      <point x="575.918" y="189" type="line"/>
      <point x="620.82" y="420" type="line"/>
      <point x="80.8199" y="420" type="line"/>
      <point x="69.1571" y="360" type="line"/>
      <point x="549.157" y="360" type="line"/>
      <point x="515.918" y="189" type="line"/>
    </contour>
  </outline>
</glyph>
<glyph name="uni00AD" format="2">
  <advance width="310"/>
  <unicode hex="00AD"/>
  <outline>
    <contour>
      <point x="288.855" y="264" type="line"/>
      <point x="302.462" y="334" type="line"/>
      <point x="72.4615" y="334" type="line"/>
      <point x="58.8549" y="264" type="line"/>
    </contour>
  </outline>
</glyph>
<glyph name="registered" format="2">
  <advance width="867"/>
  <unicode hex="00AE"/>
  <outline>
    <contour>
      <point x="52.3602" y="286.548" type="curve" smooth="yes"/>
      <point x="52.3602" y="114.006"/>
      <point x="175.061" y="-12"/>
      <point x="359.135" y="-12" type="curve" smooth="yes"/>
      <point x="597.34" y="-12"/>
      <point x="809.367" y="200.265"/>
      <point x="809.367" y="438.045" type="curve" smooth="yes"/>
      <point x="809.367" y="610.004"/>
      <point x="688.35" y="736"/>
      <point x="504.532" y="736" type="curve" smooth="yes"/>
      <point x="266.944" y="736"/>
      <point x="52.3602" y="524.451"/>
    </contour>
    <contour>
      <point x="495.202" y="688" type="curve" smooth="yes"/>
      <point x="653.338" y="688"/>
      <point x="760.103" y="574.603"/>
      <point x="760.103" y="425.627" type="curve" smooth="yes"/>
      <point x="760.103" y="222.054"/>
      <point x="571.532" y="36"/>
      <point x="368.466" y="36" type="curve" smooth="yes"/>
      <point x="210.12" y="36"/>
      <point x="101.595" y="148.985"/>
      <point x="101.595" y="298.709" type="curve" smooth="yes"/>
      <point x="101.595" y="502.268"/>
      <point x="292.815" y="688"/>
    </contour>
    <contour>
      <point x="307.644" y="536" type="line"/>
      <point x="478.656" y="536" type="line" smooth="yes"/>
      <point x="533.281" y="536"/>
      <point x="568.705" y="529.065"/>
      <point x="568.705" y="488.039" type="curve" smooth="yes"/>
      <point x="568.705" y="416.382"/>
      <point x="513.993" y="401"/>
      <point x="452.415" y="401" type="curve" smooth="yes"/>
      <point x="336.415" y="401" type="line"/>
      <point x="324.946" y="342" type="line"/>
      <point x="424.946" y="342" type="line" smooth="yes"/>
      <point x="499.702" y="342"/>
      <point x="512.427" y="309.21"/>
      <point x="512.427" y="260.259" type="curve" smooth="yes"/>
      <point x="512.427" y="234.994"/>
      <point x="509.037" y="205.425"/>
      <point x="509.037" y="173.837" type="curve" smooth="yes"/>
      <point x="509.037" y="159.566"/>
      <point x="509.729" y="144.884"/>
      <point x="511.737" y="130" type="curve"/>
      <point x="583.737" y="130" type="line"/>
      <point x="580.901" y="145.28"/>
      <point x="579.953" y="161.256"/>
      <point x="579.953" y="177.412" type="curve" smooth="yes"/>
      <point x="579.953" y="210.031"/>
      <point x="583.819" y="243.385"/>
      <point x="583.819" y="273.231" type="curve" smooth="yes"/>
      <point x="583.819" y="317.457"/>
      <point x="575.33" y="353.982"/>
      <point x="533.194" y="369" type="curve"/>
      <point x="600.556" y="389.788"/>
      <point x="640.563" y="435.435"/>
      <point x="640.563" y="505.578" type="curve" smooth="yes"/>
      <point x="640.563" y="570.97"/>
      <point x="594.789" y="600"/>
      <point x="494.096" y="600" type="curve" smooth="yes"/>
      <point x="320.096" y="600" type="line"/>
    </contour>
    <contour>
      <point x="228.932" y="131" type="line"/>
      <point x="298.932" y="131" type="line"/>
      <point x="390.098" y="600.007" type="line"/>
      <point x="320.096" y="600" type="line"/>
    </contour>
  </outline>
</glyph>
<glyph name="macron" format="2">
  <advance width="384"/>
  <unicode hex="00AF"/>
  <outline>
    <contour>
      <point x="40.4389" y="620" type="line"/>
      <point x="329.439" y="620" type="line"/>
      <point x="343.047" y="690" type="line"/>
      <point x="54.0469" y="690" type="line"/>
    </contour>
  </outline>
  <guideline angle="0" x="0" y="620"/>
  <guideline angle="90" x="192" y="0"/>
</glyph>
<glyph name="degree" format="2">
  <advance width="321"/>
  <unicode hex="00B0"/>
  <outline>
    <contour>
      <point x="230.477" y="720" type="curve" smooth="yes"/>
      <point x="161.801" y="720"/>
      <point x="96.9925" y="657.928"/>
      <point x="96.9925" y="588.683" type="curve" smooth="yes"/>
      <point x="96.9925" y="537.976"/>
      <point x="134.012" y="500"/>
      <point x="187.713" y="500" type="curve" smooth="yes"/>
      <point x="255.639" y="500"/>
      <point x="321.198" y="562.783"/>
      <point x="321.198" y="631.317" type="curve" smooth="yes"/>
      <point x="321.198" y="682.024"/>
      <point x="284.178" y="720"/>
    </contour>
    <contour>
      <point x="195.488" y="540" type="curve" smooth="yes"/>
      <point x="161.058" y="540"/>
      <point x="136.779" y="564.162"/>
      <point x="136.779" y="596.659" type="curve" smooth="yes"/>
      <point x="136.779" y="641.024"/>
      <point x="179.02" y="680"/>
      <point x="222.702" y="680" type="curve" smooth="yes"/>
      <point x="257" y="680"/>
      <point x="280.45" y="656.025"/>
      <point x="280.45" y="623.717" type="curve" smooth="yes"/>
      <point x="280.45" y="579.428"/>
      <point x="239.466" y="540"/>
    </contour>
  </outline>
</glyph>
<glyph name="plusminus" format="2">
  <advance width="1000"/>
  <unicode hex="00B1"/>
  <outline>
    <contour>
      <point x="810.885" y="356" type="line"/>
      <point x="823.326" y="420" type="line"/>
      <point x="554.326" y="420" type="line"/>
      <point x="589.314" y="600" type="line"/>
      <point x="527.314" y="600" type="line"/>
      <point x="492.326" y="420" type="line"/>
      <point x="223.326" y="420" type="line"/>
      <point x="210.885" y="356" type="line"/>
      <point x="479.885" y="356" type="line"/>
      <point x="445.37" y="178.432" type="line"/>
      <point x="507.37" y="178.432" type="line"/>
      <point x="541.885" y="356" type="line"/>
    </contour>
    <contour>
      <point x="741.686" y="0" type="line"/>
      <point x="754.126" y="64" type="line"/>
      <point x="154.126" y="64" type="line"/>
      <point x="141.686" y="0" type="line"/>
    </contour>
  </outline>
</glyph>
<glyph name="twosuperior" format="2">
  <advance width="353"/>
  <unicode hex="00B2"/>
  <outline>
    <contour>
      <point x="35.7832" y="407" type="line"/>
      <point x="23.1472" y="342" type="line"/>
      <point x="316.147" y="342" type="line"/>
      <point x="327.617" y="401" type="line"/>
      <point x="113.617" y="401" type="line"/>
      <point x="114.736" y="393.593" type="line"/>
      <point x="154.92" y="420.948" type="line" smooth="yes"/>
      <point x="225.909" y="469.273"/>
      <point x="365.827" y="539.353"/>
      <point x="365.827" y="645.178" type="curve" smooth="yes"/>
      <point x="365.827" y="707.42"/>
      <point x="317.425" y="734"/>
      <point x="243.352" y="734" type="curve" smooth="yes"/>
      <point x="168.352" y="734"/>
      <point x="102.632" y="684"/>
      <point x="85.2184" y="615" type="curve"/>
      <point x="159.218" y="615" type="line"/>
      <point x="171.994" y="655"/>
      <point x="195.882" y="675"/>
      <point x="238.927" y="675" type="curve" smooth="yes"/>
      <point x="274.389" y="675"/>
      <point x="292.823" y="661.426"/>
      <point x="292.823" y="633.593" type="curve" smooth="yes"/>
      <point x="292.823" y="554.475"/>
      <point x="143.877" y="477.639"/>
      <point x="95.3091" y="445.9" type="curve" smooth="yes"/>
    </contour>
  </outline>
  <guideline angle="218.454" x="144" y="430"/>
  <guideline angle="36.8699" x="28" y="416"/>
  <guideline angle="0" x="0" y="-11"/>
</glyph>
<glyph name="threesuperior" format="2">
  <advance width="371"/>
  <unicode hex="00B3"/>
  <outline>
    <contour>
      <point x="47.5223" y="452" type="line"/>
      <point x="46.2304" y="442.794"/>
      <point x="45.608" y="434.137"/>
      <point x="45.6497" y="426.021" type="curve" smooth="yes"/>
      <point x="45.9823" y="361.318"/>
      <point x="88.5244" y="331"/>
      <point x="164.923" y="331" type="curve" smooth="yes"/>
      <point x="251.298" y="331"/>
      <point x="361.529" y="369.753"/>
      <point x="361.529" y="461.125" type="curve" smooth="yes"/>
      <point x="361.529" y="506.68"/>
      <point x="334.129" y="534.833"/>
      <point x="283.211" y="543" type="curve"/>
      <point x="282.542" y="538.968" type="line"/>
      <point x="341.505" y="546.69"/>
      <point x="379.625" y="589.722"/>
      <point x="379.625" y="644.393" type="curve" smooth="yes"/>
      <point x="379.625" y="701.84"/>
      <point x="337.537" y="734"/>
      <point x="263.635" y="734" type="curve" smooth="yes"/>
      <point x="175.661" y="734"/>
      <point x="108.479" y="688.426"/>
      <point x="95.9556" y="624" type="curve"/>
      <point x="159.956" y="624" type="line"/>
      <point x="172.888" y="661.388"/>
      <point x="201.045" y="676.648"/>
      <point x="240.272" y="676.648" type="curve" smooth="yes"/>
      <point x="281.078" y="676.648"/>
      <point x="302.457" y="660.134"/>
      <point x="302.457" y="628.511" type="curve" smooth="yes"/>
      <point x="302.457" y="582.168"/>
      <point x="256.539" y="562.824"/>
      <point x="212.329" y="562.824" type="curve" smooth="yes"/>
      <point x="192.064" y="562.824" type="line"/>
      <point x="181.767" y="509.848" type="line"/>
      <point x="198.567" y="509.848" type="line" smooth="yes"/>
      <point x="261.889" y="509.848"/>
      <point x="292.876" y="489.068"/>
      <point x="292.876" y="455.307" type="curve" smooth="yes"/>
      <point x="292.876" y="405.434"/>
      <point x="225.254" y="390"/>
      <point x="180.082" y="390" type="curve" smooth="yes"/>
      <point x="137.61" y="390"/>
      <point x="113.091" y="403.644"/>
      <point x="113.091" y="442.138" type="curve" smooth="yes"/>
      <point x="113.091" y="444.327"/>
      <point x="113.171" y="448.054"/>
      <point x="113.522" y="452" type="curve"/>
    </contour>
  </outline>
</glyph>
<glyph name="acute" format="2">
  <advance width="220"/>
  <unicode hex="00B4"/>
  <outline>
    <contour>
      <point x="20" y="580" type="line"/>
      <point x="90" y="580" type="line"/>
      <point x="200" y="760" type="line"/>
      <point x="100" y="760" type="line"/>
    </contour>
  </outline>
</glyph>
<glyph name="paragraph" format="2">
  <advance width="559"/>
  <unicode hex="00B6"/>
  <outline>
    <contour>
      <point x="562.59" y="683" type="line"/>
      <point x="570.171" y="722" type="line"/>
      <point x="320.171" y="722" type="line" smooth="yes"/>
      <point x="201.349" y="722"/>
      <point x="77.4681" y="606.032"/>
      <point x="77.4681" y="485.333" type="curve" smooth="yes"/>
      <point x="77.4681" y="393.389"/>
      <point x="157.143" y="352"/>
      <point x="247.251" y="352" type="curve"/>
      <point x="147.728" y="-160" type="line"/>
      <point x="197.728" y="-160" type="line"/>
      <point x="361.59" y="683" type="line"/>
      <point x="451.59" y="683" type="line"/>
      <point x="287.728" y="-160" type="line"/>
      <point x="337.728" y="-160" type="line"/>
      <point x="501.59" y="683" type="line"/>
    </contour>
  </outline>
</glyph>
<glyph name="cedilla" format="2">
  <advance width="278"/>
  <unicode hex="00B8"/>
  <outline>
    <contour>
      <point x="237.423" y="-124.207" type="curve" smooth="yes"/>
      <point x="237.423" y="-82.1398"/>
      <point x="214.898" y="-51.2699"/>
      <point x="154.501" y="-51.1676" type="curve" smooth="yes"/>
      <point x="136.445" y="-51.1371"/>
      <point x="120.487" y="-53"/>
      <point x="99.5211" y="-58.4222" type="curve"/>
      <point x="129.315" y="-65.4696" type="line"/>
      <point x="172.333" y="0" type="line"/>
      <point x="111.333" y="0" type="line"/>
      <point x="54.3874" y="-93.1015" type="line"/>
      <point x="71.0721" y="-103" type="line"/>
      <point x="86.0425" y="-97.5069"/>
      <point x="96.2187" y="-96.7424"/>
      <point x="105.106" y="-96.7053" type="curve" smooth="yes"/>
      <point x="141.465" y="-96.5533"/>
      <point x="164.314" y="-115.888"/>
      <point x="164.314" y="-134.614" type="curve" smooth="yes"/>
      <point x="164.314" y="-161.151"/>
      <point x="135.652" y="-173"/>
      <point x="99.9822" y="-173" type="curve" smooth="yes"/>
      <point x="80.4556" y="-173"/>
      <point x="54.7377" y="-169.816"/>
      <point x="35.2407" y="-165" type="curve"/>
      <point x="20.9624" y="-211" type="line"/>
      <point x="58.796" y="-217"/>
      <point x="82.7968" y="-220"/>
      <point x="102.28" y="-220" type="curve" smooth="yes"/>
      <point x="173.729" y="-220"/>
      <point x="237.423" y="-184.475"/>
    </contour>
  </outline>
  <guideline angle="0" x="0" y="-53"/>
  <guideline angle="0" x="0" y="-73"/>
</glyph>
<glyph name="onesuperior" format="2">
  <advance width="290"/>
  <unicode hex="00B9"/>
  <outline>
    <contour>
      <point x="213.508" y="343" type="line"/>
      <point x="287.186" y="722" type="line"/>
      <point x="223.186" y="722" type="line"/>
      <point x="207.657" y="710.526" type="line" smooth="yes"/>
      <point x="190.34" y="697.731"/>
      <point x="138.66" y="673"/>
      <point x="115.105" y="665" type="curve"/>
      <point x="104.413" y="610" type="line"/>
      <point x="134.557" y="616.964"/>
      <point x="172.326" y="632.853"/>
      <point x="210.744" y="658" type="curve"/>
      <point x="149.508" y="343" type="line"/>
    </contour>
  </outline>
</glyph>
<glyph name="ordmasculine" format="2">
  <advance width="418"/>
  <unicode hex="00BA"/>
  <outline>
    <contour>
      <point x="63.1756" y="477.253" type="curve" smooth="yes"/>
      <point x="63.1756" y="393.542"/>
      <point x="113.509" y="341"/>
      <point x="204.285" y="341" type="curve" smooth="yes"/>
      <point x="334.18" y="341"/>
      <point x="417.192" y="451.84"/>
      <point x="417.192" y="574.265" type="curve" smooth="yes"/>
      <point x="417.192" y="658.256"/>
      <point x="366.727" y="710"/>
      <point x="276.019" y="710" type="curve" smooth="yes"/>
      <point x="146.473" y="710"/>
      <point x="63.1756" y="599.504"/>
    </contour>
    <contour>
      <point x="266.077" y="664" type="curve" smooth="yes"/>
      <point x="323.783" y="664"/>
      <point x="348.976" y="619.079"/>
      <point x="348.976" y="564.138" type="curve" smooth="yes"/>
      <point x="348.976" y="486.568"/>
      <point x="300.836" y="386"/>
      <point x="213.033" y="386" type="curve" smooth="yes"/>
      <point x="154.546" y="386"/>
      <point x="129.068" y="430.212"/>
      <point x="129.068" y="485.401" type="curve" smooth="yes"/>
      <point x="129.068" y="562.926"/>
      <point x="178.668" y="664"/>
    </contour>
    <contour>
      <point x="11.0398" y="242" type="line"/>
      <point x="364.04" y="242" type="line"/>
      <point x="371.233" y="279" type="line"/>
      <point x="18.2326" y="279" type="line"/>
    </contour>
  </outline>
</glyph>
<glyph name="guillemotright" format="2">
  <advance width="569"/>
  <unicode hex="00BB"/>
  <outline>
    <contour>
      <point x="60.6357" y="57" type="line"/>
      <point x="138.636" y="57" type="line"/>
      <point x="313.54" y="252" type="line"/>
      <point x="214.444" y="447" type="line"/>
      <point x="136.444" y="447" type="line"/>
      <point x="222.842" y="241.78" type="line"/>
      <point x="226.816" y="262.22" type="line"/>
    </contour>
    <contour>
      <point x="255.636" y="57" type="line"/>
      <point x="333.636" y="57" type="line"/>
      <point x="508.54" y="252" type="line"/>
      <point x="409.444" y="447" type="line"/>
      <point x="331.444" y="447" type="line"/>
      <point x="417.842" y="241.78" type="line"/>
      <point x="421.816" y="262.22" type="line"/>
    </contour>
  </outline>
</glyph>
<glyph name="onequarter" format="2">
  <advance width="799"/>
  <unicode hex="00BC"/>
  <outline>
    <component base="onesuperior"/>
    <contour>
      <point x="688.532" y="736" type="line"/>
      <point x="619.532" y="736" type="line"/>
      <point x="47.7468" y="-14" type="line"/>
      <point x="116.747" y="-14" type="line"/>
    </contour>
    <contour>
      <point x="426.453" y="139.323" type="line"/>
      <point x="597.481" y="323.677" type="line"/>
      <point x="590.836" y="326" type="line"/>
      <point x="527.468" y="0" type="line"/>
      <point x="591.468" y="0" type="line"/>
      <point x="667.276" y="390" type="line"/>
      <point x="597.276" y="390" type="line"/>
      <point x="376.233" y="147.981" type="line"/>
      <point x="365.934" y="95" type="line"/>
      <point x="690.934" y="95" type="line"/>
      <point x="701.431" y="149" type="line"/>
      <point x="423.431" y="149" type="line"/>
    </contour>
  </outline>
  <guideline angle="53.8807" x="471" y="139"/>
  <guideline angle="234.284" x="593" y="390"/>
  <guideline angle="0" x="0" y="722"/>
</glyph>
<glyph name="onehalf" format="2">
  <advance width="799"/>
  <unicode hex="00BD"/>
  <outline>
    <component base="onesuperior"/>
    <component base="twosuperior" xOffset="358.688" yOffset="-341.145"/>
    <contour>
      <point x="683.532" y="736" type="line"/>
      <point x="614.532" y="736" type="line"/>
      <point x="42.7468" y="-14" type="line"/>
      <point x="111.747" y="-14" type="line"/>
    </contour>
  </outline>
  <guideline angle="0" x="0" y="0"/>
</glyph>
<glyph name="threequarters" format="2">
  <advance width="799"/>
  <unicode hex="00BE"/>
  <outline>
    <contour>
      <point x="47.3279" y="452" type="line"/>
      <point x="46.1143" y="443.352"/>
      <point x="45.4915" y="435.188"/>
      <point x="45.4482" y="427.502" type="curve" smooth="yes"/>
      <point x="45.0778" y="361.78"/>
      <point x="87.0765" y="331"/>
      <point x="164.373" y="331" type="curve" smooth="yes"/>
      <point x="251.104" y="331"/>
      <point x="361.335" y="369.753"/>
      <point x="361.335" y="460.963" type="curve" smooth="yes"/>
      <point x="361.335" y="505.712"/>
      <point x="333.935" y="534.292"/>
      <point x="283.017" y="542.617" type="curve"/>
      <point x="282.348" y="538.507" type="line"/>
      <point x="341.311" y="546.378"/>
      <point x="379.43" y="589.722"/>
      <point x="379.43" y="644.393" type="curve" smooth="yes"/>
      <point x="379.43" y="701.84"/>
      <point x="337.343" y="734"/>
      <point x="263.441" y="734" type="curve" smooth="yes"/>
      <point x="175.467" y="734"/>
      <point x="108.285" y="688.426"/>
      <point x="95.7614" y="624" type="curve"/>
      <point x="159.761" y="624" type="line"/>
      <point x="172.694" y="661.388"/>
      <point x="200.851" y="676.648"/>
      <point x="240.077" y="676.648" type="curve" smooth="yes"/>
      <point x="280.884" y="676.648"/>
      <point x="302.263" y="660.134"/>
      <point x="302.263" y="628.511" type="curve" smooth="yes"/>
      <point x="302.263" y="582.168"/>
      <point x="256.345" y="562.824"/>
      <point x="212.135" y="562.824" type="curve" smooth="yes"/>
      <point x="191.87" y="562.824" type="line"/>
      <point x="181.573" y="508.824" type="line"/>
      <point x="198.373" y="508.824" type="line" smooth="yes"/>
      <point x="261.695" y="508.824"/>
      <point x="292.682" y="488.412"/>
      <point x="292.682" y="455.249" type="curve" smooth="yes"/>
      <point x="292.682" y="405.434"/>
      <point x="225.059" y="390"/>
      <point x="172.106" y="390" type="curve" smooth="yes"/>
      <point x="136.411" y="390"/>
      <point x="110.891" y="397.013"/>
      <point x="110.891" y="430.995" type="curve" smooth="yes"/>
      <point x="110.891" y="438.633"/>
      <point x="112.18" y="448.9"/>
      <point x="113.328" y="452" type="curve"/>
    </contour>
    <contour>
      <point x="732.532" y="736" type="line"/>
      <point x="663.532" y="736" type="line"/>
      <point x="91.7468" y="-14" type="line"/>
      <point x="160.747" y="-14" type="line"/>
    </contour>
    <contour>
      <point x="426.453" y="139.323" type="line"/>
      <point x="597.481" y="323.677" type="line"/>
      <point x="590.836" y="326" type="line"/>
      <point x="527.468" y="0" type="line"/>
      <point x="591.468" y="0" type="line"/>
      <point x="667.276" y="390" type="line"/>
      <point x="597.276" y="390" type="line"/>
      <point x="376.233" y="147.981" type="line"/>
      <point x="365.934" y="95" type="line"/>
      <point x="690.934" y="95" type="line"/>
      <point x="701.431" y="149" type="line"/>
      <point x="423.431" y="149" type="line"/>
    </contour>
  </outline>
</glyph>
<glyph name="AE" format="2">
  <advance width="943"/>
  <unicode hex="00C6"/>
  <anchor x="560" y="797" name="top"/>
  <outline>
    <contour>
      <point x="-59.1744" y="0" type="line"/>
      <point x="46.8256" y="0" type="line"/>
      <point x="520.992" y="644.717" type="line"/>
      <point x="536.016" y="722" type="line"/>
      <point x="464.182" y="722" type="line"/>
    </contour>
    <contour>
      <point x="177.345" y="193" type="line"/>
      <point x="438.345" y="193" type="line"/>
      <point x="455.258" y="280" type="line"/>
      <point x="239.258" y="280" type="line"/>
    </contour>
    <contour>
      <point x="484.826" y="0" type="line"/>
      <point x="841.826" y="0" type="line"/>
      <point x="858.738" y="87" type="line"/>
      <point x="501.738" y="87" type="line"/>
    </contour>
    <contour>
      <point x="548.2" y="326" type="line"/>
      <point x="885.2" y="326" type="line"/>
      <point x="902.113" y="413" type="line"/>
      <point x="565.113" y="413" type="line"/>
    </contour>
    <contour>
      <point x="608.276" y="635.032" type="line"/>
      <point x="945.276" y="635.032" type="line"/>
      <point x="962.189" y="722.032" type="line"/>
      <point x="625.189" y="722.032" type="line"/>
    </contour>
    <contour>
      <point x="395.659" y="0" type="line"/>
      <point x="495.659" y="0" type="line"/>
      <point x="636.016" y="722" type="line"/>
      <point x="536.016" y="722" type="line"/>
    </contour>
  </outline>
</glyph>
<glyph name="multiply" format="2">
  <advance width="640"/>
  <unicode hex="00D7"/>
  <outline>
    <contour>
      <point x="8.01385" y="69" type="line"/>
      <point x="39.433" y="30" type="line"/>
      <point x="637.818" y="531" type="line"/>
      <point x="606.398" y="570" type="line"/>
    </contour>
    <contour>
      <point x="501.433" y="30" type="line"/>
      <point x="548.014" y="69" type="line"/>
      <point x="144.398" y="570" type="line"/>
      <point x="97.8175" y="531" type="line"/>
    </contour>
  </outline>
  <guideline angle="135" x="590" y="69"/>
  <guideline angle="315" x="50" y="531"/>
  <guideline angle="225" x="551" y="570"/>
  <guideline angle="45" x="89" y="30"/>
  <guideline angle="225" x="89" y="570"/>
  <guideline angle="135" x="590" y="531"/>
  <guideline angle="45" x="551" y="30"/>
  <guideline angle="315" x="50" y="69"/>
  <guideline angle="0" x="0" y="300"/>
  <guideline angle="90" x="320" y="0"/>
</glyph>
<glyph name="Thorn" format="2">
  <advance width="584"/>
  <unicode hex="00DE"/>
  <outline>
    <contour>
      <point x="160.165" y="172" type="line"/>
      <point x="278.165" y="172" type="line" smooth="yes"/>
      <point x="457.518" y="172"/>
      <point x="603.426" y="234.468"/>
      <point x="603.426" y="435.351" type="curve" smooth="yes"/>
      <point x="603.426" y="559.256"/>
      <point x="499.169" y="588"/>
      <point x="359.027" y="588" type="curve" smooth="yes"/>
      <point x="241.027" y="588" type="line"/>
      <point x="224.116" y="501" type="line"/>
      <point x="345.116" y="501" type="line" smooth="yes"/>
      <point x="440.628" y="501"/>
      <point x="503.705" y="483.011"/>
      <point x="503.705" y="410.376" type="curve" smooth="yes"/>
      <point x="503.705" y="283.337"/>
      <point x="404.867" y="260"/>
      <point x="298.27" y="260" type="curve" smooth="yes"/>
      <point x="177.27" y="260" type="line"/>
    </contour>
    <contour>
      <point x="40.7315" y="0" type="line"/>
      <point x="141.732" y="0" type="line"/>
      <point x="282.268" y="723" type="line"/>
      <point x="181.268" y="723" type="line"/>
    </contour>
  </outline>
</glyph>
<glyph name="germandbls" format="2">
  <advance width="619"/>
  <unicode hex="00DF"/>
  <outline>
    <contour>
      <point x="40.6958" y="-0.3284" type="line"/>
      <point x="130.696" y="-0.3284" type="line"/>
      <point x="231.163" y="516.531" type="line" smooth="yes"/>
      <point x="249.421" y="610.458"/>
      <point x="302.933" y="659"/>
      <point x="388.219" y="659" type="curve" smooth="yes"/>
      <point x="458.218" y="659"/>
      <point x="493.431" y="625.947"/>
      <point x="482.63" y="570.38" type="curve" smooth="yes"/>
      <point x="465.395" y="481.71"/>
      <point x="339.123" y="490.601"/>
      <point x="317.33" y="378.489" type="curve" smooth="yes"/>
      <point x="315.961" y="371.444"/>
      <point x="315.316" y="364.84"/>
      <point x="315.316" y="358.627" type="curve" smooth="yes"/>
      <point x="315.316" y="257.492"/>
      <point x="486.235" y="260.062"/>
      <point x="486.235" y="156.477" type="curve" smooth="yes"/>
      <point x="486.235" y="110.418"/>
      <point x="453.771" y="51"/>
      <point x="402.673" y="51" type="curve" smooth="yes"/>
      <point x="344.767" y="51"/>
      <point x="316.277" y="72.0018"/>
      <point x="316.277" y="114.981" type="curve" smooth="yes"/>
      <point x="316.277" y="122.423"/>
      <point x="317.131" y="130.525"/>
      <point x="318.835" y="139.29" type="curve"/>
      <point x="224.835" y="139.29" type="line"/>
      <point x="222.625" y="127.919"/>
      <point x="221.542" y="117.046"/>
      <point x="221.542" y="106.718" type="curve" smooth="yes"/>
      <point x="221.542" y="32.1563"/>
      <point x="277.946" y="-14"/>
      <point x="373.534" y="-14" type="curve" smooth="yes"/>
      <point x="490.324" y="-14"/>
      <point x="580.15" y="64.9404"/>
      <point x="580.15" y="183.378" type="curve" smooth="yes"/>
      <point x="580.15" y="318.92"/>
      <point x="403.216" y="321.31"/>
      <point x="416.421" y="389.242" type="curve" smooth="yes"/>
      <point x="427.972" y="448.668"/>
      <point x="554.628" y="452.041"/>
      <point x="579.369" y="579.324" type="curve" smooth="yes"/>
      <point x="581.698" y="591.305"/>
      <point x="582.85" y="602.61"/>
      <point x="582.85" y="613.23" type="curve" smooth="yes"/>
      <point x="582.85" y="691.904"/>
      <point x="519.592" y="733"/>
      <point x="402.581" y="733" type="curve" smooth="yes"/>
      <point x="269.252" y="733"/>
      <point x="168.423" y="656.77"/>
      <point x="145.454" y="538.604" type="curve" smooth="yes"/>
    </contour>
  </outline>
</glyph>
<glyph name="ae" format="2">
  <advance width="905"/>
  <unicode hex="00E6"/>
  <outline>
    <contour>
      <point x="13.7625" y="110.265" type="curve" smooth="yes"/>
      <point x="13.7625" y="26.349"/>
      <point x="84.7839" y="-14"/>
      <point x="176.517" y="-14" type="curve" smooth="yes"/>
      <point x="326.517" y="-14"/>
      <point x="410.929" y="91"/>
      <point x="428.733" y="126" type="curve"/>
      <point x="429.431" y="37"/>
      <point x="495.517" y="-14"/>
      <point x="599.012" y="-14" type="curve" smooth="yes"/>
      <point x="718.517" y="-14"/>
      <point x="804.736" y="54"/>
      <point x="837.759" y="157" type="curve"/>
      <point x="742.759" y="157" type="line"/>
      <point x="714.151" y="87"/>
      <point x="665.153" y="51"/>
      <point x="605.285" y="51" type="curve" smooth="yes"/>
      <point x="527.934" y="51"/>
      <point x="491.39" y="111.097"/>
      <point x="491.39" y="186.901" type="curve" smooth="yes"/>
      <point x="491.39" y="203.346"/>
      <point x="493.11" y="220.53"/>
      <point x="496.506" y="238" type="curve"/>
      <point x="861.006" y="238" type="line"/>
      <point x="869.171" y="280" type="line" smooth="yes"/>
      <point x="873.103" y="300.226"/>
      <point x="875.071" y="319.751"/>
      <point x="875.071" y="338.302" type="curve" smooth="yes"/>
      <point x="875.071" y="438.984"/>
      <point x="817.106" y="511"/>
      <point x="700.577" y="511" type="curve" smooth="yes"/>
      <point x="597.577" y="511"/>
      <point x="531.996" y="472"/>
      <point x="485.055" y="390" type="curve"/>
      <point x="467.996" y="472"/>
      <point x="418.772" y="512"/>
      <point x="324.772" y="512" type="curve" smooth="yes"/>
      <point x="198.212" y="512"/>
      <point x="107.024" y="467"/>
      <point x="89.3331" y="376" type="curve"/>
      <point x="182.333" y="376" type="line"/>
      <point x="192.053" y="426"/>
      <point x="235.136" y="447"/>
      <point x="308.136" y="447" type="curve" smooth="yes"/>
      <point x="377.265" y="447"/>
      <point x="411.943" y="405.378"/>
      <point x="411.943" y="341.778" type="curve" smooth="yes"/>
      <point x="411.943" y="329.017"/>
      <point x="410.547" y="315.372"/>
      <point x="407.753" y="301" type="curve"/>
      <point x="384.142" y="303"/>
      <point x="330.92" y="307"/>
      <point x="289.672" y="307" type="curve" smooth="yes"/>
      <point x="163.215" y="307"/>
      <point x="13.7626" y="260.636"/>
    </contour>
    <contour>
      <point x="111.097" y="124.095" type="curve" smooth="yes"/>
      <point x="111.097" y="229.109"/>
      <point x="245.318" y="247"/>
      <point x="332.961" y="247" type="curve" smooth="yes"/>
      <point x="350.048" y="247"/>
      <point x="376.13" y="246.32"/>
      <point x="401.478" y="243" type="curve"/>
      <point x="397.979" y="225" type="line" smooth="yes"/>
      <point x="376.983" y="117"/>
      <point x="316.153" y="51"/>
      <point x="202.153" y="51" type="curve" smooth="yes"/>
      <point x="151.38" y="51"/>
      <point x="111.097" y="76.3904"/>
    </contour>
    <contour>
      <point x="774.142" y="303" type="curve"/>
      <point x="512.142" y="303" type="line"/>
      <point x="532.583" y="367"/>
      <point x="588.135" y="447"/>
      <point x="680.699" y="447" type="curve" smooth="yes"/>
      <point x="752.513" y="447"/>
      <point x="776.121" y="398.847"/>
      <point x="775.975" y="335.06" type="curve" smooth="yes"/>
      <point x="775.952" y="324.737"/>
      <point x="775.306" y="314.004"/>
    </contour>
  </outline>
</glyph>
<glyph name="eth" format="2">
  <advance width="587"/>
  <unicode hex="00F0"/>
  <outline>
    <contour>
      <point x="18.0825" y="177.382" type="curve" smooth="yes"/>
      <point x="18.0825" y="59.5045"/>
      <point x="84.3781" y="-13"/>
      <point x="215.57" y="-13" type="curve" smooth="yes"/>
      <point x="415.571" y="-13"/>
      <point x="524.247" y="153.49"/>
      <point x="524.247" y="330.275" type="curve" smooth="yes"/>
      <point x="524.247" y="508.457"/>
      <point x="414.054" y="650.887"/>
      <point x="210.338" y="734" type="curve"/>
      <point x="154.701" y="705" type="line"/>
      <point x="230.507" y="671.363"/>
      <point x="374.632" y="554.613"/>
      <point x="388.525" y="499.062" type="curve"/>
      <point x="391.649" y="502.904" type="line"/>
      <point x="385.428" y="507.775"/>
      <point x="343.536" y="513"/>
      <point x="320.38" y="513" type="curve" smooth="yes"/>
      <point x="123.902" y="513"/>
      <point x="18.0825" y="357.6"/>
    </contour>
    <contour>
      <point x="311.706" y="443" type="curve" smooth="yes"/>
      <point x="390.85" y="443"/>
      <point x="427.928" y="388.028"/>
      <point x="427.928" y="306.968" type="curve" smooth="yes"/>
      <point x="427.928" y="197.659"/>
      <point x="360.505" y="57"/>
      <point x="229.577" y="57" type="curve" smooth="yes"/>
      <point x="146.317" y="57"/>
      <point x="110.445" y="113.881"/>
      <point x="110.445" y="191.005" type="curve" smooth="yes"/>
      <point x="110.445" y="301.721"/>
      <point x="184.372" y="443"/>
    </contour>
    <contour>
      <point x="105.682" y="566" type="line"/>
      <point x="116.323" y="523" type="line"/>
      <point x="519.093" y="690.504" type="line"/>
      <point x="505.949" y="732" type="line"/>
    </contour>
  </outline>
  <guideline angle="210.114" x="139" y="734"/>
  <guideline angle="204.28" x="435" y="732"/>
  <guideline angle="204.28" x="435" y="732"/>
  <guideline angle="293.839" x="67" y="566"/>
  <guideline angle="117.121" x="456" y="691"/>
</glyph>
<glyph name="divide" format="2">
  <advance width="1000"/>
  <unicode hex="00F7"/>
  <outline>
    <contour>
      <point x="800.778" y="265" type="line"/>
      <point x="814.384" y="335" type="line"/>
      <point x="214.384" y="335" type="line"/>
      <point x="200.778" y="265" type="line"/>
    </contour>
    <contour>
      <point x="410.996" y="78.3796" type="line"/>
      <point x="518.996" y="78.3796" type="line"/>
      <point x="542.905" y="201.38" type="line"/>
      <point x="434.905" y="201.38" type="line"/>
    </contour>
    <contour>
      <point x="473.319" y="399" type="line"/>
      <point x="581.319" y="399" type="line"/>
      <point x="605.227" y="522" type="line"/>
      <point x="497.227" y="522" type="line"/>
    </contour>
  </outline>
</glyph>
<glyph name="oslash" format="2">
  <advance width="591"/>
  <unicode hex="00F8"/>
  <outline>
    <contour>
      <point x="80.7594" y="-12" type="line"/>
      <point x="568.817" y="512" type="line"/>
      <point x="489.468" y="512" type="line"/>
      <point x="2.4901" y="-12" type="line"/>
    </contour>
    <contour>
      <point x="37.9786" y="182.93" type="curve" smooth="yes"/>
      <point x="37.9786" y="61.4526"/>
      <point x="113.576" y="-12"/>
      <point x="244.906" y="-12" type="curve" smooth="yes"/>
      <point x="431.147" y="-12"/>
      <point x="551.818" y="141.143"/>
      <point x="551.818" y="318.116" type="curve" smooth="yes"/>
      <point x="551.818" y="438.969"/>
      <point x="477.724" y="512"/>
      <point x="346.771" y="512" type="curve" smooth="yes"/>
      <point x="161.138" y="512"/>
      <point x="37.9787" y="360.241"/>
    </contour>
    <contour>
      <point x="333.135" y="447" type="curve" smooth="yes"/>
      <point x="414.176" y="447"/>
      <point x="458.148" y="404.968"/>
      <point x="458.148" y="318.243" type="curve" smooth="yes"/>
      <point x="458.148" y="194.86"/>
      <point x="398.994" y="53"/>
      <point x="256.542" y="53" type="curve" smooth="yes"/>
      <point x="175.502" y="53"/>
      <point x="131.53" y="95.032"/>
      <point x="131.53" y="181.757" type="curve" smooth="yes"/>
      <point x="131.53" y="305.14"/>
      <point x="190.683" y="447"/>
    </contour>
  </outline>
  <guideline angle="0" x="0" y="512"/>
  <guideline angle="0" x="0" y="-12"/>
</glyph>
<glyph name="thorn" format="2">
  <advance width="627"/>
  <unicode hex="00FE"/>
  <outline>
    <contour>
      <point x="10.9526" y="-200" type="line"/>
      <point x="100.953" y="-200" type="line"/>
      <point x="280.171" y="722" type="line"/>
      <point x="190.171" y="722" type="line"/>
    </contour>
    <contour>
      <point x="141.901" y="109.117" type="line"/>
      <point x="168.793" y="26.8856"/>
      <point x="221.536" y="-13"/>
      <point x="305.263" y="-13" type="curve" smooth="yes"/>
      <point x="478.533" y="-13"/>
      <point x="596.306" y="161.62"/>
      <point x="596.306" y="327.668" type="curve" smooth="yes"/>
      <point x="596.306" y="442.774"/>
      <point x="520.181" y="513"/>
      <point x="403.546" y="513" type="curve" smooth="yes"/>
      <point x="320.235" y="513"/>
      <point x="244.977" y="476.532"/>
      <point x="199.781" y="406.326" type="curve"/>
    </contour>
    <contour>
      <point x="377.077" y="455" type="curve" smooth="yes"/>
      <point x="450.653" y="455"/>
      <point x="498.766" y="403.97"/>
      <point x="498.766" y="310.023" type="curve" smooth="yes"/>
      <point x="498.766" y="199.9"/>
      <point x="432.657" y="52"/>
      <point x="298.303" y="52" type="curve" smooth="yes"/>
      <point x="229.102" y="52"/>
      <point x="184.948" y="114.055"/>
      <point x="184.948" y="202.914" type="curve" smooth="yes"/>
      <point x="184.948" y="313.925"/>
      <point x="254.744" y="455"/>
    </contour>
  </outline>
</glyph>
<glyph name="hbar" format="2">
  <advance width="583"/>
  <unicode hex="0127"/>
  <outline>
    <component base="h"/>
    <contour>
      <point x="109.344" y="620" type="line"/>
      <point x="98.6536" y="565" type="line"/>
      <point x="463.654" y="565" type="line"/>
      <point x="474.344" y="620" type="line"/>
    </contour>
  </outline>
</glyph>
<glyph name="kgreenlandic" format="2">
  <advance width="451"/>
  <unicode hex="0138"/>
  <outline>
    <contour>
      <point x="100.405" y="0" type="line"/>
      <point x="197.595" y="500" type="line"/>
      <point x="101.764" y="470" type="line"/>
      <point x="10.4049" y="0" type="line"/>
    </contour>
    <contour>
      <point x="399.405" y="0" type="line"/>
      <point x="232.775" y="291.527" type="line"/>
      <point x="228.389" y="273.158" type="line"/>
      <point x="480.595" y="500" type="line"/>
      <point x="367.595" y="500" type="line"/>
      <point x="124.685" y="280.736" type="line"/>
      <point x="280.405" y="0" type="line"/>
    </contour>
  </outline>
  <guideline angle="198.435" x="149" y="500"/>
</glyph>
<glyph name="Lslash" format="2">
  <advance width="487"/>
  <unicode hex="0141"/>
  <outline>
    <component base="L" xOffset="32.3426"/>
    <contour>
      <point x="216.18" y="310.874" type="line"/>
      <point x="375.786" y="440.414" type="line"/>
      <point x="391.726" y="522.414" type="line"/>
      <point x="231.965" y="391.823" type="line"/>
    </contour>
    <contour>
      <point x="4.27273" y="136.043" type="line"/>
      <point x="130.525" y="240.231" type="line"/>
      <point x="146.035" y="320.282" type="line"/>
      <point x="19.6288" y="215.043" type="line"/>
    </contour>
  </outline>
</glyph>
<glyph name="lslash" format="2">
  <advance width="333"/>
  <unicode hex="0142"/>
  <outline>
    <contour>
      <point x="25.9764" y="294" type="line"/>
      <point x="10.6204" y="215" type="line"/>
      <point x="336.714" y="483" type="line"/>
      <point x="352.653" y="565" type="line"/>
    </contour>
    <contour>
      <point x="63.8288" y="0.001" type="line"/>
      <point x="163.829" y="0.001" type="line"/>
      <point x="304.171" y="722.001" type="line"/>
      <point x="204.171" y="722.001" type="line"/>
    </contour>
  </outline>
</glyph>
<glyph name="Eng" format="2">
  <advance width="745"/>
  <unicode hex="014A"/>
  <outline>
    <contour>
      <point x="210.915" y="722" type="line"/>
      <point x="460.829" y="0" type="line"/>
      <point x="573.643" y="0" type="line"/>
      <point x="323.186" y="722" type="line"/>
    </contour>
    <contour>
      <point x="40.8287" y="0" type="line"/>
      <point x="140.829" y="0" type="line"/>
      <point x="281.186" y="722" type="line"/>
      <point x="181.186" y="722" type="line"/>
    </contour>
    <contour>
      <point x="503.829" y="0" type="line"/>
      <point x="603.829" y="0" type="line"/>
      <point x="744.186" y="722" type="line"/>
      <point x="644.186" y="722" type="line"/>
    </contour>
    <contour>
      <point x="293.032" y="-143" type="line"/>
      <point x="320.646" y="-181"/>
      <point x="362.953" y="-200"/>
      <point x="416.195" y="-200" type="curve" smooth="yes"/>
      <point x="505.29" y="-200"/>
      <point x="575.449" y="-146"/>
      <point x="591.777" y="-62" type="curve" smooth="yes"/>
      <point x="607.716" y="20" type="line"/>
      <point x="517.716" y="20" type="line"/>
      <point x="501.777" y="-62" type="line" smooth="yes"/>
      <point x="494.196" y="-101"/>
      <point x="464.559" y="-130"/>
      <point x="426.169" y="-130" type="curve" smooth="yes"/>
      <point x="398.559" y="-130"/>
      <point x="376.475" y="-115"/>
      <point x="361.112" y="-86" type="curve"/>
    </contour>
  </outline>
</glyph>
<glyph name="eng" format="2">
  <advance width="555"/>
  <unicode hex="014B"/>
  <outline>
    <contour>
      <point x="193.106" y="-143" type="line"/>
      <point x="220.582" y="-181"/>
      <point x="262.709" y="-200"/>
      <point x="319.485" y="-200" type="curve" smooth="yes"/>
      <point x="405.602" y="-200"/>
      <point x="475.762" y="-146"/>
      <point x="492.09" y="-62" type="curve" smooth="yes"/>
      <point x="513.86" y="50" type="line"/>
      <point x="423.86" y="50" type="line"/>
      <point x="402.09" y="-62" type="line" smooth="yes"/>
      <point x="394.509" y="-101"/>
      <point x="363.97" y="-130"/>
      <point x="327.115" y="-130" type="curve" smooth="yes"/>
      <point x="298.229" y="-130"/>
      <point x="276.243" y="-115"/>
      <point x="260.962" y="-86" type="curve"/>
    </contour>
    <contour>
      <point x="142.847" y="322.561" type="line"/>
      <point x="162.933" y="323" type="line"/>
      <point x="177.124" y="396"/>
      <point x="245.205" y="453"/>
      <point x="320.205" y="453" type="curve" smooth="yes"/>
      <point x="388.741" y="453"/>
      <point x="421.16" y="424.394"/>
      <point x="421.16" y="361.939" type="curve" smooth="yes"/>
      <point x="421.16" y="346.936"/>
      <point x="419.29" y="329.981"/>
      <point x="415.6" y="311" type="curve" smooth="yes"/>
      <point x="355.141" y="0" type="line"/>
      <point x="445.141" y="0" type="line"/>
      <point x="509.099" y="329" type="line" smooth="yes"/>
      <point x="512.913" y="348.618"/>
      <point x="514.817" y="366.659"/>
      <point x="514.817" y="383.127" type="curve" smooth="yes"/>
      <point x="514.817" y="469.907"/>
      <point x="461.931" y="513"/>
      <point x="356.869" y="513" type="curve" smooth="yes"/>
      <point x="292.869" y="513"/>
      <point x="228.51" y="483.769"/>
      <point x="184.9" y="436" type="curve" smooth="yes"/>
      <point x="159.489" y="408.165" type="line"/>
    </contour>
    <contour>
      <point x="100.405" y="0" type="line"/>
      <point x="197.605" y="500" type="line"/>
      <point x="107.605" y="500" type="line"/>
      <point x="10.4049" y="0" type="line"/>
    </contour>
  </outline>
  <guideline angle="90" x="180" y="0"/>
  <guideline angle="90" x="160" y="0"/>
  <guideline angle="0" x="0" y="-200"/>
  <guideline angle="0" x="0" y="-130"/>
  <guideline angle="45" x="-73" y="-143"/>
</glyph>
<glyph name="OE" format="2">
  <advance width="913"/>
  <unicode hex="0152"/>
  <outline>
    <component base="E" xOffset="375.343"/>
    <contour>
      <point x="30.8985" y="254.915" type="curve" smooth="yes"/>
      <point x="30.8985" y="94.4171"/>
      <point x="116.697" y="-12"/>
      <point x="297.33" y="-12" type="curve"/>
      <point x="314.435" y="76" type="line"/>
      <point x="188.022" y="76"/>
      <point x="133.515" y="141.545"/>
      <point x="133.651" y="257.838" type="curve" smooth="yes"/>
      <point x="133.864" y="438.991"/>
      <point x="214.321" y="646"/>
      <point x="425.232" y="646" type="curve"/>
      <point x="442.338" y="734" type="line"/>
      <point x="178.18" y="734"/>
      <point x="30.8985" y="495.814"/>
    </contour>
    <contour>
      <point x="425.232" y="646" type="line"/>
      <point x="492.213" y="646"/>
      <point x="542.054" y="639.249"/>
      <point x="575.816" y="614.679" type="curve"/>
      <point x="596.792" y="719.595" type="line"/>
      <point x="559.539" y="730.788"/>
      <point x="487.252" y="734"/>
      <point x="442.338" y="734" type="curve"/>
    </contour>
    <contour>
      <point x="297.33" y="-12" type="line"/>
      <point x="347.073" y="-12"/>
      <point x="420.405" y="-12.3653"/>
      <point x="455.77" y="2.80233" type="curve"/>
      <point x="477.146" y="112.772" type="line"/>
      <point x="435.359" y="77.5783"/>
      <point x="382.933" y="76"/>
      <point x="314.435" y="76" type="curve"/>
    </contour>
  </outline>
</glyph>
<glyph name="oe" format="2">
  <advance width="942"/>
  <unicode hex="0153"/>
  <outline>
    <contour>
      <point x="30.975" y="182.936" type="curve" smooth="yes"/>
      <point x="30.975" y="61.4549"/>
      <point x="106.574" y="-12"/>
      <point x="237.906" y="-12" type="curve" smooth="yes"/>
      <point x="424.146" y="-12"/>
      <point x="544.811" y="141.139"/>
      <point x="544.811" y="318.11" type="curve" smooth="yes"/>
      <point x="544.811" y="438.966"/>
      <point x="470.716" y="512"/>
      <point x="339.761" y="512" type="curve" smooth="yes"/>
      <point x="154.13" y="512"/>
      <point x="30.9751" y="360.244"/>
    </contour>
    <contour>
      <point x="326.127" y="447" type="curve" smooth="yes"/>
      <point x="407.168" y="447"/>
      <point x="451.141" y="404.966"/>
      <point x="451.141" y="318.238" type="curve" smooth="yes"/>
      <point x="451.141" y="194.857"/>
      <point x="391.992" y="53"/>
      <point x="249.541" y="53" type="curve" smooth="yes"/>
      <point x="168.499" y="53"/>
      <point x="124.526" y="95.0336"/>
      <point x="124.526" y="181.762" type="curve" smooth="yes"/>
      <point x="124.526" y="305.143"/>
      <point x="183.675" y="447"/>
    </contour>
    <contour>
      <point x="435.85" y="172.832" type="curve" smooth="yes"/>
      <point x="435.85" y="63.5964"/>
      <point x="491.202" y="-14"/>
      <point x="624.517" y="-14" type="curve" smooth="yes"/>
      <point x="751.517" y="-14"/>
      <point x="841.93" y="55"/>
      <point x="882.339" y="160" type="curve"/>
      <point x="786.339" y="160" type="line"/>
      <point x="768.288" y="98"/>
      <point x="716.152" y="51"/>
      <point x="645.152" y="51" type="curve" smooth="yes"/>
      <point x="567.219" y="51"/>
      <point x="529.754" y="106.857"/>
      <point x="529.754" y="183.238" type="curve" smooth="yes"/>
      <point x="529.754" y="199.965"/>
      <point x="531.551" y="217.676"/>
      <point x="535.112" y="236" type="curve"/>
      <point x="896.112" y="236" type="line"/>
      <point x="905.054" y="282" type="line" smooth="yes"/>
      <point x="909.257" y="303.624"/>
      <point x="911.341" y="324.025"/>
      <point x="911.341" y="343.07" type="curve" smooth="yes"/>
      <point x="911.341" y="448.205"/>
      <point x="847.831" y="512"/>
      <point x="726.761" y="512" type="curve" smooth="yes"/>
      <point x="537.054" y="512"/>
      <point x="435.85" y="345.486"/>
    </contour>
    <contour>
      <point x="547.747" y="301" type="line"/>
      <point x="566.796" y="399"/>
      <point x="636.127" y="447"/>
      <point x="714.127" y="447" type="curve" smooth="yes"/>
      <point x="796.368" y="447"/>
      <point x="818.754" y="393.221"/>
      <point x="818.754" y="341.048" type="curve" smooth="yes"/>
      <point x="818.754" y="327.244"/>
      <point x="817.187" y="313.553"/>
      <point x="814.747" y="301" type="curve"/>
    </contour>
  </outline>
</glyph>
<glyph name="tbar" format="2">
  <advance width="313"/>
  <unicode hex="0167"/>
  <outline>
    <contour>
      <point x="20.3934" y="248" type="line"/>
      <point x="260.393" y="248" type="line"/>
      <point x="273.028" y="313" type="line"/>
      <point x="33.0281" y="313" type="line"/>
    </contour>
    <contour>
      <point x="64.2909" y="73.4165" type="curve" smooth="yes"/>
      <point x="64.2909" y="16.7721"/>
      <point x="89.9543" y="-12"/>
      <point x="155.855" y="-12" type="curve" smooth="yes"/>
      <point x="184.855" y="-12"/>
      <point x="215.438" y="-9"/>
      <point x="245.187" y="0" type="curve"/>
      <point x="257.627" y="64" type="line"/>
      <point x="236.461" y="58"/>
      <point x="214.878" y="55"/>
      <point x="194.878" y="55" type="curve" smooth="yes"/>
      <point x="166.992" y="55"/>
      <point x="156.786" y="71.1562"/>
      <point x="156.786" y="97.5405" type="curve" smooth="yes"/>
      <point x="156.786" y="107.109"/>
      <point x="158.128" y="118.023"/>
      <point x="160.456" y="130" type="curve" smooth="yes"/>
      <point x="258.813" y="636" type="line"/>
      <point x="161.621" y="599" type="line"/>
      <point x="71.0396" y="133" type="line" smooth="yes"/>
      <point x="66.6783" y="110.563"/>
      <point x="64.2909" y="90.6933"/>
    </contour>
    <contour>
      <point x="204.742" y="435" type="line"/>
      <point x="329.742" y="435" type="line"/>
      <point x="342.377" y="500" type="line"/>
      <point x="217.377" y="500" type="line"/>
    </contour>
    <contour>
      <point x="39.7425" y="435" type="line"/>
      <point x="144.742" y="435" type="line"/>
      <point x="157.377" y="500" type="line"/>
      <point x="52.3772" y="500" type="line"/>
    </contour>
  </outline>
</glyph>
<glyph name="longs" format="2">
  <advance width="305"/>
  <unicode hex="017F"/>
  <outline>
    <contour>
      <point x="164.625" y="575" type="curve" smooth="yes"/>
      <point x="52.8568" y="0" type="line"/>
      <point x="142.857" y="0" type="line"/>
      <point x="254.237" y="573" type="line" smooth="yes"/>
      <point x="265.705" y="632"/>
      <point x="290.148" y="660"/>
      <point x="347.655" y="660" type="curve" smooth="yes"/>
      <point x="365.722" y="660"/>
      <point x="385.648" y="657.236"/>
      <point x="399.815" y="648" type="curve"/>
      <point x="414.199" y="722" type="line"/>
      <point x="395.56" y="729"/>
      <point x="369.396" y="732"/>
      <point x="342.22" y="732" type="curve" smooth="yes"/>
      <point x="238.143" y="732"/>
      <point x="186.59" y="688"/>
    </contour>
    <contour>
      <point x="165.047" y="500" type="line"/>
      <point x="50.047" y="500" type="line"/>
      <point x="37.4122" y="435" type="line"/>
      <point x="152.412" y="435" type="line"/>
    </contour>
  </outline>
</glyph>
<glyph name="florin" format="2">
  <advance width="503"/>
  <unicode hex="0192"/>
  <outline>
    <contour>
      <point x="37.2737" y="-3" type="line" smooth="yes"/>
      <point x="-9.11193" y="-103.015"/>
      <point x="-45.9677" y="-138"/>
      <point x="-106.201" y="-138" type="curve" smooth="yes"/>
      <point x="-128.968" y="-138"/>
      <point x="-140.996" y="-133"/>
      <point x="-148.246" y="-124" type="curve"/>
      <point x="-182.825" y="-199" type="line"/>
      <point x="-168.574" y="-208"/>
      <point x="-151.352" y="-212"/>
      <point x="-132.352" y="-212" type="curve" smooth="yes"/>
      <point x="-9.35182" y="-212"/>
      <point x="52.4535" y="-163.08"/>
      <point x="126.079" y="-4" type="curve" smooth="yes"/>
      <point x="364.896" y="512" type="line" smooth="yes"/>
      <point x="430.337" y="653.396"/>
      <point x="441.759" y="658"/>
      <point x="503.759" y="658" type="curve" smooth="yes"/>
      <point x="526.759" y="658"/>
      <point x="543.986" y="654.025"/>
      <point x="555.441" y="646.076" type="curve"/>
      <point x="592.173" y="721.863" type="line"/>
      <point x="571.197" y="729.857"/>
      <point x="548.847" y="732"/>
      <point x="525.143" y="732" type="curve" smooth="yes"/>
      <point x="380.143" y="732"/>
      <point x="360.524" y="693.981"/>
      <point x="293.437" y="549.331" type="curve" smooth="yes"/>
    </contour>
    <contour>
      <point x="169.95" y="499.5" type="line"/>
      <point x="140.315" y="434.5" type="line"/>
      <point x="449.315" y="434.5" type="line"/>
      <point x="478.95" y="499.5" type="line"/>
    </contour>
  </outline>
  <guideline angle="74.9736" x="198" y="-4"/>
  <guideline angle="254.922" x="227" y="435"/>
  <guideline angle="74.9736" x="198" y="-4"/>
  <guideline angle="254.922" x="227" y="435"/>
  <guideline angle="74.9736" x="198" y="-4"/>
  <guideline angle="254.922" x="227" y="435"/>
  <guideline angle="255.343" x="144" y="500"/>
  <guideline angle="75.3432" x="436" y="435"/>
  <guideline angle="0" x="0" y="500"/>
  <guideline angle="73.8557" x="501" y="646"/>
</glyph>
<glyph name="uni019E" format="2">
  <advance width="608"/>
  <unicode hex="019E"/>
  <outline>
    <contour>
      <point x="120.141" y="0" type="line"/>
      <point x="217.332" y="500" type="line"/>
      <point x="127.332" y="500" type="line"/>
      <point x="30.1414" y="0" type="line"/>
    </contour>
    <contour>
      <point x="162.841" y="322.561" type="line"/>
      <point x="182.926" y="323" type="line"/>
      <point x="197.116" y="396"/>
      <point x="265.196" y="453"/>
      <point x="340.196" y="453" type="curve" smooth="yes"/>
      <point x="408.734" y="453"/>
      <point x="441.153" y="424.393"/>
      <point x="441.153" y="361.935" type="curve" smooth="yes"/>
      <point x="441.153" y="346.934"/>
      <point x="439.283" y="329.98"/>
      <point x="435.594" y="311" type="curve" smooth="yes"/>
      <point x="375.141" y="0" type="line"/>
      <point x="465.141" y="0" type="line"/>
      <point x="529.093" y="329" type="line" smooth="yes"/>
      <point x="532.906" y="348.617"/>
      <point x="534.81" y="366.656"/>
      <point x="534.81" y="383.123" type="curve" smooth="yes"/>
      <point x="534.81" y="469.906"/>
      <point x="481.923" y="513"/>
      <point x="376.858" y="513" type="curve" smooth="yes"/>
      <point x="312.858" y="513"/>
      <point x="248.5" y="483.769"/>
      <point x="204.891" y="436" type="curve" smooth="yes"/>
      <point x="179.481" y="408.165" type="line"/>
    </contour>
    <contour>
      <point x="484.579" y="100" type="line"/>
      <point x="394.579" y="100" type="line"/>
      <point x="336.265" y="-200" type="line"/>
      <point x="426.265" y="-200" type="line"/>
    </contour>
  </outline>
</glyph>
<glyph name="uni01C2" format="2">
  <advance width="405"/>
  <unicode hex="01C2"/>
  <outline>
    <contour>
      <point x="80.968" y="0" type="line"/>
      <point x="180.968" y="0" type="line"/>
      <point x="324.032" y="736" type="line"/>
      <point x="224.032" y="736" type="line"/>
    </contour>
    <contour>
      <point x="47.1851" y="513" type="line"/>
      <point x="27.7471" y="413" type="line"/>
      <point x="393.747" y="413" type="line"/>
      <point x="413.185" y="513" type="line"/>
    </contour>
    <contour>
      <point x="10.2529" y="323" type="line"/>
      <point x="-9.18514" y="223" type="line"/>
      <point x="356.815" y="223" type="line"/>
      <point x="376.253" y="323" type="line"/>
    </contour>
  </outline>
</glyph>
<glyph name="uni01DD" format="2">
  <advance width="537"/>
  <unicode hex="01DD"/>
  <anchor x="206.299" y="-82" name="top"/>
  <anchor x="336.34" y="587" name="bottom"/>
  <anchor x="319.04" y="498" name="cedilla.bottom"/>
  <outline>
    <contour>
      <point x="506.435" y="325.175" type="curve" smooth="yes"/>
      <point x="506.435" y="434.407"/>
      <point x="451.084" y="512"/>
      <point x="317.771" y="512" type="curve" smooth="yes"/>
      <point x="190.771" y="512"/>
      <point x="100.358" y="443"/>
      <point x="59.9459" y="338" type="curve"/>
      <point x="155.946" y="338" type="line"/>
      <point x="173.999" y="400"/>
      <point x="226.135" y="447"/>
      <point x="297.135" y="447" type="curve" smooth="yes"/>
      <point x="375.067" y="447"/>
      <point x="412.531" y="391.145"/>
      <point x="412.531" y="314.767" type="curve" smooth="yes"/>
      <point x="412.531" y="298.039"/>
      <point x="410.734" y="280.326"/>
      <point x="407.171" y="262" type="curve"/>
      <point x="46.1714" y="262" type="line"/>
      <point x="37.229" y="216" type="line" smooth="yes"/>
      <point x="33.0249" y="194.374"/>
      <point x="30.9405" y="173.971"/>
      <point x="30.9405" y="154.925" type="curve" smooth="yes"/>
      <point x="30.9405" y="49.7927"/>
      <point x="94.4498" y="-14"/>
      <point x="215.517" y="-14" type="curve" smooth="yes"/>
      <point x="405.226" y="-14"/>
      <point x="506.435" y="152.518"/>
    </contour>
    <contour>
      <point x="394.535" y="197" type="line"/>
      <point x="375.484" y="99"/>
      <point x="306.153" y="51"/>
      <point x="228.153" y="51" type="curve" smooth="yes"/>
      <point x="145.914" y="51"/>
      <point x="123.528" y="104.776"/>
      <point x="123.528" y="156.949" type="curve" smooth="yes"/>
      <point x="123.528" y="170.753"/>
      <point x="125.095" y="184.446"/>
      <point x="127.535" y="197" type="curve"/>
    </contour>
  </outline>
</glyph>
<glyph name="dotlessj" format="2">
  <advance width="275"/>
  <unicode hex="0237"/>
  <anchor x="209" y="580" name="top"/>
  <outline>
    <contour>
      <point x="-47.4751" y="-200" type="line"/>
      <point x="-22.4751" y="-200" type="line" smooth="yes"/>
      <point x="47.5249" y="-200"/>
      <point x="106.107" y="-161"/>
      <point x="123.019" y="-74" type="curve" smooth="yes"/>
      <point x="234.605" y="500" type="line"/>
      <point x="144.605" y="500" type="line"/>
      <point x="38.8513" y="-44" type="line" smooth="yes"/>
      <point x="29.7145" y="-91"/>
      <point x="20.3553" y="-134"/>
      <point x="-9.64468" y="-134" type="curve" smooth="yes"/>
      <point x="-34.6447" y="-134" type="line"/>
    </contour>
  </outline>
</glyph>
<glyph name="uni0251" format="2">
  <advance width="591"/>
  <unicode hex="0251"/>
  <outline>
    <contour>
      <point x="125.718" y="195.414" type="curve" smooth="yes"/>
      <point x="125.718" y="109.386"/>
      <point x="169.722" y="52"/>
      <point x="237.088" y="52" type="curve" smooth="yes"/>
      <point x="345.09" y="52"/>
      <point x="408.632" y="199.503"/>
      <point x="408.632" y="299.922" type="curve" smooth="yes"/>
      <point x="408.632" y="385.481"/>
      <point x="362.504" y="448"/>
      <point x="293.481" y="448" type="curve" smooth="yes"/>
      <point x="185.848" y="448"/>
      <point x="125.718" y="295.976"/>
    </contour>
    <contour>
      <point x="30.3464" y="196.062" type="curve" smooth="yes"/>
      <point x="30.3464" y="379.248"/>
      <point x="146.295" y="512"/>
      <point x="306.292" y="512" type="curve" smooth="yes"/>
      <point x="372.021" y="512"/>
      <point x="419.272" y="482.149"/>
      <point x="446.617" y="428.904" type="curve"/>
      <point x="460.509" y="500.364" type="line"/>
      <point x="550.509" y="500.364" type="line"/>
      <point x="453.239" y="0" type="line"/>
      <point x="363.239" y="0" type="line"/>
      <point x="377.841" y="75.1168" type="line"/>
      <point x="322.857" y="17.7833"/>
      <point x="253.272" y="-12"/>
      <point x="196.236" y="-12" type="curve" smooth="yes"/>
      <point x="99.8364" y="-12"/>
      <point x="30.3464" y="73.0793"/>
    </contour>
  </outline>
</glyph>
<glyph name="uni0253" format="2">
  <advance width="569"/>
  <unicode hex="0253"/>
  <outline>
    <component base="uni0252" xOffset="-23"/>
    <contour>
      <point x="39.7213" y="380" type="line"/>
      <point x="129.721" y="380" type="line"/>
      <point x="154.16" y="505.724" type="line" smooth="yes"/>
      <point x="170.757" y="591.108"/>
      <point x="204.188" y="662"/>
      <point x="292.537" y="662" type="curve" smooth="yes"/>
      <point x="333.537" y="662"/>
      <point x="364.593" y="652"/>
      <point x="385.511" y="631" type="curve"/>
      <point x="449.619" y="683" type="line"/>
      <point x="424.033" y="716"/>
      <point x="375.143" y="732"/>
      <point x="303.143" y="732" type="curve" smooth="yes"/>
      <point x="189.796" y="732"/>
      <point x="92.9406" y="653.789"/>
      <point x="71.7941" y="545" type="curve" smooth="yes"/>
    </contour>
  </outline>
</glyph>
<glyph name="uni0255" format="2">
  <advance width="555"/>
  <unicode hex="0255"/>
  <outline>
    <contour>
      <point x="234.88" y="-12" type="curve" smooth="yes"/>
      <point x="325.12" y="-12"/>
      <point x="482.484" y="36.5517"/>
      <point x="482.484" y="143.844" type="curve" smooth="yes"/>
      <point x="482.484" y="199.71"/>
      <point x="439.82" y="234"/>
      <point x="377.512" y="234" type="curve" smooth="yes"/>
      <point x="244.915" y="234"/>
      <point x="81.2537" y="79.2874"/>
      <point x="-14.6245" y="-133" type="curve"/>
      <point x="32.5342" y="-150" type="line"/>
      <point x="122.359" y="29.2151"/>
      <point x="265.673" y="175"/>
      <point x="348.139" y="175" type="curve" smooth="yes"/>
      <point x="376.183" y="175"/>
      <point x="392.554" y="158.141"/>
      <point x="392.554" y="133.569" type="curve" smooth="yes"/>
      <point x="392.554" y="80.8718"/>
      <point x="317.259" y="52"/>
      <point x="271.946" y="52" type="curve" smooth="yes"/>
      <point x="173.209" y="52"/>
      <point x="142.922" y="99.3756"/>
      <point x="142.922" y="175.562" type="curve" smooth="yes"/>
      <point x="142.922" y="273.619"/>
      <point x="193.092" y="447"/>
      <point x="320.804" y="447" type="curve" smooth="yes"/>
      <point x="379.032" y="447"/>
      <point x="406.283" y="410.958"/>
      <point x="406.464" y="359.662" type="curve" smooth="yes"/>
      <point x="406.486" y="353.64"/>
      <point x="406.134" y="347.408"/>
      <point x="405.415" y="341" type="curve"/>
      <point x="500.522" y="341" type="line"/>
      <point x="501.692" y="350.515"/>
      <point x="502.336" y="359.647"/>
      <point x="502.336" y="368.393" type="curve" smooth="yes"/>
      <point x="502.336" y="462.599"/>
      <point x="439.53" y="512"/>
      <point x="340.84" y="512" type="curve" smooth="yes"/>
      <point x="152.313" y="512"/>
      <point x="48.6562" y="331.725"/>
      <point x="48.6562" y="162.647" type="curve" smooth="yes"/>
      <point x="48.6562" y="56.366"/>
      <point x="104.108" y="-12"/>
    </contour>
  </outline>
</glyph>
<glyph name="uni0256" format="2">
  <advance width="582"/>
  <unicode hex="0256"/>
  <outline>
    <component base="d" xOffset="-0.385814"/>
    <contour>
      <point x="395.876" y="134" type="line"/>
      <point x="358.166" y="-60" type="line" smooth="yes"/>
      <point x="356.048" y="-70.8931"/>
      <point x="355.018" y="-81.2986"/>
      <point x="355.018" y="-91.1596" type="curve" smooth="yes"/>
      <point x="355.018" y="-157.34"/>
      <point x="401.429" y="-199"/>
      <point x="480.648" y="-199" type="curve" smooth="yes"/>
      <point x="534.147" y="-199"/>
      <point x="583.84" y="-180"/>
      <point x="626.227" y="-142" type="curve"/>
      <point x="580.306" y="-85" type="line"/>
      <point x="553.669" y="-114"/>
      <point x="525.754" y="-129"/>
      <point x="498.444" y="-129" type="curve" smooth="yes"/>
      <point x="467.34" y="-129"/>
      <point x="446.2" y="-109.542"/>
      <point x="446.317" y="-77.0997" type="curve" smooth="yes"/>
      <point x="446.335" y="-72.0407"/>
      <point x="446.87" y="-66.6659"/>
      <point x="447.972" y="-61" type="curve" smooth="yes"/>
      <point x="485.876" y="134" type="line"/>
    </contour>
  </outline>
  <guideline angle="135" x="716" y="-142"/>
  <guideline angle="0" x="0" y="-172"/>
</glyph>
<glyph name="uni0257" format="2">
  <advance width="590"/>
  <unicode hex="0257"/>
  <outline>
    <contour>
      <point x="236.936" y="52" type="curve" smooth="yes"/>
      <point x="165.34" y="52"/>
      <point x="126.333" y="115.907"/>
      <point x="126.333" y="196.241" type="curve" smooth="yes"/>
      <point x="126.333" y="295.979"/>
      <point x="186.459" y="448"/>
      <point x="294.091" y="448" type="curve" smooth="yes"/>
      <point x="363.115" y="448"/>
      <point x="409.245" y="385.479"/>
      <point x="409.245" y="299.917" type="curve" smooth="yes"/>
      <point x="409.245" y="199.5"/>
      <point x="345.706" y="52"/>
    </contour>
    <contour>
      <point x="453.857" y="0" type="line"/>
      <point x="551.118" y="500.364" type="line"/>
      <point x="461.118" y="500.364" type="line"/>
      <point x="447.227" y="428.904" type="line"/>
      <point x="419.881" y="482.149"/>
      <point x="390.353" y="512"/>
      <point x="315.773" y="512" type="curve" smooth="yes"/>
      <point x="144.232" y="512"/>
      <point x="30.9608" y="354.074"/>
      <point x="30.9608" y="201.891" type="curve" smooth="yes"/>
      <point x="30.9608" y="84.6275"/>
      <point x="98.2131" y="-12"/>
      <point x="198.27" y="-12" type="curve" smooth="yes"/>
      <point x="253.89" y="-12"/>
      <point x="323.475" y="17.7833"/>
      <point x="378.458" y="75.1168" type="curve"/>
      <point x="363.857" y="0" type="line"/>
    </contour>
    <contour>
      <point x="437.721" y="380" type="line"/>
      <point x="527.721" y="380" type="line"/>
      <point x="552.16" y="505.724" type="line" smooth="yes"/>
      <point x="568.757" y="591.108"/>
      <point x="602.188" y="662"/>
      <point x="696.22" y="662" type="curve" smooth="yes"/>
      <point x="731.537" y="662"/>
      <point x="762.593" y="652"/>
      <point x="783.511" y="631" type="curve"/>
      <point x="847.619" y="683" type="line"/>
      <point x="822.033" y="716"/>
      <point x="773.143" y="732"/>
      <point x="701.143" y="732" type="curve" smooth="yes"/>
      <point x="587.796" y="732"/>
      <point x="490.941" y="653.789"/>
      <point x="469.794" y="545" type="curve" smooth="yes"/>
    </contour>
  </outline>
</glyph>
<glyph name="uni025A" format="2">
  <advance width="766"/>
  <unicode hex="025A"/>
  <anchor x="222.299" y="-82" name="top"/>
  <anchor x="352.34" y="587" name="bottom"/>
  <anchor x="335.04" y="498" name="cedilla.bottom"/>
  <outline>
    <contour>
      <point x="524.619" y="325.168" type="curve" smooth="yes"/>
      <point x="524.619" y="434.404"/>
      <point x="469.267" y="512"/>
      <point x="335.952" y="512" type="curve" smooth="yes"/>
      <point x="208.952" y="512"/>
      <point x="117.989" y="443"/>
      <point x="76.6738" y="338" type="curve"/>
      <point x="174.13" y="338" type="line"/>
      <point x="192.181" y="400"/>
      <point x="244.317" y="447"/>
      <point x="318.176" y="447" type="curve" smooth="yes"/>
      <point x="404.358" y="447"/>
      <point x="429.619" y="383.008"/>
      <point x="429.619" y="301.16" type="curve" smooth="yes"/>
      <point x="429.619" y="194.419"/>
      <point x="386.656" y="51"/>
      <point x="246.342" y="51" type="curve" smooth="yes"/>
      <point x="166.746" y="51"/>
      <point x="143.137" y="96.5355"/>
      <point x="143.137" y="155.591" type="curve" smooth="yes"/>
      <point x="143.137" y="176.252"/>
      <point x="146.027" y="198.567"/>
      <point x="150.419" y="221.167" type="curve"/>
      <point x="47.8956" y="176.57" type="line"/>
      <point x="44.7166" y="160.574"/>
      <point x="43.137" y="145.443"/>
      <point x="43.137" y="131.232" type="curve" smooth="yes"/>
      <point x="43.137" y="39.3863"/>
      <point x="109.123" y="-14"/>
      <point x="233.708" y="-14" type="curve" smooth="yes"/>
      <point x="423.415" y="-14"/>
      <point x="524.619" y="152.514"/>
    </contour>
    <contour>
      <point x="64.2274" y="121.371" type="line"/>
      <point x="609.581" y="363.256" type="line"/>
      <point x="600.104" y="370" type="line"/>
      <point x="586.726" y="301.173" type="line" smooth="yes"/>
      <point x="585.292" y="293.798"/>
      <point x="584.576" y="286.8"/>
      <point x="584.576" y="280.212" type="curve" smooth="yes"/>
      <point x="584.576" y="238.294"/>
      <point x="613.588" y="213"/>
      <point x="671.472" y="213" type="curve" smooth="yes"/>
      <point x="721.472" y="213"/>
      <point x="767.385" y="257"/>
      <point x="779.436" y="319" type="curve"/>
      <point x="734.436" y="319" type="line"/>
      <point x="726.272" y="277"/>
      <point x="707.695" y="253.087"/>
      <point x="672.763" y="252.979" type="curve" smooth="yes"/>
      <point x="650.005" y="252.909"/>
      <point x="638.964" y="263"/>
      <point x="639.318" y="285.602" type="curve" smooth="yes"/>
      <point x="639.399" y="290.745"/>
      <point x="640.069" y="296.535"/>
      <point x="641.326" y="303" type="curve" smooth="yes"/>
      <point x="670.289" y="452" type="line"/>
      <point x="63.8219" y="183.487" type="line"/>
    </contour>
  </outline>
  <guideline angle="205.918" x="630" y="452"/>
  <guideline angle="25.9249" x="155" y="153"/>
</glyph>
<glyph name="uni025F" format="2">
  <advance width="317"/>
  <unicode hex="025F"/>
  <outline>
    <contour>
      <point x="-105.169" y="-147" type="line"/>
      <point x="-76.5554" y="-185"/>
      <point x="-42.4711" y="-200"/>
      <point x="3.52886" y="-200" type="curve" smooth="yes"/>
      <point x="83.5289" y="-200"/>
      <point x="138.47" y="-154"/>
      <point x="154.021" y="-74" type="curve" smooth="yes"/>
      <point x="265.595" y="500" type="line"/>
      <point x="175.595" y="500" type="line"/>
      <point x="65.9646" y="-64" type="line" smooth="yes"/>
      <point x="58.5781" y="-102"/>
      <point x="41.8849" y="-121"/>
      <point x="8.8849" y="-121" type="curve" smooth="yes"/>
      <point x="-10.1151" y="-121"/>
      <point x="-20.7544" y="-114"/>
      <point x="-37.0893" y="-90" type="curve"/>
    </contour>
    <contour>
      <point x="31.5574" y="222" type="line"/>
      <point x="301.557" y="222" type="line"/>
      <point x="312.443" y="278" type="line"/>
      <point x="42.4426" y="278" type="line"/>
    </contour>
  </outline>
  <guideline angle="225" x="29" y="-90"/>
</glyph>
<glyph name="uni0260" format="2">
  <advance width="621"/>
  <unicode hex="0260"/>
  <outline>
    <component base="g" xOffset="180"/>
    <contour>
      <point x="495.745" y="400" type="line"/>
      <point x="585.745" y="400" type="line"/>
      <point x="606.738" y="508" type="line" smooth="yes"/>
      <point x="618.206" y="565.258"/>
      <point x="634.761" y="573"/>
      <point x="666.98" y="573" type="curve" smooth="yes"/>
      <point x="689.761" y="573"/>
      <point x="704.984" y="569.129"/>
      <point x="718.234" y="560.419" type="curve"/>
      <point x="730.092" y="622.524" type="line"/>
      <point x="717.035" y="632.841"/>
      <point x="698.007" y="638"/>
      <point x="668.986" y="638" type="curve" smooth="yes"/>
      <point x="580.007" y="638"/>
      <point x="532.871" y="589.508"/>
      <point x="515.183" y="500" type="curve" smooth="yes"/>
    </contour>
  </outline>
</glyph>
<glyph name="uni0262" format="2">
  <advance width="550"/>
  <unicode hex="0262"/>
  <outline>
    <contour>
      <point x="30.9395" y="179.145" type="curve" smooth="yes"/>
      <point x="30.9395" y="52.3666"/>
      <point x="110.987" y="-11.9986"/>
      <point x="263.537" y="-11.9986" type="curve" smooth="yes"/>
      <point x="326.982" y="-11.9986"/>
      <point x="387.843" y="-0.819967"/>
      <point x="447.655" y="22.9346" type="curve"/>
      <point x="494.921" y="266.07" type="line"/>
      <point x="309.775" y="266.07" type="line"/>
      <point x="297.958" y="205.286" type="line"/>
      <point x="412.539" y="205.286" type="line"/>
      <point x="386.094" y="69.2518" type="line"/>
      <point x="344.097" y="58.0732"/>
      <point x="303.187" y="52.4839"/>
      <point x="261.267" y="52.4839" type="curve" smooth="yes"/>
      <point x="174.449" y="52.4839"/>
      <point x="124.94" y="107.49"/>
      <point x="124.94" y="199.586" type="curve" smooth="yes"/>
      <point x="124.94" y="316.936"/>
      <point x="205.323" y="441.216"/>
      <point x="331.747" y="441.216" type="curve" smooth="yes"/>
      <point x="392.229" y="441.216"/>
      <point x="428.691" y="412.772"/>
      <point x="428.704" y="377.049" type="curve" smooth="yes"/>
      <point x="428.705" y="373.581"/>
      <point x="428.363" y="370.045"/>
      <point x="427.666" y="366.459" type="curve"/>
      <point x="517.231" y="366.459" type="line"/>
      <point x="518.602" y="373.51"/>
      <point x="519.27" y="380.481"/>
      <point x="519.27" y="387.33" type="curve" smooth="yes"/>
      <point x="519.27" y="455.811"/>
      <point x="452.474" y="512"/>
      <point x="353.392" y="512" type="curve" smooth="yes"/>
      <point x="159.975" y="512"/>
      <point x="30.9396" y="364.679"/>
    </contour>
  </outline>
</glyph>
